<?xml version="1.0" encoding="utf-8"?>
<svg version="1.1" xmlns:xlink="http://www.w3.org/1999/xlink" width="1056px" height="10px" preserveAspectRatio="xMinYMid meet" viewBox="2247 114  1056 8" xmlns="http://www.w3.org/2000/svg">
  <path d="M 2821 363.5  L 2257 363.5  A 5 5 0 0 1 2252.5 358.5 L 2252.5 123  A 5 5 0 0 1 2257.5 118.5 L 3293 118.5  A 5 5 0 0 1 3298.5 123.5 L 3298.5 193  A 5 5 0 0 0 3303.5 198.5 " stroke-width="1" stroke-dasharray="3,1" stroke="#0099ff" fill="none" />
  <path d="M 2819 360.5  A 3 3 0 0 0 2816 363.5 A 3 3 0 0 0 2819 366.5 A 3 3 0 0 0 2822 363.5 A 3 3 0 0 0 2819 360.5 Z M 3297 206  L 3308 198.5  L 3297 191  L 3297 206  Z " fill-rule="nonzero" fill="#0099ff" stroke="none" />
</svg>