<?xml version="1.0" encoding="utf-8"?>
<svg version="1.1" xmlns:xlink="http://www.w3.org/1999/xlink" width="71px" height="65px" xmlns="http://www.w3.org/2000/svg">
  <g transform="matrix(1 0 0 1 -3062 -658 )">
    <path d="M 3062 658  L 3133 658  L 3133 723  L 3062 723  L 3062 658  " fill-rule="nonzero" fill="#cccccc" stroke="none" />
    <path d="M 3067 663  L 3128 663  L 3128 718  L 3067 718  L 3067 663  " fill-rule="nonzero" fill="#ffffff" stroke="none" />
    <path d="M 3103.795 677.5  C 3101.065 677.5  3098.92 675.355  3098.92 672.625  C 3098.92 669.895  3101.065 667.75  3103.795 667.75  C 3106.525 667.75  3108.67 669.895  3108.67 672.625  C 3108.67 675.355  3106.525 677.5  3103.795 677.5  " fill-rule="nonzero" fill="#cccccc" stroke="none" />
    <path d="M 3069 717  L 3069 688.4  L 3083.5 675.4  L 3103.8 688.43661971831  L 3115.4 683.2  L 3127 688.43661971831  L 3127 717  L 3069 717  " fill-rule="nonzero" fill="#169bd5" stroke="none" />
  </g>
</svg>