<svg t="1562137862811" class="icon" viewBox="0 0 1024 1024" version="1.1" xmlns="http://www.w3.org/2000/svg" p-id="8874" width="200" height="200"><path d="M317.6195009 232.46232991c-24.06615705 0-42.57858553 18.51242849-42.57858551 42.57858548v473.91816922c0 24.06615705 18.51242849 42.57858553 42.57858551 42.57858548 24.06615705 0 42.57858553-18.51242849 42.57858555-42.57858548V275.04091539c-1.85124284-24.06615705-20.36367135-42.57858553-42.57858555-42.57858548zM512 232.46232991c-24.06615705 0-42.57858553 18.51242849-42.57858553 42.57858548v473.91816922c0 24.06615705 18.51242849 42.57858553 42.57858553 42.57858548 24.06615705 0 42.57858553-18.51242849 42.57858553-42.57858548V275.04091539c0-24.06615705-18.51242849-42.57858553-42.57858553-42.57858548zM706.3804991 232.46232991c-24.06615705 0-42.57858553 18.51242849-42.57858555 42.57858548v473.91816922c0 24.06615705 18.51242849 42.57858553 42.57858555 42.57858548 24.06615705 0 42.57858553-18.51242849 42.57858551-42.57858548V275.04091539c0-24.06615705-18.51242849-42.57858553-42.57858551-42.57858548z" fill="#707070" p-id="8875"></path></svg>