<?xml version="1.0" encoding="utf-8"?>
<svg version="1.1" xmlns:xlink="http://www.w3.org/1999/xlink" width="360px" height="558px" xmlns="http://www.w3.org/2000/svg">
  <g transform="matrix(1 0 0 1 -2859 -2064 )">
    <path d="M 2859 2064  L 3219 2064  L 3219 2622  L 2859 2622  L 2859 2064  " fill-rule="nonzero" fill="#cccccc" stroke="none" />
    <path d="M 2884 2089  L 3194 2089  L 3194 2597  L 2884 2597  L 2884 2089  " fill-rule="nonzero" fill="#ffffff" stroke="none" />
    <path d="M 3073.2 2201.7  C 3058.08 2201.7  3046.2 2189.82  3046.2 2174.7  C 3046.2 2159.58  3058.08 2147.7  3073.2 2147.7  C 3088.32 2147.7  3100.2 2159.58  3100.2 2174.7  C 3100.2 2189.82  3088.32 2201.7  3073.2 2201.7  " fill-rule="nonzero" fill="#cccccc" stroke="none" />
    <path d="M 2893 2588  L 2893 2318.5  L 2966 2196  L 3068.2 2294  L 3126.6 2269.5  L 3185 2294  L 3185 2588  L 2893 2588  " fill-rule="nonzero" fill="#169bd5" stroke="none" />
  </g>
</svg>