<?xml version="1.0" encoding="utf-8"?>
<svg version="1.1" xmlns:xlink="http://www.w3.org/1999/xlink" width="375px" height="582px" xmlns="http://www.w3.org/2000/svg">
  <g transform="matrix(1 0 0 1 -2016 -2066 )">
    <path d="M 2016 2066  L 2391 2066  L 2391 2648  L 2016 2648  L 2016 2066  " fill-rule="nonzero" fill="#cccccc" stroke="none" />
    <path d="M 2042 2092  L 2365 2092  L 2365 2622  L 2042 2622  L 2042 2092  " fill-rule="nonzero" fill="#ffffff" stroke="none" />
    <path d="M 2239.125 2209.55  C 2223.375 2209.55  2211 2197.175  2211 2181.425  C 2211 2165.675  2223.375 2153.3  2239.125 2153.3  C 2254.875 2153.3  2267.25 2165.675  2267.25 2181.425  C 2267.25 2197.175  2254.875 2209.55  2239.125 2209.55  " fill-rule="nonzero" fill="#cccccc" stroke="none" />
    <path d="M 2052 2613  L 2052 2331.95  L 2128 2204.2  L 2234.4 2306.4  L 2295.2 2280.85  L 2356 2306.4  L 2356 2613  L 2052 2613  " fill-rule="nonzero" fill="#169bd5" stroke="none" />
  </g>
</svg>