<?xml version="1.0" encoding="utf-8"?>
<svg version="1.1" xmlns:xlink="http://www.w3.org/1999/xlink" width="48px" height="36px" xmlns="http://www.w3.org/2000/svg">
  <g transform="matrix(1 0 0 1 -2476 -2091 )">
    <path d="M 47 9.076  C 47.324 7.424  46.176 6.276  44.524 6.276  L 36.124 6.276  C 33.324 6.276  32.4 0.676  29.6 1  L 17.476 1  C 15.6 0.676  14.676 6.276  11.876 6.276  L 3.476 6.276  C 1.852 6.276  0.675999999999998 7.452  1 9.076  L 1 33.1  C 0.675999999999998 34.5  1.852 35.676  3.476 35  L 44.552 35  C 46.176 35.676  47.352 34.5  47 32.876  L 47 9.076  Z M 35.2 20.024  C 35.2 26.1  30.076 31  24 31  C 17.7 31  12.8 26.1  12.8 20.024  C 12.8 13.948  17.7 9.048  24 9.048  C 30.3 9.048  35.2 13.948  35.2 20.024  Z M 38.924 10.224  C 38.924 11.176  38.224 11.624  37.524 11.624  C 36.824 11.624  36.124 10.924  36.124 10.224  C 36.124 9.524  36.824 8.824  37.524 8.824  C 38.224 8.824  38.924 9.524  38.924 10.224  Z M 10 4.4  L 10 3.476  C 10 3  9.524 2.552  9.076 2.552  L 6.276 2.552  C 5.8 2.552  5.352 3.028  5.352 3.476  L 5.352 4.4  L 10 4.4  Z M 32.4 20.024  C 32.4 15.348  28.676 11.624  24 11.624  C 19.324 11.624  15.6 15.348  15.6 20.024  C 15.6 24.7  19.324 28.424  24 28.424  C 28.676 28.424  32.4 24.7  32.4 20.024  Z " fill-rule="nonzero" fill="#009dd9" stroke="none" transform="matrix(1 0 0 1 2476 2091 )" />
  </g>
</svg>