<?xml version="1.0" encoding="utf-8"?>
<svg version="1.1" xmlns:xlink="http://www.w3.org/1999/xlink" width="35px" height="29px" xmlns="http://www.w3.org/2000/svg">
  <g transform="matrix(1 0 0 1 -2038 -1687 )">
    <path d="M 2038 1687  L 2073 1687  L 2073 1716  L 2038 1716  L 2038 1687  " fill-rule="nonzero" fill="#cccccc" stroke="none" />
    <path d="M 2040 1689  L 2071 1689  L 2071 1714  L 2040 1714  L 2040 1689  " fill-rule="nonzero" fill="#ffffff" stroke="none" />
    <path d="M 2058.375 1695.7  C 2057.157 1695.7  2056.2 1694.743  2056.2 1693.525  C 2056.2 1692.307  2057.157 1691.35  2058.375 1691.35  C 2059.593 1691.35  2060.55 1692.307  2060.55 1693.525  C 2060.55 1694.743  2059.593 1695.7  2058.375 1695.7  " fill-rule="nonzero" fill="#cccccc" stroke="none" />
    <path d="M 2041 1714  L 2041 1700.8  L 2048.5 1694.8  L 2059 1702.06857142857  L 2065 1698.4  L 2071 1702.06857142857  L 2071 1714  L 2041 1714  " fill-rule="nonzero" fill="#169bd5" stroke="none" />
  </g>
</svg>