<?xml version="1.0" encoding="utf-8"?>
<svg version="1.1" xmlns:xlink="http://www.w3.org/1999/xlink" width="997px" height="10px" preserveAspectRatio="xMinYMid meet" viewBox="2494 1933.28205128205  997 8" xmlns="http://www.w3.org/2000/svg">
  <path d="M 2499.5 2064  L 2499.5 1942.28205128205  A 5 5 0 0 1 2504.5 1937.78205128205 L 3481 1937.78205128205  A 5 5 0 0 1 3486.5 1942.78205128205 L 3486.5 1990  " stroke-width="1" stroke-dasharray="3,1" stroke="#0099ff" fill="none" />
  <path d="M 2499.5 2059  A 3 3 0 0 0 2496.5 2062 A 3 3 0 0 0 2499.5 2065 A 3 3 0 0 0 2502.5 2062 A 3 3 0 0 0 2499.5 2059 Z M 3479 1990  L 3486.5 2001  L 3494 1990  L 3479 1990  Z " fill-rule="nonzero" fill="#0099ff" stroke="none" />
</svg>