<?xml version="1.0" encoding="utf-8"?>
<svg version="1.1" xmlns:xlink="http://www.w3.org/1999/xlink" width="21px" height="11px" xmlns="http://www.w3.org/2000/svg">
  <g transform="matrix(1 0 0 1 -2328 -1654 )">
    <path d="M 9.71990729944031 10.8016393442622  C 9.9358208955224 10.9298764088114  10.2213998367537 10.9799596567623  10.5 10.9699394851434  C 10.7820895522388 10.9799596567623  11.0676684934701 10.9298764088114  11.2835820895522 10.8016393442622  L 20.6169324277052 5.33372502561474  C 21.0104681669776 5.10329629866806  21.0104681669776 4.72862288678289  20.6169324277052 4.49620421362715  C 20.2233966884328 4.26577548668024  19.5826040694963 4.26577548668024  19.1890683302239 4.49620421362715  L 10.5000306086754 9.58544761782787  L 1.81445166744402 4.49620421362715  C 1.42091592817164 4.26577548668024  0.776633920242546 4.26577548668024  0.383128789645525 4.49620421362715  C -0.0103763409514954 4.72663294057384  -0.0104069496268551 5.10130635245901  0.383128789645525 5.33171746926223  L 9.71993790811567 10.8016569544056  Z M 10.5 6.68415887551237  C 10.7820895522388 6.69618660348351  11.0676684934701 6.64409579918038  11.2835820895522 6.51786629098365  L 20.6169324277052 1.04995197233598  C 21.0104681669776 0.819523245389291  21.0104681669776 0.444849833504122  20.6169324277052 0.212431160348387  C 20.2233966884328 -0.0179975665982965  19.5826040694963 -0.0159724001025552  19.1890683302239 0.212431160348387  L 10.5000306086754 5.3016745645491  L 1.81797166511194 0.210423603995878  C 1.42443592583956 -0.0179975665982965  0.78015391791044 -0.0200051229508063  0.386648787313447 0.210423603995878  C -0.00688695195896116 0.442842277151613  -0.00688695195896116 0.817533299180241  0.386648787313447 1.04794441598369  L 9.71999912546642 6.51788390112711  C 9.93588211287314 6.64411340932384  10.2214916627798 6.69620421362697  10.5000918260261 6.68417648565583  Z " fill-rule="nonzero" fill="#ffffff" stroke="none" transform="matrix(1 0 0 1 2328 1654 )" />
  </g>
</svg>