<?xml version="1.0" encoding="utf-8"?>
<svg version="1.1" xmlns:xlink="http://www.w3.org/1999/xlink" width="70px" height="49px" xmlns="http://www.w3.org/2000/svg">
  <g transform="matrix(1 0 0 1 -3852 -2503 )">
    <path d="M 69 11.7216072796937  C 69.8240277777777 9.434283524904  68.1100000000001 7.84478735632183  65.643472222222 8  L 53.1018055555555 8  C 48.9212499999999 7.84478735632183  47.541666666667 0.0911475095786045  43.3611111111113 0  L 25.2593055555558 0  C 22.458333333333 0.0911475095786045  21.0787500000001 7.84478735632183  16.8981944444445 8  L 4.35652777777796 8  C 1.93180555555546 7.84478735632183  0.175972222222299 9.47305172413826  1 11.7216072796937  L 1 44.9847222222224  C 0.175972222222299 46.9231321839079  1.93180555555546 48.5513965517243  4.35652777777796 48  L 65.6852777777781 48  C 68.1100000000001 48.5513965517243  69.8658333333333 46.9231321839079  69 44.6745766283525  L 69 11.7216072796937  Z M 51.7222222222222 26.8799731800764  C 51.7222222222222 35.2926724137933  44.0718055555553 42.0771072796938  35 42.0771072796938  C 25.59375 42.0771072796938  18.2777777777778 35.2926724137933  18.2777777777778 26.8799731800764  C 18.2777777777778 18.4672739463604  25.59375 11.6828390804599  35 11.6828390804599  C 44.40625 11.6828390804599  51.7222222222222 18.4672739463604  51.7222222222222 26.8799731800764  Z M 57.2823611111112 13.3111034482758  C 57.2823611111112 14.6292222222223  56.237222222222 15.2495134099618  55.1920833333334 15.2495134099618  C 54.1469444444447 15.2495134099618  53.1018055555555 14.2803084291186  53.1018055555555 13.3111034482758  C 53.1018055555555 12.3418984674331  54.1469444444447 11.3726934865899  55.1920833333334 11.3726934865899  C 56.237222222222 11.3726934865899  57.2823611111112 12.3418984674331  57.2823611111112 13.3111034482758  Z M 14.0972222222222 5.24731800766313  L 14.0972222222222 3.96796743294999  C 14.0972222222222 3.30890804597675  13.3865277777777 2.68861685823777  12.7176388888888 2.68861685823777  L 8.53708333333316 2.68861685823777  C 7.82638888888914 2.68861685823777  7.1574999999998 3.34767624521055  7.1574999999998 3.96796743294999  L 7.1574999999998 5.24731800766313  L 14.0972222222222 5.24731800766313  Z M 47.541666666667 26.8799731800764  C 47.541666666667 20.4056839080458  41.981527777778 15.2495134099618  35 15.2495134099618  C 28.018472222222 15.2495134099618  22.458333333333 20.4056839080458  22.458333333333 26.8799731800764  C 22.458333333333 33.3542624521069  28.018472222222 38.5104329501914  35 38.5104329501914  C 41.981527777778 38.5104329501914  47.541666666667 33.3542624521069  47.541666666667 26.8799731800764  Z " fill-rule="nonzero" fill="#009dd9" stroke="none" transform="matrix(1 0 0 1 3852 2503 )" />
  </g>
</svg>