<svg t="1571127899773" class="icon" viewBox="0 0 1024 1024" version="1.1" xmlns="http://www.w3.org/2000/svg" p-id="4655" width="200" height="200"><path d="M512 72C269.62 72 72 269.62 72 512s197.62 440 440 440 440-197.62 440-440S754.38 72 512 72z m0 830.57c-215.2 0-390.57-175.37-390.57-390.57S296.8 121.43 512 121.43 902.57 296.8 902.57 512 727.2 902.57 512 902.57z" fill="#0096FF" p-id="4656"></path><path d="M744.81 439.1L606.02 300.31c-3.63-3.63-8.57-5.63-13.88-5.63-5.4 0-10.5 2.04-14.13 5.49-7.63 8.02-7.71 20.69-0.13 28.27l104.9 104.91H293.26c-10.74 0-19.82 9.06-19.82 19.81s9.08 19.82 19.82 19.82h437.48c1.68 0 3.2-0.58 4.76-0.99 3.48-0.81 6.74-2.19 9.17-4.62 1.32-1.38 2.1-3.03 2.97-4.64 1.68-2.9 2.91-6.06 2.91-9.57 0-1.23-0.5-2.32-0.73-3.49-0.64-3.89-2.07-7.64-5.01-10.57zM730.74 551.52h-436.4c-0.43-0.03-0.83-0.26-1.27-0.26-5.26 0-10.14 2.08-13.76 5.87-1.35 1.42-2.17 3.11-3.05 4.77-1.63 2.87-2.82 5.98-2.82 9.44 0 1.39 0.53 2.64 0.82 3.96 0.71 3.71 2.12 7.29 4.92 10.1l138.65 138.67c3.89 3.71 9 5.76 14.39 5.76 5.32 0 10.25-2 13.75-5.51 7.64-8 7.69-20.69 0.12-28.27l-104.9-104.9h389.53c10.74 0 19.82-9.08 19.82-19.82s-9.06-19.81-19.8-19.81z" fill="#0096FF" p-id="4657"></path></svg>