<?xml version="1.0" encoding="utf-8"?>
<svg version="1.1" xmlns:xlink="http://www.w3.org/1999/xlink" width="52px" height="51px" xmlns="http://www.w3.org/2000/svg">
  <g transform="matrix(1 0 0 1 -4360 -2463 )">
    <path d="M 45.8355365820313 9.46829274023438  C 49.5061761370688 13.9977955179335  51.5058087525546 19.6527565473521  51.498391109375 25.4828453232422  C 51.4983947418485 25.4884017184464  51.4983965580855 25.4939581146932  51.4983965580855 25.4995145110848  C 51.4983965580855 39.5816413791224  40.0825771722168 50.997460764991  26.0004503041792 50.997460764991  C 11.9183234361416 50.997460764991  0.502504050272967 39.5816413791224  0.502504050272967 25.4995145110848  C 0.502504050272967 11.4173876430472  11.9183234361416 0.00156825717855305  26.0004503041792 0.00156825717855305  C 32.623887089075 0.00156825717855305  38.9874048264698 2.57890827463116  43.7440556679687 7.18805001855469  L 24.9509291035156 33.6902091328125  L 12.7418147832031 21.4810948125  C 12.4584596395655 21.1977396688624  12.0741475923739 21.0385524067323  11.6734229052734 21.0385524067323  C 10.8389569423908 21.0385524067323  10.162488621576 21.7150207275471  10.162488621576 22.5494866904297  C 10.162488621576 22.9502113775302  10.3216758837062 23.3345234247218  10.6050310273437 23.6178785683594  L 24.0750742783203 37.0879218691406  C 24.3588183143219 37.373359478215  24.7447675451553 37.5337186616338  25.1472414013672 37.5333997470703  L 25.2604985058594 37.5333997470703  C 25.7021097279888 37.496376580772  26.1051678564797 37.2672407851695  26.3628674902344 36.9067105019531  L 45.8355365820313 9.46829274023438  Z " fill-rule="nonzero" fill="#ffffff" stroke="none" transform="matrix(1 0 0 1 4360 2463 )" />
  </g>
</svg>