<?xml version="1.0" encoding="utf-8"?>
<svg version="1.1" xmlns:xlink="http://www.w3.org/1999/xlink" width="277px" height="10px" preserveAspectRatio="xMinYMid meet" viewBox="2774 998  277 8" xmlns="http://www.w3.org/2000/svg">
  <path d="M 2773 919.5  L 2774 919.5  A 5 5 0 0 1 2779.5 924.5 L 2779.5 997  A 5 5 0 0 0 2784.5 1002.5 L 3040 1002.5  " stroke-width="1" stroke-dasharray="3,1" stroke="#0099ff" fill="none" />
  <path d="M 2775.49334665398 916.599667110794  A 3 3 0 0 0 2772.49334665398 919.599667110794 A 3 3 0 0 0 2775.49334665398 922.599667110794 A 3 3 0 0 0 2778.49334665398 919.599667110794 A 3 3 0 0 0 2775.49334665398 916.599667110794 Z M 3040 1010  L 3051 1002.5  L 3040 995  L 3040 1010  Z " fill-rule="nonzero" fill="#0099ff" stroke="none" />
</svg>