<?xml version="1.0" encoding="utf-8"?>
<svg version="1.1" xmlns:xlink="http://www.w3.org/1999/xlink" width="18px" height="18px" preserveAspectRatio="xMinYMid meet" viewBox="2698 907  18 16" xmlns="http://www.w3.org/2000/svg">
  <path d="M 2709.51038416298 915.375649686843  A 4 4 0 0 1 2706.5 911.5 L 2706.5 848  A 5 5 0 0 1 2711.5 843.5 L 3032 843.5  " stroke-width="1" stroke-dasharray="3,1" stroke="#0099ff" fill="none" />
  <path d="M 2707.77344495991 911.426755475495  A 3 3 0 0 0 2704.77344495991 914.426755475495 A 3 3 0 0 0 2707.77344495991 917.426755475495 A 3 3 0 0 0 2710.77344495991 914.426755475495 A 3 3 0 0 0 2707.77344495991 911.426755475495 Z M 3032 851  L 3043 843.5  L 3032 836  L 3032 851  Z " fill-rule="nonzero" fill="#0099ff" stroke="none" />
</svg>