<?xml version="1.0" encoding="utf-8"?>
<svg version="1.1" xmlns:xlink="http://www.w3.org/1999/xlink" width="12px" height="12px" viewBox="513 409  12 12" xmlns="http://www.w3.org/2000/svg">
  <path d="M 519 409  C 522.36 409  525 411.64  525 415  C 525 418.36  522.36 421  519 421  C 515.64 421  513 418.36  513 415  C 513 411.64  515.64 409  519 409  Z " fill-rule="nonzero" fill="#ffffff" stroke="none" />
  <path d="M 519 409.5  C 522.08 409.5  524.5 411.92  524.5 415  C 524.5 418.08  522.08 420.5  519 420.5  C 515.92 420.5  513.5 418.08  513.5 415  C 513.5 411.92  515.92 409.5  519 409.5  Z " stroke-width="1" stroke="#797979" fill="none" />
  <path d="M 519 418  C 517.32 418  516 416.68  516 415  C 516 413.32  517.32 412  519 412  C 520.68 412  522 413.32  522 415  C 522 416.68  520.68 418  519 418  " fill-rule="nonzero" fill="#797979" stroke="none" />
</svg>