<?xml version="1.0" encoding="utf-8"?>
<svg version="1.1" xmlns:xlink="http://www.w3.org/1999/xlink" width="12px" height="12px" viewBox="513 530  12 12" xmlns="http://www.w3.org/2000/svg">
  <path d="M 519 530  C 522.36 530  525 532.64  525 536  C 525 539.36  522.36 542  519 542  C 515.64 542  513 539.36  513 536  C 513 532.64  515.64 530  519 530  Z " fill-rule="nonzero" fill="#ffffff" stroke="none" />
  <path d="M 519 530.5  C 522.08 530.5  524.5 532.92  524.5 536  C 524.5 539.08  522.08 541.5  519 541.5  C 515.92 541.5  513.5 539.08  513.5 536  C 513.5 532.92  515.92 530.5  519 530.5  Z " stroke-width="1" stroke="#797979" fill="none" />
  <path d="M 519 539  C 517.32 539  516 537.68  516 536  C 516 534.32  517.32 533  519 533  C 520.68 533  522 534.32  522 536  C 522 537.68  520.68 539  519 539  " fill-rule="nonzero" fill="#797979" stroke="none" />
</svg>