<?xml version="1.0" encoding="utf-8"?>
<svg version="1.1" xmlns:xlink="http://www.w3.org/1999/xlink" width="12px" height="12px" viewBox="2483 311  12 12" xmlns="http://www.w3.org/2000/svg">
  <path d="M 2489 311  C 2492.36 311  2495 313.64  2495 317  C 2495 320.36  2492.36 323  2489 323  C 2485.64 323  2483 320.36  2483 317  C 2483 313.64  2485.64 311  2489 311  Z " fill-rule="nonzero" fill="#ffffff" stroke="none" />
  <path d="M 2489 311.5  C 2492.08 311.5  2494.5 313.92  2494.5 317  C 2494.5 320.08  2492.08 322.5  2489 322.5  C 2485.92 322.5  2483.5 320.08  2483.5 317  C 2483.5 313.92  2485.92 311.5  2489 311.5  Z " stroke-width="1" stroke="#797979" fill="none" />
  <path d="M 2489 320  C 2487.32 320  2486 318.68  2486 317  C 2486 315.32  2487.32 314  2489 314  C 2490.68 314  2492 315.32  2492 317  C 2492 318.68  2490.68 320  2489 320  " fill-rule="nonzero" fill="#797979" stroke="none" />
</svg>