<?xml version="1.0" encoding="utf-8"?>
<svg version="1.1" xmlns:xlink="http://www.w3.org/1999/xlink" width="8px" height="15px" xmlns="http://www.w3.org/2000/svg">
  <g transform="matrix(1 0 0 1 -403 -219 )">
    <path d="M 0.0054466169888201 0.451746327621432  C 0.0054466169888201 0.202586334426869  0.208259482689982 0.000470479937793774  0.458750823207879 0  C 0.579162314578184 0  0.694600780258952 0.0477698430186044  0.779462213018292 0.132740860151633  L 7.865246855534 7.18085239247812  C 7.95147768927575 7.26570685336945  8 7.38134650279985  8 7.50199963697446  C 8 7.62265277114919  7.95147768927575 7.73829242057959  7.865246855534 7.82314688147093  L 0.779462213018292 14.8669764558108  C 0.693833403984399 14.9521500007178  0.577695816094206 15  0.456598393028798 15  C 0.20442606376173 15  0 14.7966608117241  0 14.5458292113144  C 0 14.4253756289516  0.0481057640054132 14.309855511725  0.133734573039305 14.2246819668181  L 6.89235054993389 7.49343572100147  L 0.138039418670814 0.770753391157917  C 0.0531294935100277 0.686069277891596  0.0054466169888201 0.57134831093837  0.0054466169888201 0.451746327621432  Z " fill-rule="nonzero" fill="#333333" stroke="none" transform="matrix(1 0 0 1 403 219 )" />
  </g>
</svg>