<?xml version="1.0" encoding="utf-8"?>
<svg version="1.1" xmlns:xlink="http://www.w3.org/1999/xlink" width="15px" height="15px" xmlns="http://www.w3.org/2000/svg">
  <g transform="matrix(1 0 0 1 -98 -938 )">
    <path d="M 7.5 15  C 3.35793104003915 15  0 11.6420689599609  0 7.5  C 0 3.35793104003915  3.35793104003915 0  7.5 0  C 11.6420689599609 0  15 3.35793104003915  15 7.5  C 15 11.6420689599609  11.6420689599609 15  7.5 15  Z M 6.1422413818359 10.3510344873047  C 6.33820018713766 10.5531036905494  6.6597699306634 10.561378534792  6.86586206542972 10.3696551708983  L 11.7806896582032 5.8003448291015  C 11.8848861034282 5.70257032591314  11.9439943808298 5.56604840488365  11.9439943808298 5.42316120226803  C 11.9439943808298 5.13749667509853  11.7124175261632 4.90591982043213  11.4267529989938 4.90591982043213  C 11.2969804732876 4.90591982043213  11.1719493227306 4.95470134051413  11.0764655126952 5.04258621093754  L 6.54827586914064 9.28396551269532  L 4.42241378906249 7.0918965527344  C 4.32480465767753 6.98956319459944  4.1895517185402 6.93165862574631  4.04813156892601 6.93165862574631  C 3.76246704175674 6.93165862574631  3.53089018709011 7.16323548041282  3.53089018709011 7.44890000758221  C 3.53089018709011 7.58486537044303  3.58442622401878 7.71536310087254  3.67991378906254 7.81215517089845  L 6.14249999999993 10.3510344873047  Z " fill-rule="nonzero" fill="#00d8a0" stroke="none" transform="matrix(1 0 0 1 98 938 )" />
  </g>
</svg>