<?xml version="1.0" encoding="utf-8"?>
<svg version="1.1" xmlns:xlink="http://www.w3.org/1999/xlink" width="15px" height="15px" xmlns="http://www.w3.org/2000/svg">
  <g transform="matrix(1 0 0 1 -98 -979 )">
    <path d="M 15 7.5  C 15 3.35723683593756  11.6427631640624 0  7.5 0  C 3.35723683593756 0  0 3.35723683593756  0 7.5  C 0 11.6427631640624  3.35723683593756 15  7.5 15  C 11.6427631640624 15  15 11.6427631640624  15 7.5  Z M 14.2105263134765 7.5  C 14.2105263134765 11.2006578955078  11.2006578955078 14.2105263134765  7.5 14.2105263134765  C 3.79934210449221 14.2105263134765  0.789473686523479 11.2006578955078  0.789473686523479 7.5  C 0.789473686523479 3.79934210449221  3.79934210449221 0.789473686523479  7.5 0.789473686523479  C 11.2006578955078 0.789473686523479  14.2105263134765 3.79934210449221  14.2105263134765 7.5  Z M 10.5414473730468 9.98486841796876  L 8.05855262695309 7.5  L 10.5414473730468 5.01513158203124  C 10.6973684179687 4.86118420898435  10.6973684179687 4.61249999999995  10.5414473730468 4.45855262695318  C 10.3875 4.30263158203127  10.1388157910156 4.30263158203127  9.98486841796876 4.45855262695318  L 7.5 6.94144737304691  L 5.01513158203124 4.45855262695318  C 4.86118420898435 4.30263158203127  4.61249999999995 4.30263158203127  4.45855262695318 4.45855262695318  C 4.30263158203127 4.61249999999995  4.30263158203127 4.86118420898435  4.45855262695318 5.01513158203124  L 6.94144737304691 7.5  L 4.45855262695318 9.98486841796876  C 4.30263158203127 10.1388157910156  4.30263158203127 10.3875  4.45855262695318 10.5414473730468  C 4.53552631347657 10.6184210595703  4.63618420898433 10.6578947314454  4.73684210449221 10.6578947314454  C 4.83749999999998 10.6578947314454  4.93815789550786 10.6184210595703  5.01513158203124 10.5414473730468  L 7.5 8.05855262695309  L 9.98486841796876 10.5414473730468  C 10.0618421044921 10.6184210595703  10.1625 10.6578947314454  10.2631578955078 10.6578947314454  C 10.3638157910157 10.6578947314454  10.4644736865234 10.6184210595703  10.5414473730468 10.5414473730468  C 10.6973684179687 10.3875  10.6973684179687 10.1388157910156  10.5414473730468 9.98486841796876  Z " fill-rule="nonzero" fill="#ff3399" stroke="none" transform="matrix(1 0 0 1 98 979 )" />
  </g>
</svg>