<?xml version="1.0" encoding="utf-8"?>
<svg version="1.1" xmlns:xlink="http://www.w3.org/1999/xlink" width="10px" height="19px" xmlns="http://www.w3.org/2000/svg">
  <g transform="matrix(1 0 0 1 -882 -318 )">
    <path d="M 0.00680827123596828 0.572212014987166  C 0.00680827123596828 0.256609356940725  0.260324353362535 0.000595941254570418  0.573438529009877 0  C 0.723952893222759 -1.21184835703306E-05  0.86825097532369 0.0605084678235709  0.974327766272836 0.168138422858744  L 9.83155856941733 9.09574636380562  C 9.93934711159466 9.20322868093466  10 9.34970557021314  10 9.502532873501  C 10 9.65536017678898  9.93934711159466 9.80183706606746  9.83155856941733 9.9093193831965  L 0.974327766272836 18.8315035106937  C 0.867291754980556 18.9393900009093  0.722119770117729 19  0.570747991285884 19  C 0.255532579702162 19  0 18.7424370281839  0 18.4247170009983  C 0 18.2721424633387  0.0601322050067665 18.1258169815183  0.167168216299046 18.0179304913028  L 8.61543818741734 9.49168524660184  L 0.172549273338518 0.97628762880007  C 0.0664118668875062 0.869021085329388  0.00680827123596828 0.723707860521922  0.00680827123596828 0.572212014987166  Z " fill-rule="nonzero" fill="#aeaeae" stroke="none" transform="matrix(1 0 0 1 882 318 )" />
  </g>
</svg>