<?xml version="1.0" encoding="utf-8"?>
<svg version="1.1" xmlns:xlink="http://www.w3.org/1999/xlink" width="12px" height="12px" viewBox="694 372  12 12" xmlns="http://www.w3.org/2000/svg">
  <path d="M 700 372  C 703.36 372  706 374.64  706 378  C 706 381.36  703.36 384  700 384  C 696.64 384  694 381.36  694 378  C 694 374.64  696.64 372  700 372  Z " fill-rule="nonzero" fill="#ffffff" stroke="none" />
  <path d="M 700 372.5  C 703.08 372.5  705.5 374.92  705.5 378  C 705.5 381.08  703.08 383.5  700 383.5  C 696.92 383.5  694.5 381.08  694.5 378  C 694.5 374.92  696.92 372.5  700 372.5  Z " stroke-width="1" stroke="#797979" fill="none" />
  <path d="M 700 381  C 698.32 381  697 379.68  697 378  C 697 376.32  698.32 375  700 375  C 701.68 375  703 376.32  703 378  C 703 379.68  701.68 381  700 381  " fill-rule="nonzero" fill="#797979" stroke="none" />
</svg>