<?xml version="1.0" encoding="utf-8"?>
<svg version="1.1" xmlns:xlink="http://www.w3.org/1999/xlink" width="12px" height="12px" viewBox="794 372  12 12" xmlns="http://www.w3.org/2000/svg">
  <path d="M 800 372  C 803.36 372  806 374.64  806 378  C 806 381.36  803.36 384  800 384  C 796.64 384  794 381.36  794 378  C 794 374.64  796.64 372  800 372  Z " fill-rule="nonzero" fill="#ffffff" stroke="none" />
  <path d="M 800 372.5  C 803.08 372.5  805.5 374.92  805.5 378  C 805.5 381.08  803.08 383.5  800 383.5  C 796.92 383.5  794.5 381.08  794.5 378  C 794.5 374.92  796.92 372.5  800 372.5  Z " stroke-width="1" stroke="#797979" fill="none" />
  <path d="M 800 381  C 798.32 381  797 379.68  797 378  C 797 376.32  798.32 375  800 375  C 801.68 375  803 376.32  803 378  C 803 379.68  801.68 381  800 381  " fill-rule="nonzero" fill="#797979" stroke="none" />
</svg>