<?xml version="1.0" encoding="utf-8"?>
<svg version="1.1" xmlns:xlink="http://www.w3.org/1999/xlink" width="8px" height="5px" xmlns="http://www.w3.org/2000/svg">
  <defs>
    <mask fill="white" id="clip70">
      <path d="M 3.61585790094338 4.63558490566038  C 3.80686910377361 4.83984905660373  4.11760613207545 4.83984905660373  4.30913030660378 4.63558490566038  L 7.77501474056604 0.93500943396225  C 7.96655660377357 0.730716981132105  7.96655660377357 0.399311320754691  7.77501474056604 0.194990566037745  C 7.58349941037736 -0.00983018867930241  7.27326650943397 -0.00983018867930241  7.08174233490567 0.194990566037745  L 3.96245872641509 3.52505660377358  L 0.842706367924535 0.194990566037745  C 0.651199882075474 -0.00983018867930241  0.340958136792466 -0.00983018867930241  0.149460495283023 0.194990566037745  C -0.0420902122641564 0.399311320754691  -0.0420902122641564 0.7307075471698  0.149460495283023 0.93500943396225  L 3.61585790094338 4.63558490566038  Z " fill-rule="evenodd" />
    </mask>
  </defs>
  <g transform="matrix(1 0 0 1 -890 -245 )">
    <path d="M 3.61585790094338 4.63558490566038  C 3.80686910377361 4.83984905660373  4.11760613207545 4.83984905660373  4.30913030660378 4.63558490566038  L 7.77501474056604 0.93500943396225  C 7.96655660377357 0.730716981132105  7.96655660377357 0.399311320754691  7.77501474056604 0.194990566037745  C 7.58349941037736 -0.00983018867930241  7.27326650943397 -0.00983018867930241  7.08174233490567 0.194990566037745  L 3.96245872641509 3.52505660377358  L 0.842706367924535 0.194990566037745  C 0.651199882075474 -0.00983018867930241  0.340958136792466 -0.00983018867930241  0.149460495283023 0.194990566037745  C -0.0420902122641564 0.399311320754691  -0.0420902122641564 0.7307075471698  0.149460495283023 0.93500943396225  L 3.61585790094338 4.63558490566038  Z " fill-rule="nonzero" fill="#c0c4cc" stroke="none" transform="matrix(1 0 0 1 890 245 )" />
    <path d="M 3.61585790094338 4.63558490566038  C 3.80686910377361 4.83984905660373  4.11760613207545 4.83984905660373  4.30913030660378 4.63558490566038  L 7.77501474056604 0.93500943396225  C 7.96655660377357 0.730716981132105  7.96655660377357 0.399311320754691  7.77501474056604 0.194990566037745  C 7.58349941037736 -0.00983018867930241  7.27326650943397 -0.00983018867930241  7.08174233490567 0.194990566037745  L 3.96245872641509 3.52505660377358  L 0.842706367924535 0.194990566037745  C 0.651199882075474 -0.00983018867930241  0.340958136792466 -0.00983018867930241  0.149460495283023 0.194990566037745  C -0.0420902122641564 0.399311320754691  -0.0420902122641564 0.7307075471698  0.149460495283023 0.93500943396225  L 3.61585790094338 4.63558490566038  Z " stroke-width="2" stroke="#d7d7d7" fill="none" transform="matrix(1 0 0 1 890 245 )" mask="url(#clip70)" />
  </g>
</svg>