<?xml version="1.0" encoding="utf-8"?>
<svg version="1.1" xmlns:xlink="http://www.w3.org/1999/xlink" width="5px" height="8px" xmlns="http://www.w3.org/2000/svg">
  <defs>
    <mask fill="white" id="clip69">
      <path d="M 0.154096310526299 3.65532569238521  C -0.0411297204331476 3.84866063240609  -0.0411297204331476 4.1619673423924  0.154096310526299 4.35530228241332  L 3.69375672631577 7.85494311540279  C 3.88932271430333 8.04835229486574  4.20626962253876 8.04835229486574  4.40183561052629 7.85494311540276  C 4.49589072991679 7.7622547704602  4.54876334681906 7.63630988415446  4.54876334681906 7.50495482038869  C 4.54876334681906 7.37359975662301  4.49589072991679 7.24765487031724  4.40183561052629 7.15496652537465  L 1.21645931052633 4.00543505378731  L 4.40183561052629 0.855177207309165  C 4.49589072991679 0.762488862366578  4.54876334681906 0.636543976060862  4.54876334681906 0.505188912295123  C 4.54876334681906 0.373833848529385  4.49589072991679 0.247888962223668  4.40183561052629 0.155200617281081  C 4.20626962253876 -0.0382085621818645  3.88932271430336 -0.0382085621818645  3.69375672631577 0.155200617281081  L 0.154096310526299 3.65532569238521  Z " fill-rule="evenodd" />
    </mask>
  </defs>
  <g transform="matrix(1 0 0 1 -935 -243 )">
    <path d="M 0.154096310526299 3.65532569238521  C -0.0411297204331476 3.84866063240609  -0.0411297204331476 4.1619673423924  0.154096310526299 4.35530228241332  L 3.69375672631577 7.85494311540279  C 3.88932271430333 8.04835229486574  4.20626962253876 8.04835229486574  4.40183561052629 7.85494311540276  C 4.49589072991679 7.7622547704602  4.54876334681906 7.63630988415446  4.54876334681906 7.50495482038869  C 4.54876334681906 7.37359975662301  4.49589072991679 7.24765487031724  4.40183561052629 7.15496652537465  L 1.21645931052633 4.00543505378731  L 4.40183561052629 0.855177207309165  C 4.49589072991679 0.762488862366578  4.54876334681906 0.636543976060862  4.54876334681906 0.505188912295123  C 4.54876334681906 0.373833848529385  4.49589072991679 0.247888962223668  4.40183561052629 0.155200617281081  C 4.20626962253876 -0.0382085621818645  3.88932271430336 -0.0382085621818645  3.69375672631577 0.155200617281081  L 0.154096310526299 3.65532569238521  Z " fill-rule="nonzero" fill="#c0c4cc" stroke="none" transform="matrix(1 0 0 1 935 243 )" />
    <path d="M 0.154096310526299 3.65532569238521  C -0.0411297204331476 3.84866063240609  -0.0411297204331476 4.1619673423924  0.154096310526299 4.35530228241332  L 3.69375672631577 7.85494311540279  C 3.88932271430333 8.04835229486574  4.20626962253876 8.04835229486574  4.40183561052629 7.85494311540276  C 4.49589072991679 7.7622547704602  4.54876334681906 7.63630988415446  4.54876334681906 7.50495482038869  C 4.54876334681906 7.37359975662301  4.49589072991679 7.24765487031724  4.40183561052629 7.15496652537465  L 1.21645931052633 4.00543505378731  L 4.40183561052629 0.855177207309165  C 4.49589072991679 0.762488862366578  4.54876334681906 0.636543976060862  4.54876334681906 0.505188912295123  C 4.54876334681906 0.373833848529385  4.49589072991679 0.247888962223668  4.40183561052629 0.155200617281081  C 4.20626962253876 -0.0382085621818645  3.88932271430336 -0.0382085621818645  3.69375672631577 0.155200617281081  L 0.154096310526299 3.65532569238521  Z " stroke-width="2" stroke="#d7d7d7" fill="none" transform="matrix(1 0 0 1 935 243 )" mask="url(#clip69)" />
  </g>
</svg>