<?xml version="1.0" encoding="utf-8"?>
<svg version="1.1" xmlns:xlink="http://www.w3.org/1999/xlink" width="151px" height="10px" preserveAspectRatio="xMinYMid meet" viewBox="340 786  151 8" xmlns="http://www.w3.org/2000/svg">
  <path d="M 342 790  L 481 790  A 5 5 0 0 0 486 785 L 486 65  A 5 5 0 0 1 491 60 L 514 60  " stroke-width="2" stroke-dasharray="2,2" stroke="#ff3399" fill="none" />
  <path d="M 343.5 786.5  A 3.5 3.5 0 0 0 340 790 A 3.5 3.5 0 0 0 343.5 793.5 A 3.5 3.5 0 0 0 347 790 A 3.5 3.5 0 0 0 343.5 786.5 Z M 513 67.6  L 520 60  L 513 52.4  L 513 67.6  Z " fill-rule="nonzero" fill="#ff3399" stroke="none" />
</svg>