<?xml version="1.0" encoding="utf-8"?>
<svg version="1.1" xmlns:xlink="http://www.w3.org/1999/xlink" width="10px" height="6px" xmlns="http://www.w3.org/2000/svg">
  <g transform="matrix(1 0 0 1 -284 -190 )">
    <path d="M 9.69883578158556 0.163147905457066  C 9.86494244371534 0.163147905457066  9.99968634670807 0.297637617547707  9.99999999904202 0.463743984374986  C 10.0000063781492 0.543591516487027  9.9681534379875 0.620141324902335  9.91150609323211 0.676414824218767  L 5.21276507168122 5.37515586914066  C 5.15619543108696 5.43233744863846  5.07910233146671 5.46451366969185  4.99866690868359 5.46451366969185  C 4.91823148590052 5.46451366969185  4.84113838628028 5.43233744863846  4.78456874568602 5.37515586914066  L 0.0886823627927806 0.67641482421871  C 0.0318999995214424 0.619632460665031  0 0.542619048797576  0 0.462316660156233  C 0 0.295095592384712  0.135559458850593 0.15953613285987  0.302780525790352 0.15953613285987  C 0.383082914032227 0.15953613285987  0.460096325516699 0.191436132540019  0.51687868878798 0.248218496093756  L 5.00437618599895 4.73000673828125  L 9.48616440589462 0.251073134765619  C 9.54262048140555 0.194767479061625  9.61910112604102 0.163147905457066  9.69883578158556 0.163147905457066  Z " fill-rule="nonzero" fill="#000000" stroke="none" transform="matrix(1 0 0 1 284 190 )" />
  </g>
</svg>