<?xml version="1.0" encoding="utf-8"?>
<svg version="1.1" xmlns:xlink="http://www.w3.org/1999/xlink" width="12px" height="21px" xmlns="http://www.w3.org/2000/svg">
  <g transform="matrix(1 0 0 1 -76 -180 )">
    <path d="M 0.385240776315754 9.23450701234162  C -0.102824301082876 9.72293212397335  -0.102824301082876 10.5144438123598  0.385240776315754 11.0028689239915  L 9.23439181578942 19.8440668178598  C 9.72330678575838 20.332679481766  10.5156740563469 20.332679481766  11.0045890263157 19.8440668178598  C 11.239726824792 19.6099067885311  11.3719083670476 19.2917302336535  11.3719083670476 18.9598858620347  C 11.3719083670476 18.628041490416  11.239726824792 18.3098649355384  11.0045890263157 18.0757049062098  L 3.04114827631582 10.1189938200943  L 11.0045890263157 2.1604476816232  C 11.239726824792 1.92628765229455  11.3719083670476 1.60811109741695  11.3719083670476 1.27626672579819  C 11.3719083670476 0.944422354179494  11.239726824792 0.62624579930187  11.0045890263157 0.392085769973221  C 10.5156740563469 -0.0965268939331168  9.72330678575838 -0.0965268939331168  9.23439181578942 0.392085769973221  L 0.385240776315754 9.23450701234162  Z " fill-rule="nonzero" fill="#00d8a0" stroke="none" transform="matrix(1 0 0 1 76 180 )" />
  </g>
</svg>