<?xml version="1.0" encoding="utf-8"?>
<svg version="1.1" xmlns:xlink="http://www.w3.org/1999/xlink" width="20px" height="20px" xmlns="http://www.w3.org/2000/svg">
  <defs>
    <mask fill="white" id="clip113">
      <path d="M 0 10  C 0 7.95469471408856  0.586938913754466 6.06946367738288  1.60491164219727 4.5002119889491  C 3.37412541278087 1.77288775017934  6.44530528591145 0  10 0  C 15.6 0  20 4.40000000000001  20 10  C 20 15.6  15.6 20  10 20  C 4.40000000000001 20  0 15.6  0 10  Z " fill-rule="evenodd" />
    </mask>
  </defs>
  <g transform="matrix(1 0 0 1 -93 -213 )">
    <path d="M 0 10  C 0 7.95469471408856  0.586938913754466 6.06946367738288  1.60491164219727 4.5002119889491  C 3.37412541278087 1.77288775017934  6.44530528591145 0  10 0  C 15.6 0  20 4.40000000000001  20 10  C 20 15.6  15.6 20  10 20  C 4.40000000000001 20  0 15.6  0 10  Z " fill-rule="nonzero" fill="#ffffff" stroke="none" transform="matrix(1 0 0 1 93 213 )" />
    <path d="M 0 10  C 0 7.95469471408856  0.586938913754466 6.06946367738288  1.60491164219727 4.5002119889491  C 3.37412541278087 1.77288775017934  6.44530528591145 0  10 0  C 15.6 0  20 4.40000000000001  20 10  C 20 15.6  15.6 20  10 20  C 4.40000000000001 20  0 15.6  0 10  Z " stroke-width="2" stroke="#999999" fill="none" transform="matrix(1 0 0 1 93 213 )" mask="url(#clip113)" />
  </g>
</svg>