<?xml version="1.0" encoding="utf-8"?>
<svg version="1.1" xmlns:xlink="http://www.w3.org/1999/xlink" width="70px" height="70px" xmlns="http://www.w3.org/2000/svg">
  <g transform="matrix(1 0 0 1 -215 -262 )">
    <path d="M 46.3248697916667 8.15755208333331  C 42.724609375 6.60807291666669  38.9496527777778 5.83333333333331  35 5.83333333333331  C 31.0503472222222 5.83333333333331  27.275390625 6.60807291666669  23.6751302083333 8.15755208333331  C 20.0748697916667 9.70703125  16.9759114583333 11.7805989583333  14.3782552083333 14.3782552083333  C 11.7805989583333 16.9759114583333  9.70703125 20.0748697916667  8.15755208333334 23.6751302083333  C 6.60807291666666 27.275390625  5.83333333333334 31.0503472222222  5.83333333333334 35  C 5.83333333333334 38.9496527777778  6.60807291666666 42.724609375  8.15755208333334 46.3248697916667  C 9.70703125 49.9251302083333  11.7805989583333 53.0240885416667  14.3782552083333 55.6217447916667  C 16.9759114583333 58.2194010416667  20.0748697916667 60.29296875  23.6751302083333 61.8424479166667  C 27.275390625 63.3919270833333  31.0503472222222 64.1666666666666  35 64.1666666666666  C 38.9496527777778 64.1666666666666  42.724609375 63.3919270833333  46.3248697916667 61.8424479166667  C 49.9251302083333 60.29296875  53.0240885416667 58.2194010416667  55.6217447916667 55.6217447916667  C 58.2194010416667 53.0240885416667  60.29296875 49.9251302083333  61.8424479166667 46.3248697916667  C 63.3919270833333 42.724609375  64.1666666666666 38.9496527777778  64.1666666666666 35  C 64.1666666666666 31.0503472222222  63.3919270833333 27.275390625  61.8424479166667 23.6751302083333  C 60.29296875 20.0748697916667  58.2194010416667 16.9759114583333  55.6217447916667 14.3782552083333  C 53.0240885416667 11.7805989583333  49.9251302083333 9.70703125  46.3248697916667 8.15755208333331  Z M 65.3059895833334 17.431640625  C 68.4353298611111 22.7940538194445  70 28.6501736111111  70 35  C 70 41.3498263888889  68.4353298611111 47.2059461805555  65.3059895833334 52.568359375  C 62.1766493055556 57.9307725694445  57.9307725694445 62.1766493055555  52.568359375 65.3059895833334  C 47.2059461805556 68.4353298611111  41.3498263888889 70  35 70  C 28.6501736111111 70  22.7940538194444 68.4353298611111  17.431640625 65.3059895833334  C 12.0692274305556 62.1766493055555  7.82335069444443 57.9307725694445  4.69401041666666 52.568359375  C 1.56467013888891 47.2059461805555  0 41.3498263888889  0 35  C 0 28.6501736111111  1.56467013888891 22.7940538194445  4.69401041666666 17.431640625  C 7.82335069444443 12.0692274305555  12.0692274305556 7.82335069444446  17.431640625 4.69401041666669  C 22.7940538194444 1.56467013888886  28.6501736111111 0  35 0  C 41.3498263888889 0  47.2059461805556 1.56467013888886  52.568359375 4.69401041666669  C 57.9307725694445 7.82335069444446  62.1766493055556 12.0692274305555  65.3059895833334 17.431640625  Z " fill-rule="nonzero" fill="#c9c9c9" stroke="none" transform="matrix(1 0 0 1 215 262 )" />
  </g>
</svg>