<?xml version="1.0" encoding="utf-8"?>
<svg version="1.1" xmlns:xlink="http://www.w3.org/1999/xlink" width="10px" height="901px" preserveAspectRatio="xMidYMin meet" viewBox="496 478  8 901" xmlns="http://www.w3.org/2000/svg">
  <path d="M 288 483  L 495 483  A 5 5 0 0 1 500 488 L 500 1369  A 5 5 0 0 0 505 1374 L 543 1374  " stroke-width="2" stroke-dasharray="2,2" stroke="#ff3399" fill="none" />
  <path d="M 289.5 479.5  A 3.5 3.5 0 0 0 286 483 A 3.5 3.5 0 0 0 289.5 486.5 A 3.5 3.5 0 0 0 293 483 A 3.5 3.5 0 0 0 289.5 479.5 Z M 542 1381.6  L 549 1374  L 542 1366.4  L 542 1381.6  Z " fill-rule="nonzero" fill="#ff3399" stroke="none" />
</svg>