<?xml version="1.0" encoding="utf-8"?>
<svg version="1.1" xmlns:xlink="http://www.w3.org/1999/xlink" width="25px" height="10px" preserveAspectRatio="xMinYMid meet" viewBox="19 1370  25 8" xmlns="http://www.w3.org/2000/svg">
  <path d="M 120 484  L 29 484  A 5 5 0 0 0 24 489 L 24 1369  A 5 5 0 0 0 29 1374 L 38 1374  " stroke-width="2" stroke-dasharray="2,2" stroke="#ff3399" fill="none" />
  <path d="M 118.5 480.5  A 3.5 3.5 0 0 0 115 484 A 3.5 3.5 0 0 0 118.5 487.5 A 3.5 3.5 0 0 0 122 484 A 3.5 3.5 0 0 0 118.5 480.5 Z M 37 1381.6  L 44 1374  L 37 1366.4  L 37 1381.6  Z " fill-rule="nonzero" fill="#ff3399" stroke="none" />
</svg>