<?xml version="1.0" encoding="utf-8"?>
<svg version="1.1" xmlns:xlink="http://www.w3.org/1999/xlink" width="10px" height="47px" preserveAspectRatio="xMidYMin meet" viewBox="1012 1368  8 47" xmlns="http://www.w3.org/2000/svg">
  <defs>
    <mask fill="white" id="clip116">
      <path d="M 771 1396  L 855 1396  L 855 1424  L 771 1424  Z M 621 1363  L 1060 1363  L 1060 1511  L 621 1511  Z " fill-rule="evenodd" />
    </mask>
  </defs>
  <path d="M 631 1499  L 631 1415  A 5 5 0 0 1 636 1410 L 1011 1410  A 5 5 0 0 0 1016 1405 L 1016 1378  A 5 5 0 0 1 1021 1373 L 1044 1373  " stroke-width="2" stroke-dasharray="2,2" stroke="#ff3399" fill="none" mask="url(#clip116)" />
  <path d="M 631 1494  A 3.5 3.5 0 0 0 627.5 1497.5 A 3.5 3.5 0 0 0 631 1501 A 3.5 3.5 0 0 0 634.5 1497.5 A 3.5 3.5 0 0 0 631 1494 Z M 1043 1380.6  L 1050 1373  L 1043 1365.4  L 1043 1380.6  Z " fill-rule="nonzero" fill="#ff3399" stroke="none" mask="url(#clip116)" />
</svg>