<?xml version="1.0" encoding="utf-8"?>
<svg version="1.1" xmlns:xlink="http://www.w3.org/1999/xlink" width="120px" height="120px" xmlns="http://www.w3.org/2000/svg">
  <g transform="matrix(1 0 0 1 -697 -1486 )">
    <path d="M 697 1486  L 817 1486  L 817 1606  L 697 1606  L 697 1486  " fill-rule="nonzero" fill="#cccccc" stroke="none" />
    <path d="M 705 1494  L 809 1494  L 809 1598  L 705 1598  L 705 1494  " fill-rule="nonzero" fill="#ffffff" stroke="none" />
    <path d="M 768.4 1522  C 763.36 1522  759.4 1518.04  759.4 1513  C 759.4 1507.96  763.36 1504  768.4 1504  C 773.44 1504  777.4 1507.96  777.4 1513  C 777.4 1518.04  773.44 1522  768.4 1522  " fill-rule="nonzero" fill="#cccccc" stroke="none" />
    <path d="M 708 1595  L 708 1541.1  L 732.5 1516.6  L 766.8 1536.2  L 786.4 1531.3  L 806 1536.2  L 806 1595  L 708 1595  " fill-rule="nonzero" fill="#169bd5" stroke="none" />
  </g>
</svg>