<?xml version="1.0" encoding="utf-8"?>
<svg version="1.1" xmlns:xlink="http://www.w3.org/1999/xlink" width="10px" height="490px" preserveAspectRatio="xMidYMin meet" viewBox="871.833333333333 1276  8 490" xmlns="http://www.w3.org/2000/svg">
  <path d="M 810 1281.5  L 870.833333333333 1281.5  A 5 5 0 0 1 876.333333333333 1286.5 L 876.333333333333 1756  A 5 5 0 0 0 881.333333333333 1761.5 L 950 1761.5  " stroke-width="1" stroke-dasharray="3,1" stroke="#0099ff" fill="none" />
  <path d="M 812 1278.5  A 3 3 0 0 0 809 1281.5 A 3 3 0 0 0 812 1284.5 A 3 3 0 0 0 815 1281.5 A 3 3 0 0 0 812 1278.5 Z M 950 1769  L 961 1761.5  L 950 1754  L 950 1769  Z " fill-rule="nonzero" fill="#0099ff" stroke="none" />
</svg>