<svg t="1570708484911" class="icon" viewBox="0 0 1024 1024" version="1.1" xmlns="http://www.w3.org/2000/svg" p-id="2869" width="200" height="200"><path d="M98.6 136.1v248.7c0 17.5 14.2 31.8 31.8 31.8 17.5 0 31.8-14.2 31.8-31.8V205.3l202.1 202.2c11.9 11.9 31.2 11.9 43.1 0 11.9-11.9 11.9-31.2 0-43.1L205.2 162.3h179.5c17.5 0 31.8-14.2 31.8-31.8 0-17.5-14.2-31.8-31.8-31.8H136c-23.2 0-37.4 11.9-37.4 37.4z m791.1-37.4H641c-17.5 0-31.8 14.2-31.8 31.8 0 17.5 14.2 31.8 31.8 31.8h179.5L618.3 364.4c-11.9 11.9-11.9 31.2 0 43.1 12 11.9 31.2 11.9 43.1 0l202.1-202.2v179.5c0 17.5 14.2 31.8 31.8 31.8 17.5 0 31.8-14.2 31.8-31.8V136.1c0-25.5-14.1-37.4-37.4-37.4zM136 925.2h248.7c17.5 0 31.8-14.2 31.8-31.8 0-17.5-14.2-31.8-31.8-31.8H205.2l202.2-202.1c11.9-11.9 11.9-31.2 0-43.1-11.9-11.9-31.2-11.9-43.1 0L162.2 818.6V639.1c0-17.5-14.2-31.8-31.8-31.8-17.5 0-31.8 14.2-31.8 31.8v248.7c0 25.5 14.2 37.4 37.4 37.4z m791.1-37.3V639.1c0-17.5-14.2-31.8-31.8-31.8-17.5 0-31.8 14.2-31.8 31.8v179.5L661.4 616.4c-11.9-11.9-31.2-11.9-43.1 0-11.9 12-11.9 31.2 0 43.1l202.2 202.1H641c-17.5 0-31.8 14.2-31.8 31.8s14.2 31.8 31.8 31.8h248.7c23.3 0 37.4-11.9 37.4-37.3z m0 0" fill="#617FA5" p-id="2870"></path></svg>