<?xml version="1.0" encoding="utf-8"?>
<svg version="1.1" xmlns:xlink="http://www.w3.org/1999/xlink" width="10px" height="56.333333333333px" preserveAspectRatio="xMidYMin meet" viewBox="1927 1382  8 56.333333333333" xmlns="http://www.w3.org/2000/svg">
  <path d="M 1633.5 1365  L 1633.5 1428.33333333333  A 5 5 0 0 0 1638.5 1433.83333333333 L 1926 1433.83333333333  A 5 5 0 0 0 1931.5 1428.83333333333 L 1931.5 1393  " stroke-width="1" stroke-dasharray="3,1" stroke="#0099ff" fill="none" />
  <path d="M 1633.5 1364  A 3 3 0 0 0 1630.5 1367 A 3 3 0 0 0 1633.5 1370 A 3 3 0 0 0 1636.5 1367 A 3 3 0 0 0 1633.5 1364 Z M 1939 1393  L 1931.5 1382  L 1924 1393  L 1939 1393  Z " fill-rule="nonzero" fill="#0099ff" stroke="none" />
</svg>