<?xml version="1.0" encoding="utf-8"?>
<svg version="1.1" xmlns:xlink="http://www.w3.org/1999/xlink" width="25px" height="25px" xmlns="http://www.w3.org/2000/svg">
  <g transform="matrix(1 0 0 1 -773 -632 )">
    <path d="M 785.5 632  C 792.5 632  798 637.5  798 644.5  C 798 651.5  792.5 657  785.5 657  C 778.5 657  773 651.5  773 644.5  C 773 637.5  778.5 632  785.5 632  Z " fill-rule="nonzero" fill="#ffffff" stroke="none" />
    <path d="M 785.5 632.5  C 792.22 632.5  797.5 637.78  797.5 644.5  C 797.5 651.22  792.22 656.5  785.5 656.5  C 778.78 656.5  773.5 651.22  773.5 644.5  C 773.5 637.78  778.78 632.5  785.5 632.5  Z " stroke-width="1" stroke="#797979" fill="none" />
  </g>
</svg>