<?xml version="1.0" encoding="utf-8"?>
<svg version="1.1" xmlns:xlink="http://www.w3.org/1999/xlink" width="16px" height="16px" xmlns="http://www.w3.org/2000/svg">
  <g transform="matrix(1 0 0 1 -542 -847 )">
    <path d="M 550 847  C 554.48 847  558 850.52  558 855  C 558 859.48  554.48 863  550 863  C 545.52 863  542 859.48  542 855  C 542 850.52  545.52 847  550 847  Z " fill-rule="nonzero" fill="#ff0000" stroke="none" />
    <path d="M 550 847.5  C 554.2 847.5  557.5 850.8  557.5 855  C 557.5 859.2  554.2 862.5  550 862.5  C 545.8 862.5  542.5 859.2  542.5 855  C 542.5 850.8  545.8 847.5  550 847.5  Z " stroke-width="1" stroke="#797979" fill="none" />
  </g>
</svg>