<?xml version="1.0" encoding="utf-8"?>
<svg version="1.1" xmlns:xlink="http://www.w3.org/1999/xlink" width="25px" height="25px" xmlns="http://www.w3.org/2000/svg">
  <g transform="matrix(1 0 0 1 -115 -828 )">
    <path d="M 127.5 828  C 134.5 828  140 833.5  140 840.5  C 140 847.5  134.5 853  127.5 853  C 120.5 853  115 847.5  115 840.5  C 115 833.5  120.5 828  127.5 828  Z " fill-rule="nonzero" fill="#ffffff" stroke="none" />
    <path d="M 127.5 828.5  C 134.22 828.5  139.5 833.78  139.5 840.5  C 139.5 847.22  134.22 852.5  127.5 852.5  C 120.78 852.5  115.5 847.22  115.5 840.5  C 115.5 833.78  120.78 828.5  127.5 828.5  Z " stroke-width="1" stroke="#ced1d4" fill="none" />
  </g>
</svg>