<?xml version="1.0" encoding="utf-8"?>
<svg version="1.1" xmlns:xlink="http://www.w3.org/1999/xlink" width="37px" height="34px" xmlns="http://www.w3.org/2000/svg">
  <g transform="matrix(1 0 0 1 -246 -1193 )">
    <path d="M 36.5716886104061 8.76841406250003  C 36.9828690117386 8.321533203125  37.0718254282995 7.69877539062497  36.7991602553934 7.17150976562505  C 36.52615105009 6.64446155260339  35.9410538899347 6.30784374815619  35.297942774429 6.30783007812499  L 16.6010281170685 6.30783007812499  C 15.9202272366751 2.78577539062496  12.5333538229695 0.106083984375005  8.44627419098981 0.106083984375005  C 3.86877875158632 0.106083984375005  0.158911008883251 3.464015625  0.158911008883251 7.60653710937504  C 0.158911008883251 11.7497890625  3.86877875158632 15.108384765625  8.44623750793153 15.108384765625  C 10.3675860564721 15.108384765625  12.1303904267132 14.5114589843751  13.5361585897842 13.5181875  L 21.3267231123097 21.979505859375  L 21.2109146970178 21.979505859375  L 21.2109146970178 30.959822265625  L 16.2369854457487 30.959822265625  C 15.3224034343274 30.959822265625  14.5793147208121 31.631455078125  14.5793147208121 32.45990625  C 14.5793147208121 33.288556640625  15.3224034343274 33.960322265625  16.2369854457487 34  L 29.4969206059644 34  C 30.4129699397208 33.960322265625  31.1544445986675 33.288556640625  31.1544445986675 32.45990625  C 31.1544445986675 31.631455078125  30.4131533550127 30.959822265625  29.4969206059644 30.959822265625  L 24.5258893163071 30.959822265625  L 24.5258893163071 21.979505859375  L 24.4091638245559 21.979505859375  L 36.5716886104061 8.76841406250003  Z M 8.93511262690356 7.17150976562505  C 8.66226403870553 7.69894140625001  8.75074357550761 8.321533203125  9.16265763800766 8.76841406250003  L 11.4116592639593 11.211400390625  C 10.5829156091371 11.77190234375  9.55828442258883 12.107951171875  8.44627419098981 12.107951171875  C 5.70450904187817 12.107951171875  3.47388562817264 10.088470703125  3.47388562817264 7.60660351562501  C 3.47388562817264 5.12543359375002  5.70450904187817 3.10658398437499  8.44627419098981 3.10658398437499  C 10.6889663309011 3.10658398437499  12.5876080663071 4.45811718749997  13.2050206218274 6.30783007812499  L 10.4357064958756 6.30783007812499  C 9.79312936230963 6.30783007812499  9.2078511659264 6.64470898437503  8.93511262690356 7.17150976562505  Z M 31.7597150618655 9.30836328124997  L 26.925584946066 14.559072265625  L 18.8096050126903 14.559072265625  L 15.718947295368 11.20346484375  C 16.0750664260787 10.615072265625  16.3387442496827 9.9778046875  16.5111913071066 9.30836328124997  L 31.7597150618655 9.30836328124997  Z " fill-rule="nonzero" fill="#cccccc" stroke="none" transform="matrix(1 0 0 1 246 1193 )" />
  </g>
</svg>