<svg t="1570709072007" class="icon" viewBox="0 0 1024 1024" version="1.1" xmlns="http://www.w3.org/2000/svg" p-id="9169" width="200" height="200"><path d="M301.176471 457.788235c-6.023529 0-6.023529 6.023529-6.02353 6.02353v240.941176c0 6.023529 6.023529 6.023529 6.02353 6.02353h108.423529V457.788235H301.176471z m102.4-66.258823h54.211764v-42.164706c0-24.094118-18.070588-42.164706-48.188235-42.164706h-6.023529c-24.094118 0-48.188235 18.070588-48.188236 42.164706 0 24.094118 24.094118 42.164706 48.188236 42.164706z m60.235294 66.258823h102.4v252.988236H463.811765V457.788235z m204.8-108.423529c0-24.094118-18.070588-42.164706-48.188236-42.164706h-6.023529c-24.094118 0-48.188235 18.070588-48.188235 42.164706v42.164706h54.211764c24.094118 0 48.188235-18.070588 48.188236-42.164706z" fill="#FF0202" p-id="9170"></path><path d="M512 0C228.894118 0 0 228.894118 0 512S228.894118 1024 512 1024 1024 795.105882 1024 512 795.105882 0 512 0zM783.058824 734.870588c0 18.070588-18.070588 36.141176-36.141177 36.141177H271.058824c-18.070588 0-36.141176-18.070588-36.141177-36.141177V445.741176c0-18.070588 18.070588-36.141176 36.141177-36.141176h54.211764c-12.047059-18.070588-24.094118-36.141176-24.094117-60.235294 0-48.188235 42.164706-96.376471 96.37647-96.376471h18.070588c54.211765 0 96.376471 42.164706 96.376471 96.376471 0-48.188235 42.164706-96.376471 96.376471-96.376471h18.070588c48.188235 0 96.376471 42.164706 96.37647 96.376471 0 24.094118-6.023529 42.164706-24.094117 60.235294h54.211764c18.070588 0 36.141176 18.070588 36.141177 36.141176v289.129412z" fill="#FF0202" p-id="9171"></path><path d="M722.823529 457.788235h-108.423529v252.988236H722.823529c6.023529 0 6.023529-6.023529 6.02353-6.02353v-240.941176c6.023529 0 0-6.023529-6.02353-6.02353z" fill="#FF0202" p-id="9172"></path></svg>