<?xml version="1.0" encoding="utf-8"?>
<svg version="1.1" xmlns:xlink="http://www.w3.org/1999/xlink" width="40px" height="40px" xmlns="http://www.w3.org/2000/svg">
  <defs>
    <mask fill="white" id="clip7">
      <path d="M 0 15  C 0 6.59999999999999  6.59999999999991 0  15 0  C 22.4127101646504 0  28.4236786970275 5.13971931833524  29.7342692651423 12.1205216230167  C 29.9088252261154 13.0502861767239  30 14.0127101646504  30 15  C 30 23.4  23.4000000000001 30  15 30  C 6.59999999999991 30  0 23.4  0 15  Z " fill-rule="evenodd" />
    </mask>
    <filter x="1479px" y="1096px" width="40px" height="40px" filterUnits="userSpaceOnUse" id="filter8">
      <feOffset dx="0" dy="0" in="SourceAlpha" result="shadowOffsetInner" />
      <feGaussianBlur stdDeviation="2.5" in="shadowOffsetInner" result="shadowGaussian" />
      <feComposite in2="shadowGaussian" operator="atop" in="SourceAlpha" result="shadowComposite" />
      <feColorMatrix type="matrix" values="0 0 0 0 0  0 0 0 0 0  0 0 0 0 0  0 0 0 0.349019607843137 0  " in="shadowComposite" />
    </filter>
    <g id="widget9">
      <path d="M 0 15  C 0 6.59999999999999  6.59999999999991 0  15 0  C 22.4127101646504 0  28.4236786970275 5.13971931833524  29.7342692651423 12.1205216230167  C 29.9088252261154 13.0502861767239  30 14.0127101646504  30 15  C 30 23.4  23.4000000000001 30  15 30  C 6.59999999999991 30  0 23.4  0 15  Z " fill-rule="nonzero" fill="#ff3399" stroke="none" transform="matrix(1 0 0 1 1484 1101 )" />
      <path d="M 0 15  C 0 6.59999999999999  6.59999999999991 0  15 0  C 22.4127101646504 0  28.4236786970275 5.13971931833524  29.7342692651423 12.1205216230167  C 29.9088252261154 13.0502861767239  30 14.0127101646504  30 15  C 30 23.4  23.4000000000001 30  15 30  C 6.59999999999991 30  0 23.4  0 15  Z " stroke-width="2" stroke="#ffffff" fill="none" transform="matrix(1 0 0 1 1484 1101 )" mask="url(#clip7)" />
    </g>
  </defs>
  <g transform="matrix(1 0 0 1 -1479 -1096 )">
    <use xlink:href="#widget9" filter="url(#filter8)" />
    <use xlink:href="#widget9" />
  </g>
</svg>