<?xml version="1.0" encoding="utf-8"?>
<svg version="1.1" xmlns:xlink="http://www.w3.org/1999/xlink" width="15px" height="15px" xmlns="http://www.w3.org/2000/svg">
  <g transform="matrix(1 0 0 1 -94 -226 )">
    <path d="M 13.5959016281017 14.7098301283522  C 13.9151290401296 15.0189625500446  14.416524682971 15.0023948380013  14.7159161699879 14.6728905610098  C 15.0153882035024 14.3433654905294  14.9993382324605 13.8257957946931  14.6801309641249 13.5166633730007  L 11.4664703634168 10.4050088293878  C 13.3207361329326 7.77579295167664  13.030789365942 4.07119286950856  10.6736981472332 1.78896364628048  C 8.12056359519102 -0.68299400796181  4.10988166076527 -0.55055620610031  1.71535391990557 2.08468807613298  C -0.679334928085211 4.71982842010567  -0.551035793395897 8.85982482525117  2.00191750782278 11.3319903560146  C 4.35884763353647 13.6143235175032  7.95883540225628 13.6762705748934  10.3822410273935 11.5981755993313  L 13.5959016281017 14.7098301283522  Z M 2.49529823698947 2.83986006658449  C 4.4858981985617 0.649449680961084  7.81998396958716 0.539420898040703  9.94172252072354 2.59406747205571  C 12.0640047960584 4.64894270148892  12.1705951653766 8.09051726054372  10.1799146573068 10.2807613420318  C 8.18971745649429 12.4713380317905  4.85553099527885 12.5814499594827  2.73340982707509 10.5266370959242  C 0.611449766002465 8.47215684063639  0.504859396684196 5.03051991570689  2.49529823698947 2.83986006658449  Z M 4.1178160420784 8.06484456854656  C 3.71592219614621 7.64998640500374  3.49426333786232 7.09807556915575  3.49426333786232 6.5109713374984  C 3.49426333786232 5.92349292518449  3.71586176506918 5.37164445521125  4.1178160420784 4.95628737926251  C 4.27672490969479 4.7921900532676  4.27672490969479 4.52656607363969  4.1178160420784 4.36263505178007  C 3.95892730401846 4.19868323643163  3.70160408788979 4.19868323643163  3.54271533569391 4.36263505178007  C 2.98670544974198 4.93655994701575  2.68078925820708 5.69921547763749  2.68078925820708 6.5109713374984  C 2.68078925820708 7.32235301670283  2.98670544974198 8.08540350687804  3.54271533569391 8.65851768951791  C 3.61891014726598 8.73737033518205  3.72241329868706 8.78161537034782  3.83030596920287 8.78145556646405  C 3.93817205502569 8.78160013194486  4.04164472269775 8.73735573397187  4.1178160420784 8.65851768951791  C 4.27680547032827 8.49448272939776  4.27680547032827 8.22840142434154  4.1178160420784 8.06484456854656  Z " fill-rule="nonzero" fill="#666666" stroke="none" transform="matrix(1 0 0 1 94 226 )" />
  </g>
</svg>