<?xml version="1.0" encoding="utf-8"?>
<svg version="1.1" xmlns:xlink="http://www.w3.org/1999/xlink" width="86px" height="86px" xmlns="http://www.w3.org/2000/svg">
  <g transform="matrix(1 0 0 1 -40 -34 )">
    <path d="M 40 34  L 126 34  L 126 120  L 40 120  L 40 34  " fill-rule="nonzero" fill="#cccccc" stroke="none" />
    <path d="M 46 40  L 120 40  L 120 114  L 46 114  L 46 40  " fill-rule="nonzero" fill="#ffffff" stroke="none" />
    <path d="M 91.17 59.8  C 87.558 59.8  84.72 56.962  84.72 53.35  C 84.72 49.738  87.558 46.9  91.17 46.9  C 94.782 46.9  97.62 49.738  97.62 53.35  C 97.62 56.962  94.782 59.8  91.17 59.8  " fill-rule="nonzero" fill="#cccccc" stroke="none" />
    <path d="M 48 112  L 48 73.5  L 65.5 56  L 90 70  L 104 66.5  L 118 70  L 118 112  L 48 112  " fill-rule="nonzero" fill="#169bd5" stroke="none" />
  </g>
</svg>