<?xml version="1.0" encoding="utf-8"?>
<svg version="1.1" xmlns:xlink="http://www.w3.org/1999/xlink" width="12px" height="12px" viewBox="652 363  12 12" xmlns="http://www.w3.org/2000/svg">
  <path d="M 658 363  C 661.36 363  664 365.64  664 369  C 664 372.36  661.36 375  658 375  C 654.64 375  652 372.36  652 369  C 652 365.64  654.64 363  658 363  Z " fill-rule="nonzero" fill="#ffffff" stroke="none" />
  <path d="M 658 363.5  C 661.08 363.5  663.5 365.92  663.5 369  C 663.5 372.08  661.08 374.5  658 374.5  C 654.92 374.5  652.5 372.08  652.5 369  C 652.5 365.92  654.92 363.5  658 363.5  Z " stroke-width="1" stroke="#797979" fill="none" />
  <path d="M 658 372  C 656.32 372  655 370.68  655 369  C 655 367.32  656.32 366  658 366  C 659.68 366  661 367.32  661 369  C 661 370.68  659.68 372  658 372  " fill-rule="nonzero" fill="#797979" stroke="none" />
</svg>