<?xml version="1.0" encoding="utf-8"?>
<svg version="1.1" xmlns:xlink="http://www.w3.org/1999/xlink" width="12px" height="12px" viewBox="652 334  12 12" xmlns="http://www.w3.org/2000/svg">
  <path d="M 658 334  C 661.36 334  664 336.64  664 340  C 664 343.36  661.36 346  658 346  C 654.64 346  652 343.36  652 340  C 652 336.64  654.64 334  658 334  Z " fill-rule="nonzero" fill="#ffffff" stroke="none" />
  <path d="M 658 334.5  C 661.08 334.5  663.5 336.92  663.5 340  C 663.5 343.08  661.08 345.5  658 345.5  C 654.92 345.5  652.5 343.08  652.5 340  C 652.5 336.92  654.92 334.5  658 334.5  Z " stroke-width="1" stroke="#797979" fill="none" />
  <path d="M 658 343  C 656.32 343  655 341.68  655 340  C 655 338.32  656.32 337  658 337  C 659.68 337  661 338.32  661 340  C 661 341.68  659.68 343  658 343  " fill-rule="nonzero" fill="#797979" stroke="none" />
</svg>