<?xml version="1.0" encoding="utf-8"?>
<svg version="1.1" xmlns:xlink="http://www.w3.org/1999/xlink" width="12px" height="12px" viewBox="862 334  12 12" xmlns="http://www.w3.org/2000/svg">
  <path d="M 868 334  C 871.36 334  874 336.64  874 340  C 874 343.36  871.36 346  868 346  C 864.64 346  862 343.36  862 340  C 862 336.64  864.64 334  868 334  Z " fill-rule="nonzero" fill="#ffffff" stroke="none" />
  <path d="M 868 334.5  C 871.08 334.5  873.5 336.92  873.5 340  C 873.5 343.08  871.08 345.5  868 345.5  C 864.92 345.5  862.5 343.08  862.5 340  C 862.5 336.92  864.92 334.5  868 334.5  Z " stroke-width="1" stroke="#797979" fill="none" />
  <path d="M 868 343  C 866.32 343  865 341.68  865 340  C 865 338.32  866.32 337  868 337  C 869.68 337  871 338.32  871 340  C 871 341.68  869.68 343  868 343  " fill-rule="nonzero" fill="#797979" stroke="none" />
</svg>