<?xml version="1.0" encoding="utf-8"?>
<svg version="1.1" xmlns:xlink="http://www.w3.org/1999/xlink" width="997px" height="10px" preserveAspectRatio="xMinYMid meet" viewBox="1203 1849.28205128205  997 8" xmlns="http://www.w3.org/2000/svg">
  <path d="M 1208.5 1980  L 1208.5 1858.28205128205  A 5 5 0 0 1 1213.5 1853.78205128205 L 2190 1853.78205128205  A 5 5 0 0 1 2195.5 1858.78205128205 L 2195.5 1906  " stroke-width="1" stroke-dasharray="3,1" stroke="#0099ff" fill="none" />
  <path d="M 1208.5 1975  A 3 3 0 0 0 1205.5 1978 A 3 3 0 0 0 1208.5 1981 A 3 3 0 0 0 1211.5 1978 A 3 3 0 0 0 1208.5 1975 Z M 2188 1906  L 2195.5 1917  L 2203 1906  L 2188 1906  Z " fill-rule="nonzero" fill="#0099ff" stroke="none" />
</svg>