<?xml version="1.0" encoding="utf-8"?>
<svg version="1.1" xmlns:xlink="http://www.w3.org/1999/xlink" width="277px" height="10px" preserveAspectRatio="xMinYMid meet" viewBox="1483 914  277 8" xmlns="http://www.w3.org/2000/svg">
  <path d="M 1482 835.5  L 1483 835.5  A 5 5 0 0 1 1488.5 840.5 L 1488.5 913  A 5 5 0 0 0 1493.5 918.5 L 1749 918.5  " stroke-width="1" stroke-dasharray="3,1" stroke="#0099ff" fill="none" />
  <path d="M 1484.49334665398 832.599667110794  A 3 3 0 0 0 1481.49334665398 835.599667110794 A 3 3 0 0 0 1484.49334665398 838.599667110794 A 3 3 0 0 0 1487.49334665398 835.599667110794 A 3 3 0 0 0 1484.49334665398 832.599667110794 Z M 1749 926  L 1760 918.5  L 1749 911  L 1749 926  Z " fill-rule="nonzero" fill="#0099ff" stroke="none" />
</svg>