<?xml version="1.0" encoding="utf-8"?>
<svg version="1.1" xmlns:xlink="http://www.w3.org/1999/xlink" width="342px" height="10px" preserveAspectRatio="xMinYMid meet" viewBox="1410 755  342 8" xmlns="http://www.w3.org/2000/svg">
  <path d="M 1418.51038416298 831.375649686843  A 4 4 0 0 1 1415.5 827.5 L 1415.5 764  A 5 5 0 0 1 1420.5 759.5 L 1741 759.5  " stroke-width="1" stroke-dasharray="3,1" stroke="#0099ff" fill="none" />
  <path d="M 1416.77344495991 827.426755475495  A 3 3 0 0 0 1413.77344495991 830.426755475495 A 3 3 0 0 0 1416.77344495991 833.426755475495 A 3 3 0 0 0 1419.77344495991 830.426755475495 A 3 3 0 0 0 1416.77344495991 827.426755475495 Z M 1741 767  L 1752 759.5  L 1741 752  L 1741 767  Z " fill-rule="nonzero" fill="#0099ff" stroke="none" />
</svg>