<?xml version="1.0" encoding="utf-8"?>
<svg version="1.1" xmlns:xlink="http://www.w3.org/1999/xlink" width="12px" height="12px" viewBox="450 596  12 12" xmlns="http://www.w3.org/2000/svg">
  <path d="M 456 596  C 459.36 596  462 598.64  462 602  C 462 605.36  459.36 608  456 608  C 452.64 608  450 605.36  450 602  C 450 598.64  452.64 596  456 596  Z " fill-rule="nonzero" fill="#ffffff" stroke="none" />
  <path d="M 456 596.5  C 459.08 596.5  461.5 598.92  461.5 602  C 461.5 605.08  459.08 607.5  456 607.5  C 452.92 607.5  450.5 605.08  450.5 602  C 450.5 598.92  452.92 596.5  456 596.5  Z " stroke-width="1" stroke="#797979" fill="none" />
  <path d="M 456 605  C 454.32 605  453 603.68  453 602  C 453 600.32  454.32 599  456 599  C 457.68 599  459 600.32  459 602  C 459 603.68  457.68 605  456 605  " fill-rule="nonzero" fill="#797979" stroke="none" />
</svg>