<?xml version="1.0" encoding="utf-8"?>
<svg version="1.1" xmlns:xlink="http://www.w3.org/1999/xlink" width="12px" height="12px" viewBox="450 534  12 12" xmlns="http://www.w3.org/2000/svg">
  <path d="M 456 534  C 459.36 534  462 536.64  462 540  C 462 543.36  459.36 546  456 546  C 452.64 546  450 543.36  450 540  C 450 536.64  452.64 534  456 534  Z " fill-rule="nonzero" fill="#ffffff" stroke="none" />
  <path d="M 456 534.5  C 459.08 534.5  461.5 536.92  461.5 540  C 461.5 543.08  459.08 545.5  456 545.5  C 452.92 545.5  450.5 543.08  450.5 540  C 450.5 536.92  452.92 534.5  456 534.5  Z " stroke-width="1" stroke="#797979" fill="none" />
  <path d="M 456 543  C 454.32 543  453 541.68  453 540  C 453 538.32  454.32 537  456 537  C 457.68 537  459 538.32  459 540  C 459 541.68  457.68 543  456 543  " fill-rule="nonzero" fill="#797979" stroke="none" />
</svg>