<?xml version="1.0" encoding="utf-8"?>
<svg version="1.1" xmlns:xlink="http://www.w3.org/1999/xlink" width="12px" height="12px" viewBox="450 386  12 12" xmlns="http://www.w3.org/2000/svg">
  <path d="M 456 386  C 459.36 386  462 388.64  462 392  C 462 395.36  459.36 398  456 398  C 452.64 398  450 395.36  450 392  C 450 388.64  452.64 386  456 386  Z " fill-rule="nonzero" fill="#ffffff" stroke="none" />
  <path d="M 456 386.5  C 459.08 386.5  461.5 388.92  461.5 392  C 461.5 395.08  459.08 397.5  456 397.5  C 452.92 397.5  450.5 395.08  450.5 392  C 450.5 388.92  452.92 386.5  456 386.5  Z " stroke-width="1" stroke="#797979" fill="none" />
  <path d="M 456 395  C 454.32 395  453 393.68  453 392  C 453 390.32  454.32 389  456 389  C 457.68 389  459 390.32  459 392  C 459 393.68  457.68 395  456 395  " fill-rule="nonzero" fill="#797979" stroke="none" />
</svg>