<?xml version="1.0" encoding="utf-8"?>
<svg version="1.1" xmlns:xlink="http://www.w3.org/1999/xlink" width="12px" height="12px" viewBox="143 164  12 12" xmlns="http://www.w3.org/2000/svg">
  <path d="M 149 164  C 152.36 164  155 166.64  155 170  C 155 173.36  152.36 176  149 176  C 145.64 176  143 173.36  143 170  C 143 166.64  145.64 164  149 164  Z " fill-rule="nonzero" fill="#ffffff" stroke="none" />
  <path d="M 149 164.5  C 152.08 164.5  154.5 166.92  154.5 170  C 154.5 173.08  152.08 175.5  149 175.5  C 145.92 175.5  143.5 173.08  143.5 170  C 143.5 166.92  145.92 164.5  149 164.5  Z " stroke-width="1" stroke="#797979" fill="none" />
  <path d="M 149 173  C 147.32 173  146 171.68  146 170  C 146 168.32  147.32 167  149 167  C 150.68 167  152 168.32  152 170  C 152 171.68  150.68 173  149 173  " fill-rule="nonzero" fill="#797979" stroke="none" />
</svg>