<?xml version="1.0" encoding="utf-8"?>
<svg version="1.1" xmlns:xlink="http://www.w3.org/1999/xlink" width="16px" height="16px" xmlns="http://www.w3.org/2000/svg">
  <g transform="matrix(1 0 0 1 -401 -570 )">
    <path d="M 8 16  C 3.58179310937498 16  0 12.418206890625  0 8  C 0 3.58179310937498  3.58179310937498 0  8 0  C 12.418206890625 0  16 3.58179310937498  16 8  C 16 12.418206890625  12.418206890625 16  8 16  Z M 6.55172414062497 11.0411034531251  C 6.7607468662801 11.2566439365859  7.10375459270767 11.2654704371114  7.32358620312493 11.060965515625  L 12.56606896875 6.18703448437498  C 12.6772118436568 6.08274168097398  12.740260672885 5.9371182985426  12.740260672885 5.78470528241928  C 12.740260672885 5.4799964534385  12.4932453612407 5.2329811417942  12.1885365322601 5.2329811417942  C 12.0501125048401 5.2329811417942  11.9167459442459 5.28501476321503  11.814896546875 5.37875862500005  L 6.98482759374997 9.90289654687501  L 4.71724137499996 7.56468965625004  C 4.61312496818937 7.45553407423938  4.46885516644295 7.39376920079599  4.31800700685449 7.39376920079599  C 4.01329817787382 7.39376920079599  3.7662828662294 7.64078451244029  3.7662828662294 7.94549334142107  C 3.7662828662294 8.09052306180593  3.8233879722867 8.22972064093062  3.92524137500004 8.33296551562501  L 6.55200000000002 11.0411034531251  Z " fill-rule="nonzero" fill="#32cd32" stroke="none" transform="matrix(1 0 0 1 401 570 )" />
  </g>
</svg>