<?xml version="1.0" encoding="utf-8"?>
<svg version="1.1" xmlns:xlink="http://www.w3.org/1999/xlink" width="10px" height="5px" preserveAspectRatio="xMinYMid meet" viewBox="142 293  10 3" xmlns="http://www.w3.org/2000/svg">
  <path d="M 215 281.5  L 156.5 281.5  A 4.5 4.5 0 0 0 152.5 286 L 152.5 287.5  A 2.5 2.5 0 0 1 150 290.5 L 148 290.5  A 1 1 0 0 0 147.5 291.5 L 147.5 291  " stroke-width="1" stroke="#6495ed" fill="none" />
  <path d="M 148.429203673205 287.5  A 3 3 0 0 0 145.429203673205 290.5 A 3 3 0 0 0 148.429203673205 293.5 A 3 3 0 0 0 151.429203673205 290.5 A 3 3 0 0 0 148.429203673205 287.5 Z " fill-rule="nonzero" fill="#6495ed" stroke="none" />
</svg>