<?xml version="1.0" encoding="utf-8"?>
<svg version="1.1" xmlns:xlink="http://www.w3.org/1999/xlink" width="12px" height="12px" viewBox="497 241  12 12" xmlns="http://www.w3.org/2000/svg">
  <path d="M 503 241  C 506.36 241  509 243.64  509 247  C 509 250.36  506.36 253  503 253  C 499.64 253  497 250.36  497 247  C 497 243.64  499.64 241  503 241  Z " fill-rule="nonzero" fill="#ffffff" stroke="none" />
  <path d="M 503 241.5  C 506.08 241.5  508.5 243.92  508.5 247  C 508.5 250.08  506.08 252.5  503 252.5  C 499.92 252.5  497.5 250.08  497.5 247  C 497.5 243.92  499.92 241.5  503 241.5  Z " stroke-width="1" stroke="#797979" fill="none" />
  <path d="M 503 250  C 501.32 250  500 248.68  500 247  C 500 245.32  501.32 244  503 244  C 504.68 244  506 245.32  506 247  C 506 248.68  504.68 250  503 250  " fill-rule="nonzero" fill="#797979" stroke="none" />
</svg>