<?xml version="1.0" encoding="utf-8"?>
<svg version="1.1" xmlns:xlink="http://www.w3.org/1999/xlink" width="12px" height="12px" viewBox="397 461  12 12" xmlns="http://www.w3.org/2000/svg">
  <path d="M 403 461  C 406.36 461  409 463.64  409 467  C 409 470.36  406.36 473  403 473  C 399.64 473  397 470.36  397 467  C 397 463.64  399.64 461  403 461  Z " fill-rule="nonzero" fill="#ffffff" stroke="none" />
  <path d="M 403 461.5  C 406.08 461.5  408.5 463.92  408.5 467  C 408.5 470.08  406.08 472.5  403 472.5  C 399.92 472.5  397.5 470.08  397.5 467  C 397.5 463.92  399.92 461.5  403 461.5  Z " stroke-width="1" stroke="#797979" fill="none" />
  <path d="M 403 470  C 401.32 470  400 468.68  400 467  C 400 465.32  401.32 464  403 464  C 404.68 464  406 465.32  406 467  C 406 468.68  404.68 470  403 470  " fill-rule="nonzero" fill="#797979" stroke="none" />
</svg>