<?xml version="1.0" encoding="utf-8"?>
<svg version="1.1" xmlns:xlink="http://www.w3.org/1999/xlink" width="16px" height="14px" xmlns="http://www.w3.org/2000/svg">
  <g transform="matrix(1 0 0 1 -463 -494 )">
    <path d="M 10.2857142857143 10.96484375  C 10.3630952380952 10.96484375  10.4315476190476 10.9344618055556  10.4910714285714 10.8736979166667  L 11.7946428571429 9.54296875  C 11.8541666666667 9.48220486111111  11.8839285714286 9.41232638888889  11.8839285714286 9.33333333333333  C 11.8839285714286 9.25434027777778  11.8541666666667 9.18446180555555  11.7946428571429 9.12369791666667  L 9.71428571428571 7  L 11.7946428571429 4.87630208333333  C 11.8541666666667 4.81553819444444  11.8839285714286 4.74565972222222  11.8839285714286 4.66666666666667  C 11.8839285714286 4.58767361111111  11.8541666666667 4.51779513888889  11.7946428571429 4.45703125  L 10.4910714285714 3.12630208333333  C 10.4315476190476 3.06553819444444  10.3630952380952 3.03515625  10.2857142857143 3.03515625  C 10.2083333333333 3.03515625  10.139880952381 3.06553819444444  10.0803571428571 3.12630208333333  L 8 5.25  L 5.91964285714286 3.12630208333333  C 5.86011904761905 3.06553819444444  5.79166666666667 3.03515625  5.71428571428571 3.03515625  C 5.63690476190476 3.03515625  5.56845238095238 3.06553819444444  5.50892857142857 3.12630208333333  L 4.20535714285714 4.45703125  C 4.14583333333333 4.51779513888889  4.11607142857143 4.58767361111111  4.11607142857143 4.66666666666667  C 4.11607142857143 4.74565972222222  4.14583333333333 4.81553819444444  4.20535714285714 4.87630208333333  L 6.28571428571429 7  L 4.20535714285714 9.12369791666667  C 4.14583333333333 9.18446180555555  4.11607142857143 9.25434027777778  4.11607142857143 9.33333333333333  C 4.11607142857143 9.41232638888889  4.14583333333333 9.48220486111111  4.20535714285714 9.54296875  L 5.50892857142857 10.8736979166667  C 5.56845238095238 10.9344618055556  5.63690476190476 10.96484375  5.71428571428571 10.96484375  C 5.79166666666667 10.96484375  5.86011904761905 10.9344618055556  5.91964285714286 10.8736979166667  L 8 8.75  L 10.0803571428571 10.8736979166667  C 10.139880952381 10.9344618055556  10.2083333333333 10.96484375  10.2857142857143 10.96484375  Z M 15.5803571428571 0.428385416666667  C 15.860119047619 0.713975694444444  16 1.05729166666667  16 1.45833333333333  L 16 12.5416666666667  C 16 12.9427083333333  15.860119047619 13.2860243055556  15.5803571428571 13.5716145833333  C 15.3005952380952 13.8572048611111  14.9642857142857 14  14.5714285714286 14  L 1.42857142857143 14  C 1.03571428571429 14  0.699404761904762 13.8572048611111  0.419642857142857 13.5716145833333  C 0.139880952380952 13.2860243055556  0 12.9427083333333  0 12.5416666666667  L 0 1.45833333333333  C 0 1.05729166666667  0.139880952380952 0.713975694444444  0.419642857142857 0.428385416666667  C 0.699404761904762 0.142795138888888  1.03571428571429 0  1.42857142857143 0  L 14.5714285714286 0  C 14.9642857142857 0  15.3005952380952 0.142795138888888  15.5803571428571 0.428385416666667  Z " fill-rule="nonzero" fill="#1989fa" stroke="none" transform="matrix(1 0 0 1 463 494 )" />
  </g>
</svg>