<?xml version="1.0" encoding="utf-8"?>
<svg version="1.1" xmlns:xlink="http://www.w3.org/1999/xlink" width="22px" height="23px" xmlns="http://www.w3.org/2000/svg">
  <g transform="matrix(1 0 0 1 -1373 -823 )">
    <path d="M 1384 823  C 1390.16 823  1395 828.06  1395 834.5  C 1395 840.94  1390.16 846  1384 846  C 1377.84 846  1373 840.94  1373 834.5  C 1373 828.06  1377.84 823  1384 823  Z " fill-rule="nonzero" fill="#ffffff" stroke="none" />
    <path d="M 1384 823.5  C 1389.88 823.5  1394.5 828.34  1394.5 834.5  C 1394.5 840.66  1389.88 845.5  1384 845.5  C 1378.12 845.5  1373.5 840.66  1373.5 834.5  C 1373.5 828.34  1378.12 823.5  1384 823.5  Z " stroke-width="1" stroke="#cccccc" fill="none" />
  </g>
</svg>