<?xml version="1.0" encoding="utf-8"?>
<svg version="1.1" xmlns:xlink="http://www.w3.org/1999/xlink" width="25px" height="25px" xmlns="http://www.w3.org/2000/svg">
  <g transform="matrix(1 0 0 1 -1124 -1083 )">
    <path d="M 1136.5 1083  C 1143.5 1083  1149 1088.5  1149 1095.5  C 1149 1102.5  1143.5 1108  1136.5 1108  C 1129.5 1108  1124 1102.5  1124 1095.5  C 1124 1088.5  1129.5 1083  1136.5 1083  Z " fill-rule="nonzero" fill="#ffffff" stroke="none" />
    <path d="M 1136.5 1083.5  C 1143.22 1083.5  1148.5 1088.78  1148.5 1095.5  C 1148.5 1102.22  1143.22 1107.5  1136.5 1107.5  C 1129.78 1107.5  1124.5 1102.22  1124.5 1095.5  C 1124.5 1088.78  1129.78 1083.5  1136.5 1083.5  Z " stroke-width="1" stroke="#cccccc" fill="none" />
  </g>
</svg>