<?xml version="1.0" encoding="utf-8"?>
<svg version="1.1" xmlns:xlink="http://www.w3.org/1999/xlink" width="28px" height="28px" xmlns="http://www.w3.org/2000/svg">
  <g transform="matrix(1 0 0 1 -363 -1571 )">
    <path d="M 27.9833512929688 13.9930327304687  C 27.9833512929688 6.265819765625  21.71918240625 0.00165087890625  13.9919694414063 0.00165087890625  C 6.26472850390625 0.00165087890625  0.000587589843750846 6.265819765625  0.000587589843750846 13.9930327304687  C 0.000587589843750846 21.7202456953125  6.2647564765625 27.9844145820312  13.9919694414063 27.9844145820312  C 21.71918240625 27.9844145820312  27.9833512929688 21.7202456953125  27.9833512929688 13.9930327304687  Z M 23.3451599882812 11.257719265625  L 23.3463071953125 11.2588944726562  L 12.76332246875 21.8418791992187  L 12.7621472617188 21.8407039921875  C 12.4210305351563 22.18182071875  11.8682653085938 22.1821565  11.5266729101563 21.8418512265625  L 4.6536928046875 14.9689270664063  L 4.65486801171875 14.967751859375  C 4.31335955859375 14.62624340625  4.31335955859375 14.07258278125  4.65486801171875 13.731074328125  C 4.99637646484375 13.389565875  5.55003708984375 13.389565875  5.89154554296875 13.731074328125  L 12.144997703125 19.9845264882813  L 22.1084824570313 10.021041734375  C 22.4499909101562 9.67953328125  23.0036515351562 9.67953328125  23.3451599882812 10.021041734375  C 23.6866684414063 10.3625501875  23.6866684414063 10.9162108125  23.3451599882812 11.257719265625  Z " fill-rule="nonzero" fill="#ffcc99" stroke="none" transform="matrix(1 0 0 1 363 1571 )" />
  </g>
</svg>