<?xml version="1.0" encoding="utf-8"?>
<svg version="1.1" xmlns:xlink="http://www.w3.org/1999/xlink" width="303px" height="32px" xmlns="http://www.w3.org/2000/svg">
  <g transform="matrix(1 0 0 1 -1796 -615 )">
    <path d="M 1796 628.205057471264  C 1796 628.205057471264  1796 624.294252873563  1796 624.294252873563  C 1796 619.323690125086  1800.02943725152 615.294252873563  1805 615.294252873563  C 1805 615.294252873563  2090 615.294252873563  2090 615.294252873563  C 2094.97056274848 615.294252873563  2099 619.323690125086  2099 624.294252873563  C 2099 624.294252873563  2099 628.205057471264  2099 628.205057471264  C 2099 633.175620219742  2094.97056274848 637.205057471264  2090 637.205057471264  C 2090 637.205057471264  1996.39783573807 637.205057471264  1996.39783573807 637.205057471264  C 1996.39783573807 637.205057471264  1982.32219755827 646.578237547893  1982.32219755827 646.578237547893  C 1982.32219755827 646.578237547893  1967.89783573807 637.205057471264  1967.89783573807 637.205057471264  C 1967.89783573807 637.205057471264  1805 637.205057471264  1805 637.205057471264  C 1800.02943725152 637.205057471264  1796 633.175620219742  1796 628.205057471264  Z " fill-rule="nonzero" fill="#eef5b8" stroke="none" />
  </g>
</svg>