<?xml version="1.0" encoding="utf-8"?>
<svg version="1.1" xmlns:xlink="http://www.w3.org/1999/xlink" width="326px" height="28px" xmlns="http://www.w3.org/2000/svg">
  <g transform="matrix(1 0 0 1 -1784 -742 )">
    <path d="M 1784 754.560714285714  C 1784 754.560714285714  1784 751.285714285714  1784 751.285714285714  C 1784 746.315151537237  1788.02943725152 742.285714285714  1793 742.285714285714  C 1793 742.285714285714  2101 742.285714285714  2101 742.285714285714  C 2105.97056274848 742.285714285714  2110 746.315151537237  2110 751.285714285714  C 2110 751.285714285714  2110 754.560714285714  2110 754.560714285714  C 2110 759.531277034191  2105.97056274848 763.560714285714  2101 763.560714285714  C 2101 763.560714285714  1915.70526221324 763.560714285714  1915.70526221324 763.560714285714  C 1915.70526221324 763.560714285714  1905.76843697688 769.190476190476  1905.76843697688 769.190476190476  C 1905.76843697688 769.190476190476  1891.38050973799 763.560714285714  1891.38050973799 763.560714285714  C 1891.38050973799 763.560714285714  1793 763.560714285714  1793 763.560714285714  C 1788.02943725152 763.560714285714  1784 759.531277034191  1784 754.560714285714  Z " fill-rule="nonzero" fill="#99ccff" stroke="none" />
  </g>
</svg>