<svg t="1567566357740" class="icon" viewBox="0 0 1024 1024" version="1.1" xmlns="http://www.w3.org/2000/svg" p-id="2118" width="200" height="200"><path d="M514.2 399.7c109.2 0 197.9-88.6 197.9-197.9C712.1 92.5 623.5 4 514.2 4 405 4 316.3 92.6 316.3 201.9c0 109.3 88.7 197.8 197.9 197.8z m-60.9 76.1c0.1 18.2 15.2 42.7 24.3 51.8 9.1 9.1 24.4 9.1 36.6 9.1 12.2 0 27.5 0 36.6-9.1 9.1-9.1 24.2-33.5 24.3-51.8 0.1-21.3-37.2-24.3-60.9-24.3-23.7 0-61 3.1-60.9 24.3z" fill="#515151" p-id="2119"></path><path d="M921.7 588c-11.1-49.2-51.2-86.5-101.1-93.8l-176-25.9-0.1 0.2-1.5-0.2-87 199.3-9.9-97.8c-0.2-3.2-3-5.6-6-5.6h-51.5c-3.2 0-5.8 2.5-6 5.6l-9.9 97.8-87-199.3-1.5 0.2-0.1-0.2-176 25.9C158.2 501.5 118 538.8 107 588l-95.9 428.2h167.5l53.3-228.4 15.2 228.4h534.5l15.2-228.4 53.3 228.4h167.5L921.7 588zM620.6 742.3l91.2-60.9 30.3 60.9H620.6z" fill="#515151" p-id="2120"></path></svg>