<?xml version="1.0" encoding="utf-8"?>
<svg version="1.1" xmlns:xlink="http://www.w3.org/1999/xlink" width="326px" height="29px" xmlns="http://www.w3.org/2000/svg">
  <g transform="matrix(1 0 0 1 -1784 -891 )">
    <path d="M 1784 903.560714285714  C 1784 903.560714285714  1784 900.285714285714  1784 900.285714285714  C 1784 895.315151537237  1788.02943725152 891.285714285714  1793 891.285714285714  C 1793 891.285714285714  2101 891.285714285714  2101 891.285714285714  C 2105.97056274848 891.285714285714  2110 895.315151537237  2110 900.285714285714  C 2110 900.285714285714  2110 903.560714285714  2110 903.560714285714  C 2110 908.531277034191  2105.97056274848 912.560714285714  2101 912.560714285714  C 2101 912.560714285714  1816.70526221324 912.560714285714  1816.70526221324 912.560714285714  C 1816.70526221324 912.560714285714  1810.16843697688 919.590476190476  1810.16843697688 919.590476190476  C 1810.16843697688 919.590476190476  1802.18050973799 912.560714285714  1802.18050973799 912.560714285714  C 1802.18050973799 912.560714285714  1793 912.560714285714  1793 912.560714285714  C 1788.02943725152 912.560714285714  1784 908.531277034191  1784 903.560714285714  Z " fill-rule="nonzero" fill="#eac8f7" stroke="none" />
  </g>
</svg>