<?xml version="1.0" encoding="utf-8"?>
<svg version="1.1" xmlns:xlink="http://www.w3.org/1999/xlink" width="40px" height="40px" xmlns="http://www.w3.org/2000/svg">
  <defs>
    <filter x="1343px" y="481px" width="40px" height="40px" filterUnits="userSpaceOnUse" id="filter12">
      <feOffset dx="1" dy="1" in="SourceAlpha" result="shadowOffsetInner" />
      <feGaussianBlur stdDeviation="2.5" in="shadowOffsetInner" result="shadowGaussian" />
      <feComposite in2="shadowGaussian" operator="atop" in="SourceAlpha" result="shadowComposite" />
      <feColorMatrix type="matrix" values="0 0 0 0 0  0 0 0 0 0  0 0 0 0 0  0 0 0 0.698039215686274 0  " in="shadowComposite" />
    </filter>
    <g id="widget13">
      <path d="M 1362 485  C 1370.4 485  1377 491.6  1377 500  C 1377 508.4  1370.4 515  1362 515  C 1353.6 515  1347 508.4  1347 500  C 1347 491.6  1353.6 485  1362 485  Z " fill-rule="nonzero" fill="#ff6600" stroke="none" />
      <path d="M 1362 485.5  C 1370.12 485.5  1376.5 491.88  1376.5 500  C 1376.5 508.12  1370.12 514.5  1362 514.5  C 1353.88 514.5  1347.5 508.12  1347.5 500  C 1347.5 491.88  1353.88 485.5  1362 485.5  Z " stroke-width="1" stroke="#ffffff" fill="none" />
    </g>
  </defs>
  <g transform="matrix(1 0 0 1 -1343 -481 )">
    <use xlink:href="#widget13" filter="url(#filter12)" />
    <use xlink:href="#widget13" />
  </g>
</svg>