<?xml version="1.0" encoding="utf-8"?>
<svg version="1.1" xmlns:xlink="http://www.w3.org/1999/xlink" width="314px" height="30px" xmlns="http://www.w3.org/2000/svg">
  <g transform="matrix(1 0 0 1 -1353 -604 )">
    <path d="M 1353 619.019893899204  C 1353 619.019893899204  1353 613.318302387268  1353 613.318302387268  C 1353 608.347739638791  1357.02943725152 604.318302387268  1362 604.318302387268  C 1362 604.318302387268  1658 604.318302387268  1658 604.318302387268  C 1662.97056274848 604.318302387268  1667 608.347739638791  1667 613.318302387268  C 1667 613.318302387268  1667 619.019893899204  1667 619.019893899204  C 1667 623.990456647681  1662.97056274848 628.019893899204  1658 628.019893899204  C 1658 628.019893899204  1646.16805419721 628.019893899204  1646.16805419721 628.019893899204  C 1646.16805419721 628.019893899204  1638.31739284916 633.543766578249  1638.31739284916 633.543766578249  C 1638.31739284916 633.543766578249  1631.14165155694 628.019893899204  1631.14165155694 628.019893899204  C 1631.14165155694 628.019893899204  1362 628.019893899204  1362 628.019893899204  C 1357.02943725152 628.019893899204  1353 623.990456647681  1353 619.019893899204  Z " fill-rule="nonzero" fill="#bbeef2" stroke="none" />
  </g>
</svg>