<?xml version="1.0" encoding="utf-8"?>
<svg version="1.1" xmlns:xlink="http://www.w3.org/1999/xlink" width="12px" height="12px" viewBox="431 194  12 12" xmlns="http://www.w3.org/2000/svg">
  <path d="M 437 194  C 440.36 194  443 196.64  443 200  C 443 203.36  440.36 206  437 206  C 433.64 206  431 203.36  431 200  C 431 196.64  433.64 194  437 194  Z " fill-rule="nonzero" fill="#ffffff" stroke="none" />
  <path d="M 437 194.5  C 440.08 194.5  442.5 196.92  442.5 200  C 442.5 203.08  440.08 205.5  437 205.5  C 433.92 205.5  431.5 203.08  431.5 200  C 431.5 196.92  433.92 194.5  437 194.5  Z " stroke-width="1" stroke="#797979" fill="none" />
  <path d="M 437 203  C 435.32 203  434 201.68  434 200  C 434 198.32  435.32 197  437 197  C 438.68 197  440 198.32  440 200  C 440 201.68  438.68 203  437 203  " fill-rule="nonzero" fill="#797979" stroke="none" />
</svg>