<?xml version="1.0" encoding="utf-8"?>
<svg version="1.1" xmlns:xlink="http://www.w3.org/1999/xlink" width="12px" height="12px" viewBox="431 161  12 12" xmlns="http://www.w3.org/2000/svg">
  <path d="M 437 161  C 440.36 161  443 163.64  443 167  C 443 170.36  440.36 173  437 173  C 433.64 173  431 170.36  431 167  C 431 163.64  433.64 161  437 161  Z " fill-rule="nonzero" fill="#ffffff" stroke="none" />
  <path d="M 437 161.5  C 440.08 161.5  442.5 163.92  442.5 167  C 442.5 170.08  440.08 172.5  437 172.5  C 433.92 172.5  431.5 170.08  431.5 167  C 431.5 163.92  433.92 161.5  437 161.5  Z " stroke-width="1" stroke="#797979" fill="none" />
  <path d="M 437 170  C 435.32 170  434 168.68  434 167  C 434 165.32  435.32 164  437 164  C 438.68 164  440 165.32  440 167  C 440 168.68  438.68 170  437 170  " fill-rule="nonzero" fill="#797979" stroke="none" />
</svg>