<?xml version="1.0" encoding="utf-8"?>
<svg version="1.1" xmlns:xlink="http://www.w3.org/1999/xlink" width="12px" height="12px" viewBox="331 161  12 12" xmlns="http://www.w3.org/2000/svg">
  <path d="M 337 161  C 340.36 161  343 163.64  343 167  C 343 170.36  340.36 173  337 173  C 333.64 173  331 170.36  331 167  C 331 163.64  333.64 161  337 161  Z " fill-rule="nonzero" fill="#ffffff" stroke="none" />
  <path d="M 337 161.5  C 340.08 161.5  342.5 163.92  342.5 167  C 342.5 170.08  340.08 172.5  337 172.5  C 333.92 172.5  331.5 170.08  331.5 167  C 331.5 163.92  333.92 161.5  337 161.5  Z " stroke-width="1" stroke="#797979" fill="none" />
  <path d="M 337 170  C 335.32 170  334 168.68  334 167  C 334 165.32  335.32 164  337 164  C 338.68 164  340 165.32  340 167  C 340 168.68  338.68 170  337 170  " fill-rule="nonzero" fill="#797979" stroke="none" />
</svg>