<?xml version="1.0" encoding="utf-8"?>
<svg version="1.1" xmlns:xlink="http://www.w3.org/1999/xlink" width="12px" height="12px" viewBox="531 161  12 12" xmlns="http://www.w3.org/2000/svg">
  <path d="M 537 161  C 540.36 161  543 163.64  543 167  C 543 170.36  540.36 173  537 173  C 533.64 173  531 170.36  531 167  C 531 163.64  533.64 161  537 161  Z " fill-rule="nonzero" fill="#ffffff" stroke="none" />
  <path d="M 537 161.5  C 540.08 161.5  542.5 163.92  542.5 167  C 542.5 170.08  540.08 172.5  537 172.5  C 533.92 172.5  531.5 170.08  531.5 167  C 531.5 163.92  533.92 161.5  537 161.5  Z " stroke-width="1" stroke="#797979" fill="none" />
  <path d="M 537 170  C 535.32 170  534 168.68  534 167  C 534 165.32  535.32 164  537 164  C 538.68 164  540 165.32  540 167  C 540 168.68  538.68 170  537 170  " fill-rule="nonzero" fill="#797979" stroke="none" />
</svg>