<?xml version="1.0" encoding="utf-8"?>
<svg version="1.1" xmlns:xlink="http://www.w3.org/1999/xlink" width="12px" height="12px" viewBox="331 194  12 12" xmlns="http://www.w3.org/2000/svg">
  <path d="M 337 194  C 340.36 194  343 196.64  343 200  C 343 203.36  340.36 206  337 206  C 333.64 206  331 203.36  331 200  C 331 196.64  333.64 194  337 194  Z " fill-rule="nonzero" fill="#ffffff" stroke="none" />
  <path d="M 337 194.5  C 340.08 194.5  342.5 196.92  342.5 200  C 342.5 203.08  340.08 205.5  337 205.5  C 333.92 205.5  331.5 203.08  331.5 200  C 331.5 196.92  333.92 194.5  337 194.5  Z " stroke-width="1" stroke="#797979" fill="none" />
  <path d="M 337 203  C 335.32 203  334 201.68  334 200  C 334 198.32  335.32 197  337 197  C 338.68 197  340 198.32  340 200  C 340 201.68  338.68 203  337 203  " fill-rule="nonzero" fill="#797979" stroke="none" />
</svg>