<svg t="1567583177311" class="icon" viewBox="0 0 1024 1024" version="1.1" xmlns="http://www.w3.org/2000/svg" p-id="6178" width="200" height="200"><path d="M0 512C0 231.136 231.104 0 512 0s512 231.104 512 512c0 280.864-231.136 512-512 512S0 792.864 0 512z m576-32V281.6c0-35.104-28.896-64-64-64s-64 28.896-64 64V480H256a32.16 32.16 0 0 0-31.552 32 32 32 0 0 0 9.152 22.4l256 256c5.92 6.016 13.952 9.472 22.4 9.6 8.448-0.128 16.48-3.584 22.4-9.6l256-256a32 32 0 0 0 9.152-22.4c0-17.376-14.176-31.744-31.552-32h-192z" fill="#FF805D" p-id="6179"></path></svg>