<svg t="1571294291861" class="icon" viewBox="0 0 1024 1024" version="1.1" xmlns="http://www.w3.org/2000/svg" p-id="3134" width="200" height="200"><path d="M512 1011.2C236.7488 1011.2 12.8 787.268267 12.8 512 12.8 236.7488 236.7488 12.8 512 12.8 787.268267 12.8 1011.2 236.7488 1011.2 512c0 275.268267-223.931733 499.2-499.2 499.2z m0-964.266667C255.556267 46.933333 46.933333 255.573333 46.933333 512S255.556267 977.066667 512 977.066667c256.426667 0 465.066667-208.622933 465.066667-465.066667S768.426667 46.933333 512 46.933333z" fill="#1DA6DB" p-id="3135"></path><path d="M512 643.908267c-128.256 0-274.141867-91.170133-285.610667-88.866134s-8.277333 34.696533-8.277333 52.974934C218.112 734.071467 349.696 836.266667 512 836.266667c162.321067 0 293.888-102.1952 293.888-228.266667 0-18.261333 5.000533-54.016-8.260267-52.974933S640.256 643.908267 512 643.908267z" fill="#1DA6DB" p-id="3136"></path><path d="M243.2 348.808533a144.008533 98.133333 90 1 0 196.266667 0 144.008533 98.133333 90 1 0-196.266667 0Z" fill="#1DA6DB" p-id="3137"></path><path d="M580.266667 348.808533a144.008533 98.133333 90 1 0 196.266666 0 144.008533 98.133333 90 1 0-196.266666 0Z" fill="#1DA6DB" p-id="3138"></path></svg>