<?xml version="1.0" encoding="utf-8"?>
<svg version="1.1" xmlns:xlink="http://www.w3.org/1999/xlink" width="16px" height="16px" xmlns="http://www.w3.org/2000/svg">
  <g transform="matrix(1 0 0 1 -1351 -252 )">
    <path d="M 4.88888333333335 11.6630833333334  C 4.74551666666667 11.6630833333334  4.60214999999999 11.6129166666666  4.50178333333332 11.5053833333333  C 4.27956666666665 11.2903333333333  4.27956666666665 10.9390666666667  4.50178333333332 10.7240166666667  L 7.22579999999999 8  L 4.50178333333332 5.27598333333333  C 4.27956666666665 5.06093333333331  4.27956666666665 4.71685000000002  4.50178333333332 4.5018  C 4.71683333333334 4.27958333333333  5.06091666666669 4.27958333333333  5.27596666666665 4.5018  L 7.99998333333332 7.22581666666667  L 10.724 4.5018  C 10.93905 4.27958333333333  11.2903166666667 4.27958333333333  11.5053666666666 4.5018  C 11.7204166666667 4.71685000000002  11.7204166666667 5.06093333333331  11.5053666666666 5.27598333333333  L 8.78134999999997 8  L 11.5053666666666 10.7240166666667  C 11.7204166666667 10.9390666666667  11.7204166666667 11.2903333333333  11.5053666666666 11.5053833333333  C 11.3978333333333 11.6129166666666  11.2544833333333 11.6630833333334  11.1111 11.6630833333334  C 10.9749 11.6630833333334  10.8315333333333 11.6129166666666  10.724 11.5053833333333  L 7.99998333333332 8.78136666666666  L 5.27596666666665 11.5053833333333  C 5.16843333333333 11.6129166666666  5.03223333333335 11.6630833333334  4.88886666666667 11.6630833333334  Z M 8 0  C 3.58423333333332 0  0 3.58423333333332  0 8  C 0 12.4229333333333  3.58423333333332 16  8 16  C 12.4229333333333 16  16 12.4229333333333  16 8  C 16 3.58423333333332  12.4229333333333 0  8 0  Z " fill-rule="nonzero" fill="#d7d7d7" stroke="none" transform="matrix(1 0 0 1 1351 252 )" />
  </g>
</svg>