<?xml version="1.0" encoding="utf-8"?>
<svg version="1.1" xmlns:xlink="http://www.w3.org/1999/xlink" width="6px" height="11px" xmlns="http://www.w3.org/2000/svg">
  <g transform="matrix(1 0 0 1 -420 -238 )">
    <path d="M 0.174024432487499 0.321241832975289  C 0.174024432487499 0.144061393370237  0.317480125384122 0.000334563511330543  0.494660250000038 0  C 0.579830950919472 0  0.661484079895843 0.0339696661465894  0.721509145833352 0.0943935005523713  L 5.73349959375003 5.10638392354002  C 5.79449327854769 5.16672487350715  5.82881458100462 5.24895751310211  5.82881458100462 5.33475529740409  C 5.82881458100462 5.42055308170612  5.79449327854769 5.50278572130102  5.73349959375003 5.56312667126818  L 0.721509145833352 10.5720721463543  C 0.660941291375991 10.6326400005104  0.578793652050649 10.6666666666666  0.493137770833357 10.6666666666666  C 0.31476863187703 10.6666666666666  0.170171875050528 10.5220699105594  0.170171875050528 10.3437007724903  C 0.170171875050528 10.2580448916989  0.204198541376002 10.1758972527822  0.264766395833362 10.1153293986262  L 5.04534052083329 5.32866540160106  L 0.267811343749997 0.548091300379014  C 0.207751977665737 0.487871486500751  0.174024432487499 0.406292132222859  0.174024432487499 0.321241832975289  Z " fill-rule="nonzero" fill="#333333" stroke="none" transform="matrix(1 0 0 1 420 238 )" />
  </g>
</svg>