<?xml version="1.0" encoding="utf-8"?>
<svg version="1.1" xmlns:xlink="http://www.w3.org/1999/xlink" width="12px" height="12px" viewBox="717 1288  12 12" xmlns="http://www.w3.org/2000/svg">
  <path d="M 723 1288  C 726.36 1288  729 1290.64  729 1294  C 729 1297.36  726.36 1300  723 1300  C 719.64 1300  717 1297.36  717 1294  C 717 1290.64  719.64 1288  723 1288  Z " fill-rule="nonzero" fill="#ffffff" stroke="none" />
  <path d="M 723 1288.5  C 726.08 1288.5  728.5 1290.92  728.5 1294  C 728.5 1297.08  726.08 1299.5  723 1299.5  C 719.92 1299.5  717.5 1297.08  717.5 1294  C 717.5 1290.92  719.92 1288.5  723 1288.5  Z " stroke-width="1" stroke="#797979" fill="none" />
  <path d="M 723 1297  C 721.32 1297  720 1295.68  720 1294  C 720 1292.32  721.32 1291  723 1291  C 724.68 1291  726 1292.32  726 1294  C 726 1295.68  724.68 1297  723 1297  " fill-rule="nonzero" fill="#797979" stroke="none" />
</svg>