<?xml version="1.0" encoding="utf-8"?>
<svg version="1.1" xmlns:xlink="http://www.w3.org/1999/xlink" width="12px" height="12px" viewBox="826 1212  12 12" xmlns="http://www.w3.org/2000/svg">
  <path d="M 832 1212  C 835.36 1212  838 1214.64  838 1218  C 838 1221.36  835.36 1224  832 1224  C 828.64 1224  826 1221.36  826 1218  C 826 1214.64  828.64 1212  832 1212  Z " fill-rule="nonzero" fill="#ffffff" stroke="none" />
  <path d="M 832 1212.5  C 835.08 1212.5  837.5 1214.92  837.5 1218  C 837.5 1221.08  835.08 1223.5  832 1223.5  C 828.92 1223.5  826.5 1221.08  826.5 1218  C 826.5 1214.92  828.92 1212.5  832 1212.5  Z " stroke-width="1" stroke="#797979" fill="none" />
  <path d="M 832 1221  C 830.32 1221  829 1219.68  829 1218  C 829 1216.32  830.32 1215  832 1215  C 833.68 1215  835 1216.32  835 1218  C 835 1219.68  833.68 1221  832 1221  " fill-rule="nonzero" fill="#797979" stroke="none" />
</svg>