<?xml version="1.0" encoding="utf-8"?>
<svg version="1.1" xmlns:xlink="http://www.w3.org/1999/xlink" width="12px" height="12px" viewBox="826 1288  12 12" xmlns="http://www.w3.org/2000/svg">
  <path d="M 832 1288  C 835.36 1288  838 1290.64  838 1294  C 838 1297.36  835.36 1300  832 1300  C 828.64 1300  826 1297.36  826 1294  C 826 1290.64  828.64 1288  832 1288  Z " fill-rule="nonzero" fill="#ffffff" stroke="none" />
  <path d="M 832 1288.5  C 835.08 1288.5  837.5 1290.92  837.5 1294  C 837.5 1297.08  835.08 1299.5  832 1299.5  C 828.92 1299.5  826.5 1297.08  826.5 1294  C 826.5 1290.92  828.92 1288.5  832 1288.5  Z " stroke-width="1" stroke="#797979" fill="none" />
  <path d="M 832 1297  C 830.32 1297  829 1295.68  829 1294  C 829 1292.32  830.32 1291  832 1291  C 833.68 1291  835 1292.32  835 1294  C 835 1295.68  833.68 1297  832 1297  " fill-rule="nonzero" fill="#797979" stroke="none" />
</svg>