<?xml version="1.0" encoding="utf-8"?>
<svg version="1.1" xmlns:xlink="http://www.w3.org/1999/xlink" width="12px" height="12px" viewBox="717 1212  12 12" xmlns="http://www.w3.org/2000/svg">
  <path d="M 723 1212  C 726.36 1212  729 1214.64  729 1218  C 729 1221.36  726.36 1224  723 1224  C 719.64 1224  717 1221.36  717 1218  C 717 1214.64  719.64 1212  723 1212  Z " fill-rule="nonzero" fill="#ffffff" stroke="none" />
  <path d="M 723 1212.5  C 726.08 1212.5  728.5 1214.92  728.5 1218  C 728.5 1221.08  726.08 1223.5  723 1223.5  C 719.92 1223.5  717.5 1221.08  717.5 1218  C 717.5 1214.92  719.92 1212.5  723 1212.5  Z " stroke-width="1" stroke="#797979" fill="none" />
  <path d="M 723 1221  C 721.32 1221  720 1219.68  720 1218  C 720 1216.32  721.32 1215  723 1215  C 724.68 1215  726 1216.32  726 1218  C 726 1219.68  724.68 1221  723 1221  " fill-rule="nonzero" fill="#797979" stroke="none" />
</svg>