<?xml version="1.0" encoding="utf-8"?>
<svg version="1.1" xmlns:xlink="http://www.w3.org/1999/xlink" width="12px" height="12px" viewBox="826 1173  12 12" xmlns="http://www.w3.org/2000/svg">
  <path d="M 832 1173  C 835.36 1173  838 1175.64  838 1179  C 838 1182.36  835.36 1185  832 1185  C 828.64 1185  826 1182.36  826 1179  C 826 1175.64  828.64 1173  832 1173  Z " fill-rule="nonzero" fill="#ffffff" stroke="none" />
  <path d="M 832 1173.5  C 835.08 1173.5  837.5 1175.92  837.5 1179  C 837.5 1182.08  835.08 1184.5  832 1184.5  C 828.92 1184.5  826.5 1182.08  826.5 1179  C 826.5 1175.92  828.92 1173.5  832 1173.5  Z " stroke-width="1" stroke="#797979" fill="none" />
  <path d="M 832 1182  C 830.32 1182  829 1180.68  829 1179  C 829 1177.32  830.32 1176  832 1176  C 833.68 1176  835 1177.32  835 1179  C 835 1180.68  833.68 1182  832 1182  " fill-rule="nonzero" fill="#797979" stroke="none" />
</svg>