<?xml version="1.0" encoding="utf-8"?>
<svg version="1.1" xmlns:xlink="http://www.w3.org/1999/xlink" width="12px" height="12px" viewBox="717 1173  12 12" xmlns="http://www.w3.org/2000/svg">
  <path d="M 723 1173  C 726.36 1173  729 1175.64  729 1179  C 729 1182.36  726.36 1185  723 1185  C 719.64 1185  717 1182.36  717 1179  C 717 1175.64  719.64 1173  723 1173  Z " fill-rule="nonzero" fill="#ffffff" stroke="none" />
  <path d="M 723 1173.5  C 726.08 1173.5  728.5 1175.92  728.5 1179  C 728.5 1182.08  726.08 1184.5  723 1184.5  C 719.92 1184.5  717.5 1182.08  717.5 1179  C 717.5 1175.92  719.92 1173.5  723 1173.5  Z " stroke-width="1" stroke="#797979" fill="none" />
  <path d="M 723 1182  C 721.32 1182  720 1180.68  720 1179  C 720 1177.32  721.32 1176  723 1176  C 724.68 1176  726 1177.32  726 1179  C 726 1180.68  724.68 1182  723 1182  " fill-rule="nonzero" fill="#797979" stroke="none" />
</svg>