<?xml version="1.0" encoding="utf-8"?>
<svg version="1.1" xmlns:xlink="http://www.w3.org/1999/xlink" width="12px" height="12px" viewBox="826 1556  12 12" xmlns="http://www.w3.org/2000/svg">
  <path d="M 832 1556  C 835.36 1556  838 1558.64  838 1562  C 838 1565.36  835.36 1568  832 1568  C 828.64 1568  826 1565.36  826 1562  C 826 1558.64  828.64 1556  832 1556  Z " fill-rule="nonzero" fill="#ffffff" stroke="none" />
  <path d="M 832 1556.5  C 835.08 1556.5  837.5 1558.92  837.5 1562  C 837.5 1565.08  835.08 1567.5  832 1567.5  C 828.92 1567.5  826.5 1565.08  826.5 1562  C 826.5 1558.92  828.92 1556.5  832 1556.5  Z " stroke-width="1" stroke="#797979" fill="none" />
  <path d="M 832 1565  C 830.32 1565  829 1563.68  829 1562  C 829 1560.32  830.32 1559  832 1559  C 833.68 1559  835 1560.32  835 1562  C 835 1563.68  833.68 1565  832 1565  " fill-rule="nonzero" fill="#797979" stroke="none" />
</svg>