<?xml version="1.0" encoding="utf-8"?>
<svg version="1.1" xmlns:xlink="http://www.w3.org/1999/xlink" width="12px" height="12px" viewBox="826 1327  12 12" xmlns="http://www.w3.org/2000/svg">
  <path d="M 832 1327  C 835.36 1327  838 1329.64  838 1333  C 838 1336.36  835.36 1339  832 1339  C 828.64 1339  826 1336.36  826 1333  C 826 1329.64  828.64 1327  832 1327  Z " fill-rule="nonzero" fill="#ffffff" stroke="none" />
  <path d="M 832 1327.5  C 835.08 1327.5  837.5 1329.92  837.5 1333  C 837.5 1336.08  835.08 1338.5  832 1338.5  C 828.92 1338.5  826.5 1336.08  826.5 1333  C 826.5 1329.92  828.92 1327.5  832 1327.5  Z " stroke-width="1" stroke="#797979" fill="none" />
  <path d="M 832 1336  C 830.32 1336  829 1334.68  829 1333  C 829 1331.32  830.32 1330  832 1330  C 833.68 1330  835 1331.32  835 1333  C 835 1334.68  833.68 1336  832 1336  " fill-rule="nonzero" fill="#797979" stroke="none" />
</svg>