<?xml version="1.0" encoding="utf-8"?>
<svg version="1.1" xmlns:xlink="http://www.w3.org/1999/xlink" width="12px" height="12px" viewBox="826 1793  12 12" xmlns="http://www.w3.org/2000/svg">
  <path d="M 832 1793  C 835.36 1793  838 1795.64  838 1799  C 838 1802.36  835.36 1805  832 1805  C 828.64 1805  826 1802.36  826 1799  C 826 1795.64  828.64 1793  832 1793  Z " fill-rule="nonzero" fill="#ffffff" stroke="none" />
  <path d="M 832 1793.5  C 835.08 1793.5  837.5 1795.92  837.5 1799  C 837.5 1802.08  835.08 1804.5  832 1804.5  C 828.92 1804.5  826.5 1802.08  826.5 1799  C 826.5 1795.92  828.92 1793.5  832 1793.5  Z " stroke-width="1" stroke="#797979" fill="none" />
  <path d="M 832 1802  C 830.32 1802  829 1800.68  829 1799  C 829 1797.32  830.32 1796  832 1796  C 833.68 1796  835 1797.32  835 1799  C 835 1800.68  833.68 1802  832 1802  " fill-rule="nonzero" fill="#797979" stroke="none" />
</svg>