<?xml version="1.0" encoding="utf-8"?>
<svg version="1.1" xmlns:xlink="http://www.w3.org/1999/xlink" width="12px" height="12px" viewBox="717 1902  12 12" xmlns="http://www.w3.org/2000/svg">
  <path d="M 723 1902  C 726.36 1902  729 1904.64  729 1908  C 729 1911.36  726.36 1914  723 1914  C 719.64 1914  717 1911.36  717 1908  C 717 1904.64  719.64 1902  723 1902  Z " fill-rule="nonzero" fill="#ffffff" stroke="none" />
  <path d="M 723 1902.5  C 726.08 1902.5  728.5 1904.92  728.5 1908  C 728.5 1911.08  726.08 1913.5  723 1913.5  C 719.92 1913.5  717.5 1911.08  717.5 1908  C 717.5 1904.92  719.92 1902.5  723 1902.5  Z " stroke-width="1" stroke="#797979" fill="none" />
  <path d="M 723 1911  C 721.32 1911  720 1909.68  720 1908  C 720 1906.32  721.32 1905  723 1905  C 724.68 1905  726 1906.32  726 1908  C 726 1909.68  724.68 1911  723 1911  " fill-rule="nonzero" fill="#797979" stroke="none" />
</svg>