<?xml version="1.0" encoding="utf-8"?>
<svg version="1.1" xmlns:xlink="http://www.w3.org/1999/xlink" width="12px" height="12px" viewBox="717 1823  12 12" xmlns="http://www.w3.org/2000/svg">
  <path d="M 723 1823  C 726.36 1823  729 1825.64  729 1829  C 729 1832.36  726.36 1835  723 1835  C 719.64 1835  717 1832.36  717 1829  C 717 1825.64  719.64 1823  723 1823  Z " fill-rule="nonzero" fill="#ffffff" stroke="none" />
  <path d="M 723 1823.5  C 726.08 1823.5  728.5 1825.92  728.5 1829  C 728.5 1832.08  726.08 1834.5  723 1834.5  C 719.92 1834.5  717.5 1832.08  717.5 1829  C 717.5 1825.92  719.92 1823.5  723 1823.5  Z " stroke-width="1" stroke="#797979" fill="none" />
  <path d="M 723 1832  C 721.32 1832  720 1830.68  720 1829  C 720 1827.32  721.32 1826  723 1826  C 724.68 1826  726 1827.32  726 1829  C 726 1830.68  724.68 1832  723 1832  " fill-rule="nonzero" fill="#797979" stroke="none" />
</svg>