<?xml version="1.0" encoding="utf-8"?>
<svg version="1.1" xmlns:xlink="http://www.w3.org/1999/xlink" width="12px" height="12px" viewBox="1239 1932  12 12" xmlns="http://www.w3.org/2000/svg">
  <path d="M 1245 1932  C 1248.36 1932  1251 1934.64  1251 1938  C 1251 1941.36  1248.36 1944  1245 1944  C 1241.64 1944  1239 1941.36  1239 1938  C 1239 1934.64  1241.64 1932  1245 1932  Z " fill-rule="nonzero" fill="#ffffff" stroke="none" />
  <path d="M 1245 1932.5  C 1248.08 1932.5  1250.5 1934.92  1250.5 1938  C 1250.5 1941.08  1248.08 1943.5  1245 1943.5  C 1241.92 1943.5  1239.5 1941.08  1239.5 1938  C 1239.5 1934.92  1241.92 1932.5  1245 1932.5  Z " stroke-width="1" stroke="#797979" fill="none" />
  <path d="M 1245 1941  C 1243.32 1941  1242 1939.68  1242 1938  C 1242 1936.32  1243.32 1935  1245 1935  C 1246.68 1935  1248 1936.32  1248 1938  C 1248 1939.68  1246.68 1941  1245 1941  " fill-rule="nonzero" fill="#797979" stroke="none" />
</svg>