<?xml version="1.0" encoding="utf-8"?>
<svg version="1.1" xmlns:xlink="http://www.w3.org/1999/xlink" width="12px" height="12px" viewBox="717 2065  12 12" xmlns="http://www.w3.org/2000/svg">
  <path d="M 723 2065  C 726.36 2065  729 2067.64  729 2071  C 729 2074.36  726.36 2077  723 2077  C 719.64 2077  717 2074.36  717 2071  C 717 2067.64  719.64 2065  723 2065  Z " fill-rule="nonzero" fill="#ffffff" stroke="none" />
  <path d="M 723 2065.5  C 726.08 2065.5  728.5 2067.92  728.5 2071  C 728.5 2074.08  726.08 2076.5  723 2076.5  C 719.92 2076.5  717.5 2074.08  717.5 2071  C 717.5 2067.92  719.92 2065.5  723 2065.5  Z " stroke-width="1" stroke="#797979" fill="none" />
  <path d="M 723 2074  C 721.32 2074  720 2072.68  720 2071  C 720 2069.32  721.32 2068  723 2068  C 724.68 2068  726 2069.32  726 2071  C 726 2072.68  724.68 2074  723 2074  " fill-rule="nonzero" fill="#797979" stroke="none" />
</svg>