<?xml version="1.0" encoding="utf-8"?>
<svg version="1.1" xmlns:xlink="http://www.w3.org/1999/xlink" width="12px" height="12px" viewBox="936 2030  12 12" xmlns="http://www.w3.org/2000/svg">
  <path d="M 942 2030  C 945.36 2030  948 2032.64  948 2036  C 948 2039.36  945.36 2042  942 2042  C 938.64 2042  936 2039.36  936 2036  C 936 2032.64  938.64 2030  942 2030  Z " fill-rule="nonzero" fill="#ffffff" stroke="none" />
  <path d="M 942 2030.5  C 945.08 2030.5  947.5 2032.92  947.5 2036  C 947.5 2039.08  945.08 2041.5  942 2041.5  C 938.92 2041.5  936.5 2039.08  936.5 2036  C 936.5 2032.92  938.92 2030.5  942 2030.5  Z " stroke-width="1" stroke="#797979" fill="none" />
  <path d="M 942 2039  C 940.32 2039  939 2037.68  939 2036  C 939 2034.32  940.32 2033  942 2033  C 943.68 2033  945 2034.32  945 2036  C 945 2037.68  943.68 2039  942 2039  " fill-rule="nonzero" fill="#797979" stroke="none" />
</svg>