<?xml version="1.0" encoding="utf-8"?>
<svg version="1.1" xmlns:xlink="http://www.w3.org/1999/xlink" width="12px" height="12px" viewBox="826 2030  12 12" xmlns="http://www.w3.org/2000/svg">
  <path d="M 832 2030  C 835.36 2030  838 2032.64  838 2036  C 838 2039.36  835.36 2042  832 2042  C 828.64 2042  826 2039.36  826 2036  C 826 2032.64  828.64 2030  832 2030  Z " fill-rule="nonzero" fill="#ffffff" stroke="none" />
  <path d="M 832 2030.5  C 835.08 2030.5  837.5 2032.92  837.5 2036  C 837.5 2039.08  835.08 2041.5  832 2041.5  C 828.92 2041.5  826.5 2039.08  826.5 2036  C 826.5 2032.92  828.92 2030.5  832 2030.5  Z " stroke-width="1" stroke="#797979" fill="none" />
  <path d="M 832 2039  C 830.32 2039  829 2037.68  829 2036  C 829 2034.32  830.32 2033  832 2033  C 833.68 2033  835 2034.32  835 2036  C 835 2037.68  833.68 2039  832 2039  " fill-rule="nonzero" fill="#797979" stroke="none" />
</svg>