<?xml version="1.0" encoding="utf-8"?>
<svg version="1.1" xmlns:xlink="http://www.w3.org/1999/xlink" width="12px" height="12px" viewBox="717 2030  12 12" xmlns="http://www.w3.org/2000/svg">
  <path d="M 723 2030  C 726.36 2030  729 2032.64  729 2036  C 729 2039.36  726.36 2042  723 2042  C 719.64 2042  717 2039.36  717 2036  C 717 2032.64  719.64 2030  723 2030  Z " fill-rule="nonzero" fill="#ffffff" stroke="none" />
  <path d="M 723 2030.5  C 726.08 2030.5  728.5 2032.92  728.5 2036  C 728.5 2039.08  726.08 2041.5  723 2041.5  C 719.92 2041.5  717.5 2039.08  717.5 2036  C 717.5 2032.92  719.92 2030.5  723 2030.5  Z " stroke-width="1" stroke="#797979" fill="none" />
  <path d="M 723 2039  C 721.32 2039  720 2037.68  720 2036  C 720 2034.32  721.32 2033  723 2033  C 724.68 2033  726 2034.32  726 2036  C 726 2037.68  724.68 2039  723 2039  " fill-rule="nonzero" fill="#797979" stroke="none" />
</svg>