<?xml version="1.0" encoding="utf-8"?>
<svg version="1.1" xmlns:xlink="http://www.w3.org/1999/xlink" width="12px" height="12px" viewBox="717 2102  12 12" xmlns="http://www.w3.org/2000/svg">
  <path d="M 723 2102  C 726.36 2102  729 2104.64  729 2108  C 729 2111.36  726.36 2114  723 2114  C 719.64 2114  717 2111.36  717 2108  C 717 2104.64  719.64 2102  723 2102  Z " fill-rule="nonzero" fill="#ffffff" stroke="none" />
  <path d="M 723 2102.5  C 726.08 2102.5  728.5 2104.92  728.5 2108  C 728.5 2111.08  726.08 2113.5  723 2113.5  C 719.92 2113.5  717.5 2111.08  717.5 2108  C 717.5 2104.92  719.92 2102.5  723 2102.5  Z " stroke-width="1" stroke="#797979" fill="none" />
  <path d="M 723 2111  C 721.32 2111  720 2109.68  720 2108  C 720 2106.32  721.32 2105  723 2105  C 724.68 2105  726 2106.32  726 2108  C 726 2109.68  724.68 2111  723 2111  " fill-rule="nonzero" fill="#797979" stroke="none" />
</svg>