<?xml version="1.0" encoding="utf-8"?>
<svg version="1.1" xmlns:xlink="http://www.w3.org/1999/xlink" width="12px" height="12px" viewBox="826 2102  12 12" xmlns="http://www.w3.org/2000/svg">
  <path d="M 832 2102  C 835.36 2102  838 2104.64  838 2108  C 838 2111.36  835.36 2114  832 2114  C 828.64 2114  826 2111.36  826 2108  C 826 2104.64  828.64 2102  832 2102  Z " fill-rule="nonzero" fill="#ffffff" stroke="none" />
  <path d="M 832 2102.5  C 835.08 2102.5  837.5 2104.92  837.5 2108  C 837.5 2111.08  835.08 2113.5  832 2113.5  C 828.92 2113.5  826.5 2111.08  826.5 2108  C 826.5 2104.92  828.92 2102.5  832 2102.5  Z " stroke-width="1" stroke="#797979" fill="none" />
  <path d="M 832 2111  C 830.32 2111  829 2109.68  829 2108  C 829 2106.32  830.32 2105  832 2105  C 833.68 2105  835 2106.32  835 2108  C 835 2109.68  833.68 2111  832 2111  " fill-rule="nonzero" fill="#797979" stroke="none" />
</svg>