<?xml version="1.0" encoding="utf-8"?>
<svg version="1.1" xmlns:xlink="http://www.w3.org/1999/xlink" width="12px" height="12px" viewBox="717 2217  12 12" xmlns="http://www.w3.org/2000/svg">
  <path d="M 723 2217  C 726.36 2217  729 2219.64  729 2223  C 729 2226.36  726.36 2229  723 2229  C 719.64 2229  717 2226.36  717 2223  C 717 2219.64  719.64 2217  723 2217  Z " fill-rule="nonzero" fill="#ffffff" stroke="none" />
  <path d="M 723 2217.5  C 726.08 2217.5  728.5 2219.92  728.5 2223  C 728.5 2226.08  726.08 2228.5  723 2228.5  C 719.92 2228.5  717.5 2226.08  717.5 2223  C 717.5 2219.92  719.92 2217.5  723 2217.5  Z " stroke-width="1" stroke="#797979" fill="none" />
  <path d="M 723 2226  C 721.32 2226  720 2224.68  720 2223  C 720 2221.32  721.32 2220  723 2220  C 724.68 2220  726 2221.32  726 2223  C 726 2224.68  724.68 2226  723 2226  " fill-rule="nonzero" fill="#797979" stroke="none" />
</svg>