<?xml version="1.0" encoding="utf-8"?>
<svg version="1.1" xmlns:xlink="http://www.w3.org/1999/xlink" width="12px" height="12px" viewBox="826 2217  12 12" xmlns="http://www.w3.org/2000/svg">
  <path d="M 832 2217  C 835.36 2217  838 2219.64  838 2223  C 838 2226.36  835.36 2229  832 2229  C 828.64 2229  826 2226.36  826 2223  C 826 2219.64  828.64 2217  832 2217  Z " fill-rule="nonzero" fill="#ffffff" stroke="none" />
  <path d="M 832 2217.5  C 835.08 2217.5  837.5 2219.92  837.5 2223  C 837.5 2226.08  835.08 2228.5  832 2228.5  C 828.92 2228.5  826.5 2226.08  826.5 2223  C 826.5 2219.92  828.92 2217.5  832 2217.5  Z " stroke-width="1" stroke="#797979" fill="none" />
  <path d="M 832 2226  C 830.32 2226  829 2224.68  829 2223  C 829 2221.32  830.32 2220  832 2220  C 833.68 2220  835 2221.32  835 2223  C 835 2224.68  833.68 2226  832 2226  " fill-rule="nonzero" fill="#797979" stroke="none" />
</svg>