<?xml version="1.0" encoding="utf-8"?>
<svg version="1.1" xmlns:xlink="http://www.w3.org/1999/xlink" width="12px" height="12px" viewBox="826 2298  12 12" xmlns="http://www.w3.org/2000/svg">
  <path d="M 832 2298  C 835.36 2298  838 2300.64  838 2304  C 838 2307.36  835.36 2310  832 2310  C 828.64 2310  826 2307.36  826 2304  C 826 2300.64  828.64 2298  832 2298  Z " fill-rule="nonzero" fill="#ffffff" stroke="none" />
  <path d="M 832 2298.5  C 835.08 2298.5  837.5 2300.92  837.5 2304  C 837.5 2307.08  835.08 2309.5  832 2309.5  C 828.92 2309.5  826.5 2307.08  826.5 2304  C 826.5 2300.92  828.92 2298.5  832 2298.5  Z " stroke-width="1" stroke="#797979" fill="none" />
  <path d="M 832 2307  C 830.32 2307  829 2305.68  829 2304  C 829 2302.32  830.32 2301  832 2301  C 833.68 2301  835 2302.32  835 2304  C 835 2305.68  833.68 2307  832 2307  " fill-rule="nonzero" fill="#797979" stroke="none" />
</svg>