<?xml version="1.0" encoding="utf-8"?>
<svg version="1.1" xmlns:xlink="http://www.w3.org/1999/xlink" width="16px" height="13px" xmlns="http://www.w3.org/2000/svg">
  <g transform="matrix(1 0 0 1 -428 -417 )">
    <path d="M 7.46188340807175 9.75  L 7.96412556053812 9.75  L 9.00448430493273 8.67897727272727  L 7.64125560538117 7.27556818181818  L 6.60089686098655 8.34659090909091  L 6.60089686098655 8.86363636363637  L 7.46188340807175 8.86363636363637  L 7.46188340807175 9.75  Z M 11.9013452914798 3.40696022727273  C 12.0029895366218 3.30232007575757  12.0059790732436 3.20075757575757  11.9103139013453 3.10227272727273  C 11.8146487294469 3.00378787878788  11.7159940209268 3.00686553030303  11.6143497757848 3.11150568181818  L 8.47533632286996 6.34303977272727  C 8.37369207772795 6.44767992424242  8.37070254110613 6.54924242424242  8.46636771300448 6.64772727272727  C 8.56203288490284 6.74621212121212  8.66068759342302 6.74313446969697  8.76233183856502 6.63849431818182  L 11.9013452914798 3.40696022727273  Z M 12.4484304932735 8.31889204545455  C 12.5680119581465 8.36813446969697  12.627802690583 8.45738636363637  12.627802690583 8.58664772727273  L 12.627802690583 10.3409090909091  C 12.627802690583 11.0733901515152  12.3751868460389 11.6996922348485  11.8699551569507 12.2198153409091  C 11.3647234678625 12.7399384469697  10.7563527653214 13  10.0448430493274 13  L 2.58295964125561 13  C 1.87144992526158 13  1.26307922272048 12.7399384469697  0.757847533632287 12.2198153409091  C 0.252615844544096 11.6996922348485  0 11.0733901515152  0 10.3409090909091  L 0 2.65909090909091  C 0 1.92660984848485  0.252615844544096 1.30030776515151  0.757847533632287 0.78018465909091  C 1.26307922272048 0.260061553030302  1.87144992526158 0  2.58295964125561 0  L 10.0448430493274 0  C 10.4215246636771 0  10.7713004484305 0.0769412878787872  11.0941704035874 0.230823863636363  C 11.1838565022422 0.273910984848484  11.237668161435 0.344696969696969  11.2556053811659 0.443181818181818  C 11.2735426008969 0.547821969696969  11.2466367713004 0.637073863636363  11.1748878923767 0.7109375  L 10.7354260089686 1.16335227272727  C 10.6517189835575 1.24952651515151  10.5560538116592 1.27414772727273  10.4484304932735 1.23721590909091  C 10.3109118086697 1.20028409090909  10.1763826606876 1.18181818181818  10.0448430493274 1.18181818181818  L 2.58295964125561 1.18181818181818  C 2.18834080717489 1.18181818181818  1.85052316890882 1.3264678030303  1.5695067264574 1.61576704545455  C 1.28849028400598 1.90506628787879  1.14798206278027 2.25284090909091  1.14798206278027 2.65909090909091  L 1.14798206278027 10.3409090909091  C 1.14798206278027 10.7471590909091  1.28849028400598 11.0949337121212  1.5695067264574 11.3842329545455  C 1.85052316890882 11.6735321969697  2.18834080717489 11.8181818181818  2.58295964125561 11.8181818181818  L 10.0448430493274 11.8181818181818  C 10.4394618834081 11.8181818181818  10.7772795216741 11.6735321969697  11.0582959641256 11.3842329545455  C 11.339312406577 11.0949337121212  11.4798206278027 10.7471590909091  11.4798206278027 10.3409090909091  L 11.4798206278027 9.17755681818182  C 11.4798206278027 9.09753787878788  11.5067264573991 9.02982954545455  11.5605381165919 8.97443181818182  L 12.1345291479821 8.38352272727273  C 12.2242152466368 8.29119318181818  12.3288490284006 8.26964962121212  12.4484304932735 8.31889204545455  Z M 5.73991031390135 7.97727272727273  L 11.7668161434978 1.77272727272727  L 14.3497757847534 4.43181818181818  L 8.32286995515695 10.6363636363636  L 5.73991031390135 10.6363636363636  L 5.73991031390135 7.97727272727273  Z M 16 2.36363636363636  C 16 2.60984848484848  15.9162929745889 2.81912878787879  15.7488789237668 2.99147727272727  L 14.9237668161435 3.84090909090909  L 12.3408071748879 1.18181818181818  L 13.1659192825112 0.332386363636363  C 13.3333333333333 0.160037878787878  13.5366218236173 0.073863636363637  13.7757847533632 0.073863636363637  C 14.0149476831091 0.073863636363637  14.2182361733931 0.160037878787878  14.3856502242152 0.332386363636363  L 15.7488789237668 1.73579545454545  C 15.9162929745889 1.90814393939394  16 2.11742424242424  16 2.36363636363636  Z " fill-rule="nonzero" fill="#6a9ffb" stroke="none" transform="matrix(1 0 0 1 428 417 )" />
  </g>
</svg>