<?xml version="1.0" encoding="utf-8"?>
<svg version="1.1" xmlns:xlink="http://www.w3.org/1999/xlink" width="24px" height="24px" xmlns="http://www.w3.org/2000/svg">
  <g transform="matrix(1 0 0 1 -1836 -1217 )">
    <path d="M 19.78125 10.171875  C 19.96875 9.984375  20.0625 9.75  20.0625 9.46875  C 20.0625 9.17708333333333  19.96875 8.9375  19.78125 8.75  L 18.359375 7.34375  C 18.1614583333333 7.14583333333333  17.9270833333333 7.046875  17.65625 7.046875  C 17.3854166666667 7.046875  17.1510416666667 7.14583333333333  16.953125 7.34375  L 10.578125 13.703125  L 7.046875 10.171875  C 6.84895833333333 9.97395833333333  6.61458333333333 9.875  6.34375 9.875  C 6.07291666666667 9.875  5.83854166666667 9.97395833333333  5.640625 10.171875  L 4.21875 11.578125  C 4.03125 11.765625  3.9375 12.0052083333333  3.9375 12.296875  C 3.9375 12.578125  4.03125 12.8125  4.21875 13  L 9.875 18.65625  C 10.0729166666667 18.8541666666667  10.3072916666667 18.953125  10.578125 18.953125  C 10.859375 18.953125  11.0989583333333 18.8541666666667  11.296875 18.65625  L 19.78125 10.171875  Z M 22.390625 5.9765625  C 23.4635416666667 7.81510416666666  24 9.82291666666666  24 12  C 24 14.1770833333333  23.4635416666667 16.1848958333333  22.390625 18.0234375  C 21.3177083333333 19.8619791666667  19.8619791666667 21.3177083333333  18.0234375 22.390625  C 16.1848958333333 23.4635416666667  14.1770833333333 24  12 24  C 9.82291666666667 24  7.81510416666667 23.4635416666667  5.9765625 22.390625  C 4.13802083333333 21.3177083333333  2.68229166666667 19.8619791666667  1.609375 18.0234375  C 0.536458333333333 16.1848958333333  0 14.1770833333333  0 12  C 0 9.82291666666666  0.536458333333333 7.81510416666666  1.609375 5.9765625  C 2.68229166666667 4.13802083333333  4.13802083333333 2.68229166666666  5.9765625 1.609375  C 7.81510416666667 0.536458333333331  9.82291666666667 0  12 0  C 14.1770833333333 0  16.1848958333333 0.536458333333331  18.0234375 1.609375  C 19.8619791666667 2.68229166666666  21.3177083333333 4.13802083333333  22.390625 5.9765625  Z " fill-rule="nonzero" fill="#66cc99" stroke="none" transform="matrix(1 0 0 1 1836 1217 )" />
  </g>
</svg>