<?xml version="1.0" encoding="utf-8"?>
<svg version="1.1" xmlns:xlink="http://www.w3.org/1999/xlink" width="15px" height="16px" xmlns="http://www.w3.org/2000/svg">
  <g transform="matrix(1 0 0 1 -354 -250 )">
    <path d="M 1.15384615384615 12.2857142857143  L 1.15384615384615 14.8571428571429  L 3.75 14.8571428571429  L 3.75 12.2857142857143  L 1.15384615384615 12.2857142857143  Z M 4.32692307692308 12.2857142857143  L 4.32692307692308 14.8571428571429  L 7.21153846153846 14.8571428571429  L 7.21153846153846 12.2857142857143  L 4.32692307692308 12.2857142857143  Z M 1.15384615384615 8.85714285714286  L 1.15384615384615 11.7142857142857  L 3.75 11.7142857142857  L 3.75 8.85714285714286  L 1.15384615384615 8.85714285714286  Z M 4.32692307692308 8.85714285714286  L 4.32692307692308 11.7142857142857  L 7.21153846153846 11.7142857142857  L 7.21153846153846 8.85714285714286  L 4.32692307692308 8.85714285714286  Z M 1.15384615384615 5.71428571428571  L 1.15384615384615 8.28571428571428  L 3.75 8.28571428571428  L 3.75 5.71428571428571  L 1.15384615384615 5.71428571428571  Z M 7.78846153846154 12.2857142857143  L 7.78846153846154 14.8571428571429  L 10.6730769230769 14.8571428571429  L 10.6730769230769 12.2857142857143  L 7.78846153846154 12.2857142857143  Z M 4.32692307692308 5.71428571428571  L 4.32692307692308 8.28571428571428  L 7.21153846153846 8.28571428571428  L 7.21153846153846 5.71428571428571  L 4.32692307692308 5.71428571428571  Z M 11.25 12.2857142857143  L 11.25 14.8571428571429  L 13.8461538461538 14.8571428571429  L 13.8461538461538 12.2857142857143  L 11.25 12.2857142857143  Z M 7.78846153846154 8.85714285714286  L 7.78846153846154 11.7142857142857  L 10.6730769230769 11.7142857142857  L 10.6730769230769 8.85714285714286  L 7.78846153846154 8.85714285714286  Z M 4.52974759615385 4.20089285714286  C 4.58683894230769 4.14434523809524  4.61538461538462 4.07738095238095  4.61538461538462 4  L 4.61538461538462 1.42857142857143  C 4.61538461538462 1.35119047619048  4.58683894230769 1.28422619047619  4.52974759615385 1.22767857142857  C 4.47265625 1.17113095238095  4.40504807692308 1.14285714285714  4.32692307692308 1.14285714285714  L 3.75 1.14285714285714  C 3.671875 1.14285714285714  3.60426682692308 1.17113095238095  3.54717548076923 1.22767857142857  C 3.49008413461538 1.28422619047619  3.46153846153846 1.35119047619048  3.46153846153846 1.42857142857143  L 3.46153846153846 4  C 3.46153846153846 4.07738095238095  3.49008413461538 4.14434523809524  3.54717548076923 4.20089285714286  C 3.60426682692308 4.25744047619048  3.671875 4.28571428571429  3.75 4.28571428571429  L 4.32692307692308 4.28571428571429  C 4.40504807692308 4.28571428571429  4.47265625 4.25744047619048  4.52974759615385 4.20089285714286  Z M 11.25 8.85714285714286  L 11.25 11.7142857142857  L 13.8461538461538 11.7142857142857  L 13.8461538461538 8.85714285714286  L 11.25 8.85714285714286  Z M 7.78846153846154 5.71428571428571  L 7.78846153846154 8.28571428571428  L 10.6730769230769 8.28571428571428  L 10.6730769230769 5.71428571428571  L 7.78846153846154 5.71428571428571  Z M 11.25 5.71428571428571  L 11.25 8.28571428571428  L 13.8461538461538 8.28571428571428  L 13.8461538461538 5.71428571428571  L 11.25 5.71428571428571  Z M 11.4528245192308 4.20089285714286  C 11.5099158653846 4.14434523809524  11.5384615384615 4.07738095238095  11.5384615384615 4  L 11.5384615384615 1.42857142857143  C 11.5384615384615 1.35119047619048  11.5099158653846 1.28422619047619  11.4528245192308 1.22767857142857  C 11.3957331730769 1.17113095238095  11.328125 1.14285714285714  11.25 1.14285714285714  L 10.6730769230769 1.14285714285714  C 10.5949519230769 1.14285714285714  10.52734375 1.17113095238095  10.4702524038462 1.22767857142857  C 10.4131610576923 1.28422619047619  10.3846153846154 1.35119047619048  10.3846153846154 1.42857142857143  L 10.3846153846154 4  C 10.3846153846154 4.07738095238095  10.4131610576923 4.14434523809524  10.4702524038462 4.20089285714286  C 10.52734375 4.25744047619048  10.5949519230769 4.28571428571429  10.6730769230769 4.28571428571429  L 11.25 4.28571428571429  C 11.328125 4.28571428571429  11.3957331730769 4.25744047619048  11.4528245192308 4.20089285714286  Z M 14.6574519230769 2.625  C 14.8858173076923 2.85119047619048  15 3.11904761904762  15 3.42857142857143  L 15 14.8571428571429  C 15 15.1666666666667  14.8858173076923 15.4345238095238  14.6574519230769 15.6607142857143  C 14.4290865384615 15.8869047619048  14.1586538461538 16  13.8461538461538 16  L 1.15384615384615 16  C 0.841346153846154 16  0.570913461538462 15.8869047619048  0.342548076923077 15.6607142857143  C 0.114182692307692 15.4345238095238  0 15.1666666666667  0 14.8571428571429  L 0 3.42857142857143  C 0 3.11904761904762  0.114182692307692 2.85119047619048  0.342548076923077 2.625  C 0.570913461538462 2.39880952380952  0.841346153846154 2.28571428571429  1.15384615384615 2.28571428571429  L 2.30769230769231 2.28571428571429  L 2.30769230769231 1.42857142857143  C 2.30769230769231 1.03571428571429  2.44891826923077 0.699404761904761  2.73137019230769 0.419642857142858  C 3.01382211538462 0.139880952380953  3.35336538461538 0  3.75 0  L 4.32692307692308 0  C 4.72355769230769 0  5.06310096153846 0.139880952380953  5.34555288461538 0.419642857142858  C 5.62800480769231 0.699404761904761  5.76923076923077 1.03571428571429  5.76923076923077 1.42857142857143  L 5.76923076923077 2.28571428571429  L 9.23076923076923 2.28571428571429  L 9.23076923076923 1.42857142857143  C 9.23076923076923 1.03571428571429  9.37199519230769 0.699404761904761  9.65444711538462 0.419642857142858  C 9.93689903846154 0.139880952380953  10.2764423076923 0  10.6730769230769 0  L 11.25 0  C 11.6466346153846 0  11.9861778846154 0.139880952380953  12.2686298076923 0.419642857142858  C 12.5510817307692 0.699404761904761  12.6923076923077 1.03571428571429  12.6923076923077 1.42857142857143  L 12.6923076923077 2.28571428571429  L 13.8461538461538 2.28571428571429  C 14.1586538461538 2.28571428571429  14.4290865384615 2.39880952380952  14.6574519230769 2.625  Z " fill-rule="nonzero" fill="#333333" stroke="none" transform="matrix(1 0 0 1 354 250 )" />
  </g>
</svg>