<?xml version="1.0" encoding="utf-8"?>
<svg version="1.1" xmlns:xlink="http://www.w3.org/1999/xlink" width="12px" height="12px" viewBox="346 836  12 12" xmlns="http://www.w3.org/2000/svg">
  <path d="M 352 836  C 355.36 836  358 838.64  358 842  C 358 845.36  355.36 848  352 848  C 348.64 848  346 845.36  346 842  C 346 838.64  348.64 836  352 836  Z " fill-rule="nonzero" fill="#ffffff" stroke="none" />
  <path d="M 352 836.5  C 355.08 836.5  357.5 838.92  357.5 842  C 357.5 845.08  355.08 847.5  352 847.5  C 348.92 847.5  346.5 845.08  346.5 842  C 346.5 838.92  348.92 836.5  352 836.5  Z " stroke-width="1" stroke="#797979" fill="none" />
  <path d="M 352 845  C 350.32 845  349 843.68  349 842  C 349 840.32  350.32 839  352 839  C 353.68 839  355 840.32  355 842  C 355 843.68  353.68 845  352 845  " fill-rule="nonzero" fill="#797979" stroke="none" />
</svg>