<?xml version="1.0" encoding="utf-8"?>
<svg version="1.1" xmlns:xlink="http://www.w3.org/1999/xlink" width="20px" height="20px" xmlns="http://www.w3.org/2000/svg">
  <g transform="matrix(1 0 0 1 -208 -955 )">
    <path d="M 20 10  C 20 15.6  15.6 20  10 20  C 4.39999999999998 20  0 15.6  0 10  C 0 4.39999999999998  4.39999999999998 0  10 0  C 15.6 0  20 4.39999999999998  20 10  Z M 14.4874226439952 10.7166797991072  C 14.8438805729166 10.7166797991072  15.131948783701 10.3930363616072  15.131948783701 9.99428957589288  C 15.1319691559436 9.59545142857144  14.8439009252451 9.2718079910714  14.4874429963235 9.2718079910714  L 10.6200823360907 9.2718079910714  L 9.33103003676473 9.2718079910714  L 5.46364898437503 9.2718079910714  C 5.1078839108456 9.2718079910714  4.81918396139702 9.59545142857144  4.81918396139702 9.99428957589288  C 4.81918396139702 10.39305921875  5.10790428308826 10.7166797991072  5.46364898437503 10.7166797991072  L 9.33100966452201 10.7166797991072  L 10.6200619638481 10.7166797991072  L 14.4874226439952 10.7166797991072  Z " fill-rule="nonzero" fill="#d7d7d7" stroke="none" transform="matrix(1 0 0 1 208 955 )" />
  </g>
</svg>