<?xml version="1.0" encoding="utf-8"?>
<svg version="1.1" xmlns:xlink="http://www.w3.org/1999/xlink" width="10px" height="205px" preserveAspectRatio="xMidYMin meet" viewBox="474 55  8 205" xmlns="http://www.w3.org/2000/svg">
  <path d="M 437 255  L 473 255  A 5 5 0 0 0 478 250 L 478 65  A 5 5 0 0 1 483 60 L 498 60  " stroke-width="2" stroke-dasharray="2,2" stroke="#ff3399" fill="none" />
  <path d="M 438.5 251.5  A 3.5 3.5 0 0 0 435 255 A 3.5 3.5 0 0 0 438.5 258.5 A 3.5 3.5 0 0 0 442 255 A 3.5 3.5 0 0 0 438.5 251.5 Z M 497 67.6  L 504 60  L 497 52.4  L 497 67.6  Z " fill-rule="nonzero" fill="#ff3399" stroke="none" />
</svg>