<?xml version="1.0" encoding="utf-8"?>
<svg version="1.1" xmlns:xlink="http://www.w3.org/1999/xlink" width="20px" height="20px" xmlns="http://www.w3.org/2000/svg">
  <g transform="matrix(1 0 0 1 -273 -955 )">
    <path d="M 20 10  C 20 15.6  15.6 20  10 20  C 4.39999999999998 20  0 15.6  0 10  C 0 4.39999999999998  4.39999999999998 0  10 0  C 15.6 0  20 4.39999999999998  20 10  Z M 5.66432407924111 9.39999999999998  C 5.24176036902162 9.29373604910717  4.89920479910717 9.60994119056664  4.89920479910717 10  C 4.89920479910717 10.3900588094334  5.24176036902162 10.7062639508928  5.66432407924111 10.6  L 9.39999999999998 10.6  L 9.39999999999998 14.3361194707666  C 9.29373604910717 14.7586831809861  9.60994119056664 15.1012387509005  10 15.1012387509005  C 10.3900588094334 15.1012387509005  10.7062639508928 14.7586831809861  10.6 14.3361194707666  L 10.6 10.6  L 14.3356759207589 10.6  C 14.758376607384 10.7062639508928  15.1007952008928 10.3897758184161  15.1007952008928 10  C 15.1007952008928 9.61022418158393  14.758376607384 9.29373604910717  14.3361194707666 9.39999999999998  L 10.6 9.39999999999998  L 10.6 5.66432407924111  C 10.7062639508928 5.24162339261602  10.3897758184161 4.89920479910717  10 4.89920479910717  C 9.61022418158393 4.89920479910717  9.29373604910717 5.24162339261602  9.39999999999998 5.66432407924111  L 9.39999999999998 9.39999999999998  L 5.66432407924111 9.39999999999998  Z " fill-rule="nonzero" fill="#00d8a0" stroke="none" transform="matrix(1 0 0 1 273 955 )" />
  </g>
</svg>