<?xml version="1.0" encoding="utf-8"?>
<svg version="1.1" xmlns:xlink="http://www.w3.org/1999/xlink" width="10px" height="10px" xmlns="http://www.w3.org/2000/svg">
  <g transform="matrix(1 0 0 1 -3364 -428 )">
    <path d="M 3369 428  C 3371.8 428  3374 430.2  3374 433  C 3374 435.8  3371.8 438  3369 438  C 3366.2 438  3364 435.8  3364 433  C 3364 430.2  3366.2 428  3369 428  Z " fill-rule="nonzero" fill="#199ed8" stroke="none" />
    <path d="M 3369 428.5  C 3371.52 428.5  3373.5 430.48  3373.5 433  C 3373.5 435.52  3371.52 437.5  3369 437.5  C 3366.48 437.5  3364.5 435.52  3364.5 433  C 3364.5 430.48  3366.48 428.5  3369 428.5  Z " stroke-width="1" stroke="#797979" fill="none" />
  </g>
</svg>