<?xml version="1.0" encoding="utf-8"?>
<svg version="1.1" xmlns:xlink="http://www.w3.org/1999/xlink" width="13px" height="5px" xmlns="http://www.w3.org/2000/svg">
  <g transform="matrix(1 0 0 1 -3078 -501 )">
    <path d="M 10.5003516913232 3.86180601671003  C 9.35121592420228 4.60324994574648  7.97966676363035 4.99723895941816  6.53397981424541 4.9972389865452  C 5.0852037982047 4.9972389865452  3.71056557097745 4.60324994574648  2.55834073720098 3.85560148111995  C 1.40611590342428 3.10795301649296  0.559709424867151 2.04387239583343  0.158129733211354 0.849496202256887  C 0.0623684237866655 0.557882269965376  0.173575093500631 0.225938747830014  0.408344780584912 0.104949978298691  C 0.643114467669648 -0.016038791232404  0.911863941988031 0.123563639322811  1.01071434507958 0.415177571614549  C 1.68722169838748 2.44406597222223  3.95769157870677 3.85870374891488  6.53397981424541 3.85870374891488  C 9.10408991647273 3.85870374891488  11.3714707301363 2.44716824001716  12.0510671500997 0.424484402126836  C 12.1499175261802 0.132870469835325  12.4186670275101 -0.00362966579859858  12.6534367145946 0.117359103732724  C 12.8882064016789 0.238347873264047  12.9994130713931 0.573393663194565  12.9005626953126 0.861905300564104  C 12.4989829766455 2.05317922634549  11.6463983917884 3.12036211480017  10.5003516913232 3.86180601671003  Z " fill-rule="nonzero" fill="#25a6d7" stroke="none" transform="matrix(1 0 0 1 3078 501 )" />
  </g>
</svg>