<?xml version="1.0" encoding="utf-8"?>
<svg version="1.1" xmlns:xlink="http://www.w3.org/1999/xlink" width="27px" height="28px" xmlns="http://www.w3.org/2000/svg">
  <g transform="matrix(1 0 0 1 -3071 -484 )">
    <path d="M 27 14  C 27 21.7207951679686  20.9420370791015 28  13.5 28  C 6.05494751660171 28  0 21.7176680820312  0 14  C 0 6.2823319179688  6.05494751660171 0  13.5 0  C 20.9450524833983 0  27 6.27920483203138  27 14  Z M 25.8903283447264 14  C 25.8903283447264 6.91400491796867  20.3299084248047 1.15077060546878  13.5 1.15077060546878  C 6.66707617089855 1.15077060546878  1.10967165527359 6.91400491796867  1.10967165527359 14  C 1.10967165527359 21.0859950820313  6.66707617089855 26.8492293945312  13.5 26.8492293945312  C 20.3329238291014 26.8492293945312  25.8903283447264 21.0859950820313  25.8903283447264 14  Z " fill-rule="nonzero" fill="#25a6d7" stroke="none" transform="matrix(1 0 0 1 3071 484 )" />
  </g>
</svg>