<?xml version="1.0" encoding="utf-8"?>
<svg version="1.1" xmlns:xlink="http://www.w3.org/1999/xlink" width="366px" height="32px" xmlns="http://www.w3.org/2000/svg">
  <g transform="matrix(1 0 0 1 -11 -205 )">
    <path d="M 11 219.791133004926  C 11 219.791133004926  11 214.315270935961  11 214.315270935961  C 11 209.344708187483  15.0294372515229 205.315270935961  20 205.315270935961  C 20 205.315270935961  368 205.315270935961  368 205.315270935961  C 372.970562748477 205.315270935961  377 209.344708187483  377 214.315270935961  C 377 214.315270935961  377 219.791133004926  377 219.791133004926  C 377 224.761695753403  372.970562748477 228.791133004926  368 228.791133004926  C 368 228.791133004926  47.7181778222222 228.791133004926  47.7181778222222 228.791133004926  C 47.7181778222222 228.791133004926  40.3792881396908 236.548111658457  40.3792881396908 236.548111658457  C 40.3792881396908 236.548111658457  31.4112471291528 228.791133004926  31.4112471291528 228.791133004926  C 31.4112471291528 228.791133004926  20 228.791133004926  20 228.791133004926  C 15.0294372515229 228.791133004926  11 224.761695753403  11 219.791133004926  Z " fill-rule="nonzero" fill="#eac8f7" stroke="none" />
  </g>
</svg>