<?xml version="1.0" encoding="utf-8"?>
<svg version="1.1" xmlns:xlink="http://www.w3.org/1999/xlink" width="40px" height="45px" xmlns="http://www.w3.org/2000/svg">
  <defs>
    <filter x="1255px" y="405px" width="40px" height="45px" filterUnits="userSpaceOnUse" id="filter61">
      <feOffset dx="1" dy="1" in="SourceAlpha" result="shadowOffsetInner" />
      <feGaussianBlur stdDeviation="2.5" in="shadowOffsetInner" result="shadowGaussian" />
      <feComposite in2="shadowGaussian" operator="atop" in="SourceAlpha" result="shadowComposite" />
      <feColorMatrix type="matrix" values="0 0 0 0 0  0 0 0 0 0  0 0 0 0 0  0 0 0 0.698039215686274 0  " in="shadowComposite" />
    </filter>
    <g id="widget62">
      <path d="M 1274 409  C 1282.4 409  1289 416.7  1289 426.5  C 1289 436.3  1282.4 444  1274 444  C 1265.6 444  1259 436.3  1259 426.5  C 1259 416.7  1265.6 409  1274 409  Z " fill-rule="nonzero" fill="#ff6600" stroke="none" />
      <path d="M 1274 409.5  C 1282.12 409.5  1288.5 416.98  1288.5 426.5  C 1288.5 436.02  1282.12 443.5  1274 443.5  C 1265.88 443.5  1259.5 436.02  1259.5 426.5  C 1259.5 416.98  1265.88 409.5  1274 409.5  Z " stroke-width="1" stroke="#ffffff" fill="none" />
    </g>
  </defs>
  <g transform="matrix(1 0 0 1 -1255 -405 )">
    <use xlink:href="#widget62" filter="url(#filter61)" />
    <use xlink:href="#widget62" />
  </g>
</svg>