<?xml version="1.0" encoding="utf-8"?>
<svg version="1.1" xmlns:xlink="http://www.w3.org/1999/xlink" width="10px" height="90.0000000000001px" preserveAspectRatio="xMidYMin meet" viewBox="4010 142  8 90.0000000000001" xmlns="http://www.w3.org/2000/svg">
  <path d="M 2878.5 382  L 2878.5 152  A 5 5 0 0 1 2883.5 147.5 L 4009 147.5  A 5 5 0 0 1 4014.5 152.5 L 4014.5 222  A 5 5 0 0 0 4019.5 227.5 " stroke-width="1" stroke-dasharray="3,1" stroke="#0099ff" fill="none" />
  <path d="M 2878.5 377  A 3 3 0 0 0 2875.5 380 A 3 3 0 0 0 2878.5 383 A 3 3 0 0 0 2881.5 380 A 3 3 0 0 0 2878.5 377 Z M 4013 235  L 4024 227.5  L 4013 220  L 4013 235  Z " fill-rule="nonzero" fill="#0099ff" stroke="none" />
</svg>