<?xml version="1.0" encoding="utf-8"?>
<svg version="1.1" xmlns:xlink="http://www.w3.org/1999/xlink" width="10px" height="6px" xmlns="http://www.w3.org/2000/svg">
  <g transform="matrix(1 0 0 1 -410 -256 )">
    <path d="M 9.69883578158562 0.00408496274161507  C 9.86494244371539 0.00408496274161507  9.99968634670807 0.156194612017487  9.99999999904202 0.344063117405881  C 10.0000063781492 0.43437173593361  9.96815343798761 0.520950585194214  9.91150609323216 0.58459665976369  L 5.21276507168122 5.89893514165044  C 5.15619543108696 5.96360826695678  5.07910233146671 6  4.9986669086837 6  C 4.91823148590058 6  4.84113838628034 5.96360826695678  4.78456874568607 5.89893514165044  L 0.0886823627927237 0.584596659763633  C 0.0318999995214424 0.5203750529883  0 0.433271862070626  0 0.342448794771485  C 0 0.153319547821297  0.135559458850593 0  0.302780525790352 0  C 0.383082914032341 0  0.460096325516699 0.0360793230041168  0.51687868878798 0.100300929779394  L 5.00437618599901 5.16926291245045  L 9.48616440589462 0.103529564003111  C 9.54262048140555 0.0398471201324924  9.61910112604102 0.00408496274161507  9.69883578158562 0.00408496274161507  Z " fill-rule="nonzero" fill="#333333" stroke="none" transform="matrix(1 0 0 1 410 256 )" />
  </g>
</svg>