<?xml version="1.0" encoding="utf-8"?>
<svg version="1.1" xmlns:xlink="http://www.w3.org/1999/xlink" width="14px" height="14px" xmlns="http://www.w3.org/2000/svg">
  <g transform="matrix(1 0 0 1 -568 -1528 )">
    <path d="M 10.8463541666667 5.83333333333333  C 10.8463541666667 5.99131944444444  10.7886284722222 6.12803819444444  10.6731770833333 6.24348958333333  L 6.82682291666667 10.08984375  C 6.71137152777778 10.2052951388889  6.57465277777778 10.2630208333333  6.41666666666667 10.2630208333333  C 6.25868055555556 10.2630208333333  6.12196180555556 10.2052951388889  6.00651041666667 10.08984375  L 3.32682291666667 7.41015625  C 3.21137152777778 7.29470486111111  3.15364583333333 7.15798611111111  3.15364583333333 7  C 3.15364583333333 6.84201388888889  3.21137152777778 6.70529513888889  3.32682291666667 6.58984375  L 4.25651041666667 5.66015625  C 4.37196180555556 5.54470486111111  4.50868055555556 5.48697916666667  4.66666666666667 5.48697916666667  C 4.82465277777778 5.48697916666667  4.96137152777778 5.54470486111111  5.07682291666667 5.66015625  L 6.41666666666667 7  L 8.92317708333333 4.49348958333333  C 9.03862847222222 4.37803819444444  9.17534722222222 4.3203125  9.33333333333333 4.3203125  C 9.49131944444444 4.3203125  9.62803819444444 4.37803819444444  9.74348958333333 4.49348958333333  L 10.6731770833333 5.42317708333333  C 10.7886284722222 5.53862847222222  10.8463541666667 5.67534722222222  10.8463541666667 5.83333333333333  Z M 11.29296875 9.48828125  C 11.7365451388889 8.72873263888889  11.9583333333333 7.89930555555556  11.9583333333333 7  C 11.9583333333333 6.10069444444444  11.7365451388889 5.27126736111111  11.29296875 4.51171875  C 10.8493923611111 3.75217013888889  10.2478298611111 3.15060763888889  9.48828125 2.70703125  C 8.72873263888889 2.26345486111111  7.89930555555556 2.04166666666667  7 2.04166666666667  C 6.10069444444444 2.04166666666667  5.27126736111111 2.26345486111111  4.51171875 2.70703125  C 3.75217013888889 3.15060763888889  3.15060763888889 3.75217013888889  2.70703125 4.51171875  C 2.26345486111111 5.27126736111111  2.04166666666667 6.10069444444444  2.04166666666667 7  C 2.04166666666667 7.89930555555556  2.26345486111111 8.72873263888889  2.70703125 9.48828125  C 3.15060763888889 10.2478298611111  3.75217013888889 10.8493923611111  4.51171875 11.29296875  C 5.27126736111111 11.7365451388889  6.10069444444444 11.9583333333333  7 11.9583333333333  C 7.89930555555556 11.9583333333333  8.72873263888889 11.7365451388889  9.48828125 11.29296875  C 10.2478298611111 10.8493923611111  10.8493923611111 10.2478298611111  11.29296875 9.48828125  Z M 13.0611979166667 3.486328125  C 13.6870659722222 4.55881076388889  14 5.73003472222222  14 7  C 14 8.26996527777778  13.6870659722222 9.44118923611111  13.0611979166667 10.513671875  C 12.4353298611111 11.5861545138889  11.5861545138889 12.4353298611111  10.513671875 13.0611979166667  C 9.44118923611111 13.6870659722222  8.26996527777778 14  7 14  C 5.73003472222222 14  4.55881076388889 13.6870659722222  3.486328125 13.0611979166667  C 2.41384548611111 12.4353298611111  1.56467013888889 11.5861545138889  0.938802083333333 10.513671875  C 0.312934027777778 9.44118923611111  0 8.26996527777778  0 7  C 0 5.73003472222222  0.312934027777778 4.55881076388889  0.938802083333333 3.486328125  C 1.56467013888889 2.41384548611111  2.41384548611111 1.56467013888889  3.486328125 0.938802083333333  C 4.55881076388889 0.312934027777777  5.73003472222222 0  7 0  C 8.26996527777778 0  9.44118923611111 0.312934027777777  10.513671875 0.938802083333333  C 11.5861545138889 1.56467013888889  12.4353298611111 2.41384548611111  13.0611979166667 3.486328125  Z " fill-rule="nonzero" fill="#cccccc" stroke="none" transform="matrix(1 0 0 1 568 1528 )" />
  </g>
</svg>