<?xml version="1.0" encoding="utf-8"?>
<svg version="1.1" xmlns:xlink="http://www.w3.org/1999/xlink" width="12px" height="12px" viewBox="325 619  12 12" xmlns="http://www.w3.org/2000/svg">
  <path d="M 331 619  C 334.36 619  337 621.64  337 625  C 337 628.36  334.36 631  331 631  C 327.64 631  325 628.36  325 625  C 325 621.64  327.64 619  331 619  Z " fill-rule="nonzero" fill="#ffffff" stroke="none" />
  <path d="M 331 619.5  C 334.08 619.5  336.5 621.92  336.5 625  C 336.5 628.08  334.08 630.5  331 630.5  C 327.92 630.5  325.5 628.08  325.5 625  C 325.5 621.92  327.92 619.5  331 619.5  Z " stroke-width="1" stroke="#797979" fill="none" />
  <path d="M 331 628  C 329.32 628  328 626.68  328 625  C 328 623.32  329.32 622  331 622  C 332.68 622  334 623.32  334 625  C 334 626.68  332.68 628  331 628  " fill-rule="nonzero" fill="#797979" stroke="none" />
</svg>