<?xml version="1.0" encoding="utf-8"?>
<svg version="1.1" xmlns:xlink="http://www.w3.org/1999/xlink" width="5px" height="8px" xmlns="http://www.w3.org/2000/svg">
  <g transform="matrix(1 0 0 1 -1259 -392 )">
    <path d="M 4.84948863358403 3.88348371419028  C 4.84948863358403 3.7561240677918  4.7932396715629 3.63398728798654  4.69312984848484 3.54397240909088  L 0.918955496632975 0.150267810606067  C 0.710432630426837 -0.037286757093284  0.372486965532758 -0.037286757093284  0.163964099326577 0.150267810606067  C 0.0636775245507692 0.240150423831722  0.00730192606270919 0.362282882854402  0.00730192606270919 0.489661749999982  C 0.00730192606270919 0.617040617145562  0.0636775245507692 0.739173076168299  0.163964099326577 0.829055689393954  L 3.56038186868685 3.88348374999998  L 0.164224974747484 6.93814659848488  C 0.063938399971633 7.02802921171053  0.00756280148361554 7.15016167073321  0.00756280148361554 7.27754053787879  C 0.00756280148361554 7.40491940502437  0.063938399971633 7.52705186404705  0.164224974747484 7.61693447727271  C 0.372669385521874 7.80476924242424  0.710771961279463 7.80476924242424  0.919216380471383 7.61693447727271  L 4.69339072390574 4.22276028787877  C 4.79334096412866 4.1327644701588  4.84948863358403 4.01072831379588  4.84948863358403 3.88348371419028  Z " fill-rule="nonzero" fill="#606266" stroke="none" transform="matrix(1 0 0 1 1259 392 )" />
  </g>
</svg>