<?xml version="1.0" encoding="utf-8"?>
<svg version="1.1" xmlns:xlink="http://www.w3.org/1999/xlink" width="20px" height="20px" xmlns="http://www.w3.org/2000/svg">
  <g transform="matrix(1 0 0 1 -388 -987 )">
    <path d="M 1.66216169084817 8.64180009443686  L 8.64180009443686 8.64180009388997  L 8.64180009443686 1.66216169084817  C 8.64180009443686 0.849275755030703  9.2504311184307 0.190778459821388  10 0.190778459821388  C 10.7495688815693 0.190778459821388  11.3581999055631 0.849275755030703  11.3581999055631 1.66216169084817  L 11.3581990910494 8.64180009443686  L 18.3386912899358 8.6418000944368  C 19.1507242449692 8.6418000944368  19.8092215401786 9.2504311184307  19.8092215401786 10  C 19.8092215401786 10.7495688815693  19.1507242449692 11.3581999055632  18.3378383091518 11.3581999055632  L 11.3581999055631 11.3581999061364  L 11.3581999055631 18.3386912899358  C 11.3581999055631 19.1513138095887  10.7501130950641 19.8100745209626  10 19.8100745209626  C 9.24988690493586 19.8100745209626  8.64180009443686 19.1513138095887  8.64180009443686 18.3386912899358  L 8.64180091689258 11.3581999055632  L 1.66216169084817 11.3581999055632  C 0.849539171195374 11.3581999055632  0.190778459821445 10.7501130950641  0.190778459821445 10  C 0.190778459821445 9.24988690493586  0.849539171195374 8.64180009443686  1.66216169084817 8.64180009443686  Z " fill-rule="nonzero" fill="#868686" stroke="none" transform="matrix(1 0 0 1 388 987 )" />
  </g>
</svg>