<?xml version="1.0" encoding="utf-8"?>
<svg version="1.1" xmlns:xlink="http://www.w3.org/1999/xlink" width="8px" height="14px" xmlns="http://www.w3.org/2000/svg">
  <g transform="matrix(1 0 0 1 -76 -180 )">
    <path d="M 0.257946236083696 6.38716714399179  C -0.0859820786945559 6.7259328326019  -0.0859820786945559 7.27491566696787  0.257946236083696 7.61368135557797  L 6.49374089782586 13.7458281705682  C 6.83826811249063 14.0847239431439  7.39663123388329 14.0847239431439  7.74115844854804 13.7458281705682  C 7.90685468561885 13.5834176357875  8 13.3627342656131  8 13.1325710647752  C 8 12.9024078639373  7.90685468561885 12.6817244937629  7.74115844854804 12.5193139589821  L 2.12950360206201 7.00063638494421  L 7.74115844854804 1.4806860410179  C 7.90685468561885 1.31827550623713  8 1.09759213606273  8 0.867428935224825  C 8 0.637265734386923  7.90685468561885 0.41658236421252  7.74115844854804 0.25417182943178  C 7.39663123388329 -0.0847239431439266  6.83826811249071 -0.0847239431439266  6.49374089782586 0.25417182943178  L 0.257946236083696 6.38716714399179  Z " fill-rule="nonzero" fill="#909399" stroke="none" transform="matrix(1 0 0 1 76 180 )" />
  </g>
</svg>