<?xml version="1.0" encoding="utf-8"?>
<svg version="1.1" xmlns:xlink="http://www.w3.org/1999/xlink" width="24px" height="24px" xmlns="http://www.w3.org/2000/svg">
  <g transform="matrix(1 0 0 1 -185 -290 )">
    <path d="M 197 290  C 203.72 290  209 295.28  209 302  C 209 308.72  203.72 314  197 314  C 190.28 314  185 308.72  185 302  C 185 295.28  190.28 290  197 290  Z " fill-rule="nonzero" fill="#ffffff" stroke="none" />
    <path d="M 197 290.5  C 203.44 290.5  208.5 295.56  208.5 302  C 208.5 308.44  203.44 313.5  197 313.5  C 190.56 313.5  185.5 308.44  185.5 302  C 185.5 295.56  190.56 290.5  197 290.5  Z " stroke-width="1" stroke="#00d8a0" fill="none" />
  </g>
</svg>