<?xml version="1.0" encoding="utf-8"?>
<svg version="1.1" xmlns:xlink="http://www.w3.org/1999/xlink" width="18px" height="18px" xmlns="http://www.w3.org/2000/svg">
  <g transform="matrix(1 0 0 1 -423 -798 )">
    <path d="M 12.43359375 8.390625  C 12.64453125 8.5390625  12.75 8.7421875  12.75 9  C 12.75 9.2578125  12.64453125 9.4609375  12.43359375 9.609375  L 7.18359375 13.359375  C 6.94140625 13.5390625  6.68359375 13.55859375  6.41015625 13.41796875  C 6.13671875 13.28515625  6 13.0625  6 12.75  L 6 5.25  C 6 4.9375  6.13671875 4.71484375  6.41015625 4.58203125  C 6.68359375 4.44140625  6.94140625 4.4609375  7.18359375 4.640625  L 12.43359375 8.390625  Z M 14.89453125 14.89453125  C 14.96484375 14.82421875  15 14.734375  15 14.625  L 15 3.375  C 15 3.265625  14.96484375 3.17578125  14.89453125 3.10546875  C 14.82421875 3.03515625  14.734375 3  14.625 3  L 3.375 3  C 3.265625 3  3.17578125 3.03515625  3.10546875 3.10546875  C 3.03515625 3.17578125  3 3.265625  3 3.375  L 3 14.625  C 3 14.734375  3.03515625 14.82421875  3.10546875 14.89453125  C 3.17578125 14.96484375  3.265625 15  3.375 15  L 14.625 15  C 14.734375 15  14.82421875 14.96484375  14.89453125 14.89453125  Z M 17.009765625 0.990234375000001  C 17.669921875 1.650390625  18 2.4453125  18 3.375  L 18 14.625  C 18 15.5546875  17.669921875 16.349609375  17.009765625 17.009765625  C 16.349609375 17.669921875  15.5546875 18  14.625 18  L 3.375 18  C 2.4453125 18  1.650390625 17.669921875  0.990234375 17.009765625  C 0.330078125 16.349609375  0 15.5546875  0 14.625  L 0 3.375  C 0 2.4453125  0.330078125 1.650390625  0.990234375 0.990234375000001  C 1.650390625 0.330078124999999  2.4453125 0  3.375 0  L 14.625 0  C 15.5546875 0  16.349609375 0.330078124999999  17.009765625 0.990234375000001  Z " fill-rule="nonzero" fill="#4b8dff" stroke="none" transform="matrix(1 0 0 1 423 798 )" />
  </g>
</svg>