<?xml version="1.0" encoding="utf-8"?>
<svg version="1.1" xmlns:xlink="http://www.w3.org/1999/xlink" width="20px" height="20px" xmlns="http://www.w3.org/2000/svg">
  <g transform="matrix(1 0 0 1 -430 -351 )">
    <path d="M 440 352  C 445.04 352  449 355.96  449 361  C 449 366.04  445.04 370  440 370  C 434.96 370  431 366.04  431 361  C 431 355.96  434.96 352  440 352  Z " fill-rule="nonzero" fill="#ffffff" stroke="none" />
    <path d="M 440 352  C 445.04 352  449 355.96  449 361  C 449 366.04  445.04 370  440 370  C 434.96 370  431 366.04  431 361  C 431 355.96  434.96 352  440 352  Z " stroke-width="2" stroke="#797979" fill="none" />
  </g>
</svg>