<?xml version="1.0" encoding="utf-8"?>
<svg version="1.1" xmlns:xlink="http://www.w3.org/1999/xlink" width="12px" height="12px" viewBox="640 327  12 12" xmlns="http://www.w3.org/2000/svg">
  <path d="M 646 327  C 649.36 327  652 329.64  652 333  C 652 336.36  649.36 339  646 339  C 642.64 339  640 336.36  640 333  C 640 329.64  642.64 327  646 327  Z " fill-rule="nonzero" fill="#ffffff" stroke="none" />
  <path d="M 646 327.5  C 649.08 327.5  651.5 329.92  651.5 333  C 651.5 336.08  649.08 338.5  646 338.5  C 642.92 338.5  640.5 336.08  640.5 333  C 640.5 329.92  642.92 327.5  646 327.5  Z " stroke-width="1" stroke="#797979" fill="none" />
  <path d="M 646 336  C 644.32 336  643 334.68  643 333  C 643 331.32  644.32 330  646 330  C 647.68 330  649 331.32  649 333  C 649 334.68  647.68 336  646 336  " fill-rule="nonzero" fill="#797979" stroke="none" />
</svg>