<?xml version="1.0" encoding="utf-8"?>
<svg version="1.1" xmlns:xlink="http://www.w3.org/1999/xlink" width="12px" height="12px" viewBox="340 327  12 12" xmlns="http://www.w3.org/2000/svg">
  <path d="M 346 327  C 349.36 327  352 329.64  352 333  C 352 336.36  349.36 339  346 339  C 342.64 339  340 336.36  340 333  C 340 329.64  342.64 327  346 327  Z " fill-rule="nonzero" fill="#ffffff" stroke="none" />
  <path d="M 346 327.5  C 349.08 327.5  351.5 329.92  351.5 333  C 351.5 336.08  349.08 338.5  346 338.5  C 342.92 338.5  340.5 336.08  340.5 333  C 340.5 329.92  342.92 327.5  346 327.5  Z " stroke-width="1" stroke="#797979" fill="none" />
  <path d="M 346 336  C 344.32 336  343 334.68  343 333  C 343 331.32  344.32 330  346 330  C 347.68 330  349 331.32  349 333  C 349 334.68  347.68 336  346 336  " fill-rule="nonzero" fill="#797979" stroke="none" />
</svg>