<?xml version="1.0" encoding="utf-8"?>
<svg version="1.1" xmlns:xlink="http://www.w3.org/1999/xlink" width="12px" height="12px" viewBox="714 316  12 12" xmlns="http://www.w3.org/2000/svg">
  <path d="M 720 316  C 723.36 316  726 318.64  726 322  C 726 325.36  723.36 328  720 328  C 716.64 328  714 325.36  714 322  C 714 318.64  716.64 316  720 316  Z " fill-rule="nonzero" fill="#ffffff" stroke="none" />
  <path d="M 720 316.5  C 723.08 316.5  725.5 318.92  725.5 322  C 725.5 325.08  723.08 327.5  720 327.5  C 716.92 327.5  714.5 325.08  714.5 322  C 714.5 318.92  716.92 316.5  720 316.5  Z " stroke-width="1" stroke="#797979" fill="none" />
  <path d="M 720 325  C 718.32 325  717 323.68  717 322  C 717 320.32  718.32 319  720 319  C 721.68 319  723 320.32  723 322  C 723 323.68  721.68 325  720 325  " fill-rule="nonzero" fill="#797979" stroke="none" />
</svg>