<?xml version="1.0" encoding="utf-8"?>
<svg version="1.1" xmlns:xlink="http://www.w3.org/1999/xlink" width="12px" height="12px" viewBox="814 316  12 12" xmlns="http://www.w3.org/2000/svg">
  <path d="M 820 316  C 823.36 316  826 318.64  826 322  C 826 325.36  823.36 328  820 328  C 816.64 328  814 325.36  814 322  C 814 318.64  816.64 316  820 316  Z " fill-rule="nonzero" fill="#ffffff" stroke="none" />
  <path d="M 820 316.5  C 823.08 316.5  825.5 318.92  825.5 322  C 825.5 325.08  823.08 327.5  820 327.5  C 816.92 327.5  814.5 325.08  814.5 322  C 814.5 318.92  816.92 316.5  820 316.5  Z " stroke-width="1" stroke="#797979" fill="none" />
  <path d="M 820 325  C 818.32 325  817 323.68  817 322  C 817 320.32  818.32 319  820 319  C 821.68 319  823 320.32  823 322  C 823 323.68  821.68 325  820 325  " fill-rule="nonzero" fill="#797979" stroke="none" />
</svg>