<?xml version="1.0" encoding="utf-8"?>
<svg version="1.1" xmlns:xlink="http://www.w3.org/1999/xlink" width="108.076923076923px" height="10px" preserveAspectRatio="xMinYMid meet" viewBox="2880 594  108.076923076923 8" xmlns="http://www.w3.org/2000/svg">
  <path d="M 2881 598.5  L 2978.07692307692 598.5  A 5 5 0 0 1 2983.57692307692 603.5 L 2983.57692307692 776  A 5 5 0 0 0 2988.57692307692 781.5 L 3006 781.5  " stroke-width="1" stroke-dasharray="3,1" stroke="#0099ff" fill="none" />
  <path d="M 2883 595.5  A 3 3 0 0 0 2880 598.5 A 3 3 0 0 0 2883 601.5 A 3 3 0 0 0 2886 598.5 A 3 3 0 0 0 2883 595.5 Z M 3006 789  L 3017 781.5  L 3006 774  L 3006 789  Z " fill-rule="nonzero" fill="#0099ff" stroke="none" />
</svg>