<?xml version="1.0" encoding="utf-8"?>
<svg version="1.1" xmlns:xlink="http://www.w3.org/1999/xlink" width="18px" height="18px" preserveAspectRatio="xMinYMid meet" viewBox="3242 1043  18 16" xmlns="http://www.w3.org/2000/svg">
  <path d="M 3249 1051.5  L 3331.25 1051.5  A 5 5 0 0 0 3336.75 1046.5 L 3336.75 555  A 5 5 0 0 1 3341.75 550.5 L 3563 550.5  " stroke-width="1" stroke-dasharray="3,1" stroke="#0099ff" fill="none" />
  <path d="M 3251 1048.5  A 3 3 0 0 0 3248 1051.5 A 3 3 0 0 0 3251 1054.5 A 3 3 0 0 0 3254 1051.5 A 3 3 0 0 0 3251 1048.5 Z M 3562 556.8  L 3568 550.5  L 3562 544.2  L 3562 556.8  Z " fill-rule="nonzero" fill="#0099ff" stroke="none" />
</svg>