<?xml version="1.0" encoding="utf-8"?>
<svg version="1.1" xmlns:xlink="http://www.w3.org/1999/xlink" width="18px" height="18px" preserveAspectRatio="xMinYMid meet" viewBox="3391 773  18 16" xmlns="http://www.w3.org/2000/svg">
  <path d="M 3398 781.5  L 3471.92307692308 781.5  A 5 5 0 0 1 3477.42307692308 786.5 L 3477.42307692308 1378  A 5 5 0 0 0 3482.42307692308 1383.5 L 3563 1383.5  " stroke-width="1" stroke-dasharray="3,1" stroke="#0099ff" fill="none" />
  <path d="M 3400 778.5  A 3 3 0 0 0 3397 781.5 A 3 3 0 0 0 3400 784.5 A 3 3 0 0 0 3403 781.5 A 3 3 0 0 0 3400 778.5 Z M 3562 1389.8  L 3568 1383.5  L 3562 1377.2  L 3562 1389.8  Z " fill-rule="nonzero" fill="#0099ff" stroke="none" />
</svg>