<?xml version="1.0" encoding="utf-8"?>
<svg version="1.1" xmlns:xlink="http://www.w3.org/1999/xlink" width="135.076923076923px" height="10px" preserveAspectRatio="xMinYMid meet" viewBox="2855 983  135.076923076923 8" xmlns="http://www.w3.org/2000/svg">
  <path d="M 2856 987.5  L 2980.07692307692 987.5  A 5 5 0 0 1 2985.57692307692 992.5 L 2985.57692307692 1432  A 5 5 0 0 0 2990.57692307692 1437.5 L 3006 1437.5  " stroke-width="1" stroke-dasharray="3,1" stroke="#0099ff" fill="none" />
  <path d="M 2858 984.5  A 3 3 0 0 0 2855 987.5 A 3 3 0 0 0 2858 990.5 A 3 3 0 0 0 2861 987.5 A 3 3 0 0 0 2858 984.5 Z M 3006 1445  L 3017 1437.5  L 3006 1430  L 3006 1445  Z " fill-rule="nonzero" fill="#0099ff" stroke="none" />
</svg>