<?xml version="1.0" encoding="utf-8"?>
<svg version="1.1" xmlns:xlink="http://www.w3.org/1999/xlink" width="18px" height="18px" preserveAspectRatio="xMinYMid meet" viewBox="2849 1357  18 16" xmlns="http://www.w3.org/2000/svg">
  <path d="M 2856 1365.5  L 2949 1365.5  A 5 5 0 0 1 2954.5 1370.5 L 2954.5 1432  A 5 5 0 0 0 2959.5 1437.5 L 3012 1437.5  " stroke-width="1" stroke-dasharray="3,1" stroke="#0099ff" fill="none" />
  <path d="M 2858 1362.5  A 3 3 0 0 0 2855 1365.5 A 3 3 0 0 0 2858 1368.5 A 3 3 0 0 0 2861 1365.5 A 3 3 0 0 0 2858 1362.5 Z M 3011 1443.8  L 3017 1437.5  L 3011 1431.2  L 3011 1443.8  Z " fill-rule="nonzero" fill="#0099ff" stroke="none" />
</svg>