<?xml version="1.0" encoding="utf-8"?>
<svg version="1.1" xmlns:xlink="http://www.w3.org/1999/xlink" width="50px" height="50px" xmlns="http://www.w3.org/2000/svg">
  <g transform="matrix(1 0 0 1 -806 -731 )">
    <path d="M 831 731  C 845 731  856 742  856 756  C 856 770  845 781  831 781  C 817 781  806 770  806 756  C 806 742  817 731  831 731  Z " fill-rule="nonzero" fill="#ffffff" stroke="none" />
    <path d="M 831 731.5  C 844.72 731.5  855.5 742.28  855.5 756  C 855.5 769.72  844.72 780.5  831 780.5  C 817.28 780.5  806.5 769.72  806.5 756  C 806.5 742.28  817.28 731.5  831 731.5  Z " stroke-width="1" stroke="#797979" fill="none" />
  </g>
</svg>