<?xml version="1.0" encoding="utf-8"?>
<svg version="1.1" xmlns:xlink="http://www.w3.org/1999/xlink" width="12px" height="12px" viewBox="640 194  12 12" xmlns="http://www.w3.org/2000/svg">
  <path d="M 646 194  C 649.36 194  652 196.64  652 200  C 652 203.36  649.36 206  646 206  C 642.64 206  640 203.36  640 200  C 640 196.64  642.64 194  646 194  Z " fill-rule="nonzero" fill="#ffffff" stroke="none" />
  <path d="M 646 194.5  C 649.08 194.5  651.5 196.92  651.5 200  C 651.5 203.08  649.08 205.5  646 205.5  C 642.92 205.5  640.5 203.08  640.5 200  C 640.5 196.92  642.92 194.5  646 194.5  Z " stroke-width="1" stroke="#797979" fill="none" />
  <path d="M 646 203  C 644.32 203  643 201.68  643 200  C 643 198.32  644.32 197  646 197  C 647.68 197  649 198.32  649 200  C 649 201.68  647.68 203  646 203  " fill-rule="nonzero" fill="#797979" stroke="none" />
</svg>