<?xml version="1.0" encoding="utf-8"?>
<svg version="1.1" xmlns:xlink="http://www.w3.org/1999/xlink" width="38px" height="38px" xmlns="http://www.w3.org/2000/svg">
  <g transform="matrix(1 0 0 1 -396 -444 )">
    <path d="M 9.462890625 2.54817708333333  C 12.3739149305556 0.849392361111108  15.5529513888889 0  19 0  C 22.4470486111111 0  25.6260850694445 0.849392361111108  28.537109375 2.54817708333333  C 31.4481336805556 4.24696180555555  33.7530381944445 6.55186631944444  35.4518229166667 9.462890625  C 37.1506076388889 12.3739149305556  38 15.5529513888889  38 19  C 38 22.4470486111111  37.1506076388889 25.6260850694444  35.4518229166667 28.537109375  C 33.7530381944445 31.4481336805556  31.4481336805556 33.7530381944444  28.537109375 35.4518229166667  C 25.6260850694445 37.1506076388889  22.4470486111111 38  19 38  C 15.5529513888889 38  12.3739149305556 37.1506076388889  9.462890625 35.4518229166667  C 6.55186631944444 33.7530381944444  4.24696180555556 31.4481336805556  2.54817708333333 28.537109375  C 0.849392361111111 25.6260850694444  0 22.4470486111111  0 19  C 0 15.5529513888889  0.849392361111111 12.3739149305556  2.54817708333333 9.462890625  C 4.24696180555556 6.55186631944444  6.55186631944444 4.24696180555555  9.462890625 2.54817708333333  Z M 15.0416666666667 28.27734375  L 28.5 20.3606770833333  C 29.0277777777778 20.0638020833333  29.2916666666667 19.6102430555556  29.2916666666667 19  C 29.2916666666667 18.3897569444444  29.0277777777778 17.9361979166667  28.5 17.6393229166667  L 15.0416666666667 9.72265625  C 14.5303819444444 9.40928819444444  14.0026041666667 9.40104166666667  13.4583333333333 9.69791666666667  C 12.9305555555556 10.0112847222222  12.6666666666667 10.4730902777778  13 11.0833333333333  L 13 26.9166666666667  C 12.6666666666667 27.5269097222222  12.9305555555556 27.9887152777778  13.4583333333333 28.3020833333333  C 13.7222222222222 28.4340277777778  13.9861111111111 28.5  14.25 28.5  C 14.5303819444444 28.5  14.7942708333333 28.42578125  15.0416666666667 28.27734375  Z " fill-rule="nonzero" fill="#7f7f7f" stroke="none" transform="matrix(1 0 0 1 396 444 )" />
  </g>
</svg>