<?xml version="1.0" encoding="utf-8"?>
<svg version="1.1" xmlns:xlink="http://www.w3.org/1999/xlink" width="12px" height="12px" viewBox="740 194  12 12" xmlns="http://www.w3.org/2000/svg">
  <path d="M 746 194  C 749.36 194  752 196.64  752 200  C 752 203.36  749.36 206  746 206  C 742.64 206  740 203.36  740 200  C 740 196.64  742.64 194  746 194  Z " fill-rule="nonzero" fill="#ffffff" stroke="none" />
  <path d="M 746 194.5  C 749.08 194.5  751.5 196.92  751.5 200  C 751.5 203.08  749.08 205.5  746 205.5  C 742.92 205.5  740.5 203.08  740.5 200  C 740.5 196.92  742.92 194.5  746 194.5  Z " stroke-width="1" stroke="#797979" fill="none" />
  <path d="M 746 203  C 744.32 203  743 201.68  743 200  C 743 198.32  744.32 197  746 197  C 747.68 197  749 198.32  749 200  C 749 201.68  747.68 203  746 203  " fill-rule="nonzero" fill="#797979" stroke="none" />
</svg>