<?xml version="1.0" encoding="utf-8"?>
<svg version="1.1" xmlns:xlink="http://www.w3.org/1999/xlink" width="12px" height="12px" viewBox="440 225  12 12" xmlns="http://www.w3.org/2000/svg">
  <path d="M 446 225  C 449.36 225  452 227.64  452 231  C 452 234.36  449.36 237  446 237  C 442.64 237  440 234.36  440 231  C 440 227.64  442.64 225  446 225  Z " fill-rule="nonzero" fill="#ffffff" stroke="none" />
  <path d="M 446 225.5  C 449.08 225.5  451.5 227.92  451.5 231  C 451.5 234.08  449.08 236.5  446 236.5  C 442.92 236.5  440.5 234.08  440.5 231  C 440.5 227.92  442.92 225.5  446 225.5  Z " stroke-width="1" stroke="#797979" fill="none" />
  <path d="M 446 234  C 444.32 234  443 232.68  443 231  C 443 229.32  444.32 228  446 228  C 447.68 228  449 229.32  449 231  C 449 232.68  447.68 234  446 234  " fill-rule="nonzero" fill="#797979" stroke="none" />
</svg>