<?xml version="1.0" encoding="utf-8"?>
<svg version="1.1" xmlns:xlink="http://www.w3.org/1999/xlink" width="12px" height="12px" viewBox="540 194  12 12" xmlns="http://www.w3.org/2000/svg">
  <path d="M 546 194  C 549.36 194  552 196.64  552 200  C 552 203.36  549.36 206  546 206  C 542.64 206  540 203.36  540 200  C 540 196.64  542.64 194  546 194  Z " fill-rule="nonzero" fill="#ffffff" stroke="none" />
  <path d="M 546 194.5  C 549.08 194.5  551.5 196.92  551.5 200  C 551.5 203.08  549.08 205.5  546 205.5  C 542.92 205.5  540.5 203.08  540.5 200  C 540.5 196.92  542.92 194.5  546 194.5  Z " stroke-width="1" stroke="#797979" fill="none" />
  <path d="M 546 203  C 544.32 203  543 201.68  543 200  C 543 198.32  544.32 197  546 197  C 547.68 197  549 198.32  549 200  C 549 201.68  547.68 203  546 203  " fill-rule="nonzero" fill="#797979" stroke="none" />
</svg>