<?xml version="1.0" encoding="utf-8"?>
<svg version="1.1" xmlns:xlink="http://www.w3.org/1999/xlink" width="12px" height="12px" viewBox="640 225  12 12" xmlns="http://www.w3.org/2000/svg">
  <path d="M 646 225  C 649.36 225  652 227.64  652 231  C 652 234.36  649.36 237  646 237  C 642.64 237  640 234.36  640 231  C 640 227.64  642.64 225  646 225  Z " fill-rule="nonzero" fill="#ffffff" stroke="none" />
  <path d="M 646 225.5  C 649.08 225.5  651.5 227.92  651.5 231  C 651.5 234.08  649.08 236.5  646 236.5  C 642.92 236.5  640.5 234.08  640.5 231  C 640.5 227.92  642.92 225.5  646 225.5  Z " stroke-width="1" stroke="#797979" fill="none" />
  <path d="M 646 234  C 644.32 234  643 232.68  643 231  C 643 229.32  644.32 228  646 228  C 647.68 228  649 229.32  649 231  C 649 232.68  647.68 234  646 234  " fill-rule="nonzero" fill="#797979" stroke="none" />
</svg>