<?xml version="1.0" encoding="utf-8"?>
<svg version="1.1" xmlns:xlink="http://www.w3.org/1999/xlink" width="12px" height="12px" viewBox="440 194  12 12" xmlns="http://www.w3.org/2000/svg">
  <path d="M 446 194  C 449.36 194  452 196.64  452 200  C 452 203.36  449.36 206  446 206  C 442.64 206  440 203.36  440 200  C 440 196.64  442.64 194  446 194  Z " fill-rule="nonzero" fill="#ffffff" stroke="none" />
  <path d="M 446 194.5  C 449.08 194.5  451.5 196.92  451.5 200  C 451.5 203.08  449.08 205.5  446 205.5  C 442.92 205.5  440.5 203.08  440.5 200  C 440.5 196.92  442.92 194.5  446 194.5  Z " stroke-width="1" stroke="#797979" fill="none" />
  <path d="M 446 203  C 444.32 203  443 201.68  443 200  C 443 198.32  444.32 197  446 197  C 447.68 197  449 198.32  449 200  C 449 201.68  447.68 203  446 203  " fill-rule="nonzero" fill="#797979" stroke="none" />
</svg>