<?xml version="1.0" encoding="utf-8"?>
<svg version="1.1" xmlns:xlink="http://www.w3.org/1999/xlink" width="25px" height="23px" xmlns="http://www.w3.org/2000/svg">
  <g transform="matrix(1 0 0 1 -344 -93 )">
    <path d="M 0.0498046874999209 8.87607020547946  C 0.0498046874999209 13.7190530489363  3.16501089595299 17.6450663527397  7.00781249999992 17.6450663527397  C 10.8506141040474 17.6450663527397  13.9658203124999 13.7190530489363  13.9658203124999 8.87607020547946  C 13.9658203124999 4.03308736202261  10.8506141040474 0.107074058219189  7.00781249999992 0.107074058219189  C 3.16501089595299 0.107074058219189  0.0498046874999209 4.03308736202261  0.0498046874999209 8.87607020547946  Z M 14.3369140625 2.37778262994977  C 14.3369140625 3.63186029257121  15.1435885122678 4.64849110597717  16.1386718749999 4.64849110597717  C 17.1337552377321 4.64849110597717  17.9404296875003 3.63186029257121  17.9404296875003 2.37778262994977  C 17.9404296875003 1.12370477592193  17.1337552377321 0.107073962515975  16.1386718749999 0.107073962515975  C 15.1435885122678 0.107073962515975  14.3369140625 1.12370477592193  14.3369140625 2.37778243854334  Z M 19.1953125 19.152718473383  C 19.1953125 21.1374917930875  20.4720005180607 22.746468473383  22.0468749999999 22.746468473383  C 23.6217494819396 22.746468473383  24.8984375000003 21.1374917930875  24.8984375000003 19.152718473383  C 24.8984375000003 17.1679448507482  23.6217494819396 15.5589681704526  22.0468749999999 15.5589681704526  C 20.4720005180607 15.5589681704526  19.1953125 17.1679448507482  19.1953125 19.1527181704526  Z " fill-rule="nonzero" fill="#ffffff" stroke="none" transform="matrix(1 0 0 1 344 93 )" />
  </g>
</svg>