<?xml version="1.0" encoding="utf-8"?>
<svg version="1.1" xmlns:xlink="http://www.w3.org/1999/xlink" width="8px" height="6px" xmlns="http://www.w3.org/2000/svg">
  <g transform="matrix(1 0 0 1 -354 -120 )">
    <path d="M 7.9903017241382 1.17333984375  C 7.8125 3.919921875  6.14762931034472 5.9853515625  4.12715517241356 5.9853515625  C 2.1120689655176 5.9853515625  0.4471982758618 3.919921875  0.2532327586206 1.17333984375  C 0.2316810344824 0.88037109375  0.30172413793116 0.58740234375  0.4471982758618 0.375  C 0.59267241379296 0.1552734375  0.79741379310352 0.03076171875  1.0129310344824 0.03076171875  L 7.23060344827588 0.03076171875  C 7.44612068965528 0.03076171875  7.65086206896584 0.1552734375  7.79633620689648 0.375  C 7.94181034482764 0.5947265625  8.01185344827588 0.88037109375  7.9903017241382 1.17333984375  Z M 6.23383620689648 2.1181640625  L 2.02047413793116 2.1181640625  C 2.40840517241356 3.18017578125  3.2058189655176 3.89794921875  4.12715517241356 3.89794921875  C 5.04849137931056 3.89794921875  5.84590517241356 3.1875  6.23383620689648 2.1181640625  Z " fill-rule="nonzero" fill="#ffffff" stroke="none" transform="matrix(1 0 0 1 354 120 )" />
  </g>
</svg>