<?xml version="1.0" encoding="utf-8"?>
<svg version="1.1" xmlns:xlink="http://www.w3.org/1999/xlink" width="22px" height="27px" xmlns="http://www.w3.org/2000/svg">
  <g transform="matrix(1 0 0 1 -347 -93 )">
    <path d="M 21.8371184593023 23.5645483993903  C 21.8321220930234 25.4359756097561  20.6529796511631 26.9601276676829  19.1990370639538 27  L 2.73101380813973 27  C 1.27707122093038 26.9601276676829  0.0929324127906511 25.4359756097561  0.0929324127906511 23.5645483993903  C 0.0929324127906511 21.9246379573171  1.0022710755813 20.5483993902439  2.2063953488369 20.2397103658537  L 2.2063953488369 13.2106040396342  C 2.2063953488369 8.08508003048781  4.82449127906962 3.69912347560975  8.62672601744207 2.35504001524392  C 9.00145348837195 1.1395769817073  9.91578851744207 0.309975228658526  10.9650254360462 0.309975228658526  C 12.009265988372 0.309975228658526  12.928597383721 1.1395769817073  13.3033248546514 2.35504001524392  C 17.1055595930234 3.69912347560975  19.7236555232556 8.08508003048781  19.7236555232556 13.2106040396342  L 19.7236555232556 20.2397103658537  C 20.9277797965117 20.5548304115854  21.8371184593023 21.9246379573171  21.8371184593023 23.5645483993903  Z M 2.91088299418598 22.0082412347561  L 2.73101380813973 22.0082412347561  C 2.06150072674441 22.0082412347561  1.51689680232521 22.7092225609756  1.51689680232521 23.5709794207317  C 1.51689680232521 24.4327362804878  2.06150072674441 25.1337176067073  2.73101380813973 25  L 19.1990370639538 25  C 19.8685501453486 25.1337176067073  20.4131540697673 24.4327362804878  20.4131540697673 23.5709794207317  C 20.4131540697673 22.7092225609756  19.8685501453486 22.0082412347561  19.1990370639538 22.0082412347561  L 19.0091751453486 22.0082412347561  C 18.6144622093023 22.0082412347561  18.2946947674421 21.5966558689024  18.2946947674421 21.0886051829268  L 18.2946947674421 13.2106040396342  C 18.2946947674421 8.76676829268295  15.94140625 4.98532774390245  12.573855377907 4.0078125  C 12.294058866279 3.92420922256097  12.0842114825579 3.64124428353658  12.0292514534883 3.28110708841464  C 11.934320494186 2.61871189024392  11.4846475290696 2.13638528963417  10.9600290697673 2.13638528963417  C 10.4354106104654 2.13638528963417  9.98573764534858 2.61871189024392  9.89080668604624 3.28110708841464  C 9.83584665697663 3.64124428353658  9.62599927325559 3.92420922256097  9.34620276162805 4.0078125  C 6.03361191860467 4.96603467987806  3.62536337209299 8.83750952743903  3.62536337209299 13.2106040396342  L 3.62536337209299 21.0886051829268  C 3.62536337209299 21.5966558689024  3.30559593023272 22.0082412347561  2.91088299418598 22.0082412347561  Z " fill-rule="nonzero" fill="#ffffff" stroke="none" transform="matrix(1 0 0 1 347 93 )" />
  </g>
</svg>