<?xml version="1.0" encoding="utf-8"?>
<svg version="1.1" xmlns:xlink="http://www.w3.org/1999/xlink" width="26px" height="26px" xmlns="http://www.w3.org/2000/svg">
  <g transform="matrix(1 0 0 1 -344 -148 )">
    <path d="M 7.85588067317692 11.0807227164714  C 7.86138073352405 9.08224635881095  9.48009893335509 7.46352815897993  11.47857529069 7.45802809863278  C 12.022050993815 7.45802809863278  12.3838913919273 7.09618770084631  12.3838913925781 6.55271199772136  C 12.3838913932293 6.00923629459634  12.0220509947916 5.64739589648434  11.47857529069 5.64739589583335  C 8.48141817461372 5.65603668354557  6.05388925776416 8.08356560039496  6.04524847005206 11.0807227164714  C 6.04524847005206 11.6241984195964  6.40708886783875 11.9860388177083  6.95056457161473 11.9860388180338  C 7.49404027539047 11.9860388183594  7.85588067285153 11.6227682073567  7.85588067317692 11.0807227164714  Z M 4.23461626725259 11.0807227167969  C 4.23461626725259 7.09618770052085  7.49547048730462 3.8353335055339  11.47857529069 3.83533348014321  C 12.022050993815 3.83533348014321  12.3838913919273 3.47349308235674  12.3838913925781 2.93001737923179  C 12.3838913932293 2.38654167610677  12.0220509947916 2.02470127799477  11.47857529069 2.02470127766924  C 6.49862161425763 2.02470127766924  2.4225538763021 6.10076903971353  2.42255387727852 11.0807227164714  C 2.42255387727852 11.6241984195964  2.78582448795578 11.9860388177083  3.3293001660158 11.9860388180338  C 3.87277584407533 11.9860388183594  4.23461626725259 11.6227682073567  4.23461626725259 11.0807227167969  Z M 9.93825073990863 17.509468172526  L 8.30925384212228 16.0606763681641  C 7.31383518164072 15.0638275201823  5.77351063085935 14.9737249615885  4.6865592246092 15.8790410875651  L 1.15539735253907 18.6865221383463  C -0.0216566132812469 19.5918382395833  -0.203291893229183 21.3123678834635  0.702024208658884 22.4908520364583  C 0.793556955078012 22.5809545953776  0.793556955078012 22.6710571292317  0.883659514323028 22.6710571546224  L 3.3293001660158 25.1166978066406  C 5.68340807226561 27.4708057128906  12.0220509944662 24.1198489589844  18.088956052409 18.0515136888021  C 24.1558611354169 11.9860388180338  27.4167153300781 5.73892864225259  25.152709983073 3.38482073567708  L 22.7070693300782 0.939180083658842  C 21.6201179235027 -0.147771322916662  19.8995882796223 -0.147771322916662  18.9041696201172 0.939180083658842  L 18.7225343144531 1.11938517610682  L 15.9150532636718 4.65197723567709  C 15.009737162435 5.73749842968749  15.0998397213541 7.27639279361976  16.0966885696613 8.27324164095056  L 17.6370131207683 9.8121360045573  C 16.6401642731122 11.4425631145833  15.5532128665366 12.8913549192709  14.2860563414713 14.1599416315104  C 13.0174696298829 15.4270981311849  11.5686778248696 16.5126193499349  9.93825073990863 17.509468172526  Z M 5.86504337727873 17.327832867513  L 5.86361319042951 17.327832867513  C 6.22688380110678 17.0560950283203  6.77035950390634 17.0560950283203  7.04209734277341 17.4193656389974  L 9.12446738509122 19.4116331474609  C 9.41317444554913 19.6936382633683  9.84715249828508 19.7655872526395  10.2114187919922 19.5918382399089  C 12.1723748648171 18.5243436876075  13.9710794061172 17.1826593903978  15.5532128665366 15.6073032236328  C 17.1285394443187 14.0251442304483  18.4702204096983 12.2264441442968  19.5377478570963 10.2655091490885  C 19.7111296175991 9.90095175732276  19.6386033838063 9.46693646085483  19.3561125768228 9.17855776757814  L 17.2737425097657 7.09618770019532  C 16.9119021119792 6.73291708951828  16.9119021119792 6.2809741578776  17.1836399508463 5.91770354752603  L 20.0812235602213 2.3865416757813  C 20.0812235602213 2.3865416757813  20.0812235602213 2.29643911653647  20.1713261197917 2.29643914127604  C 20.3365571585098 2.12267658531401  20.5658389050422 2.02430759686584  20.8056194755859 2.02430759686584  C 21.0454000461299 2.02430759686584  21.274681792662 2.12267658531401  21.4399128313804 2.29643914127604  L 23.8855534840493 4.74207979459639  C 25.0611772373047 5.91770354785156  22.0734910686847 11.5326656738281  16.8203693655598 16.8758899355469  C 11.5686778496094 22.2176840100912  5.86504337727873 25.1152676194661  4.6865592246092 23.9382136539713  L 2.15081601334651 21.4039006298829  C 1.87907817415356 21.0406300192057  1.87907817415356 20.4070517822265  2.33245131835914 20.1353139427083  L 5.86504337727873 17.327832867513  Z " fill-rule="nonzero" fill="#ffffff" stroke="none" transform="matrix(1 0 0 1 344 148 )" />
  </g>
</svg>