<?xml version="1.0" encoding="utf-8"?>
<svg version="1.1" xmlns:xlink="http://www.w3.org/1999/xlink" width="14px" height="14px" xmlns="http://www.w3.org/2000/svg">
  <g transform="matrix(1 0 0 1 -167 -841 )">
    <path d="M 13.8108108108108 7  C 13.8108108108108 3.13425  10.7612702702703 0  7 0  C 3.23830405405405 0  0.189189189189189 3.13425  0.189189189189189 7  C 0.189189189189189 10.8661875  3.23830405405405 14  7 14  C 10.7612702702703 14  13.8108108108108 10.8661875  13.8108108108108 7  Z M 11.2499459459459 4.8619375  L 11.2499459459459 9.7755  C 11.2499459459459 10.052875  11.0311486486486 10.2773125  10.7621216216216 10.2773125  L 3.23787837837838 10.2773125  C 2.96842567567568 10.2773125  2.74962837837838 10.0524375  2.74962837837838 9.7755  L 2.74962837837838 4.862375  C 2.74962837837838 4.585  2.96885135135135 4.3605625  3.23787837837838 4.3605625  L 5.31006756756757 4.3605625  L 5.31006756756757 4.2800625  C 5.31006756756757 3.8364375  5.6595472972973 3.476375  6.09118243243243 3.476375  L 7.90839189189189 3.476375  C 8.34002702702703 3.476375  8.68993243243243 3.8364375  8.68993243243243 4.2800625  L 8.68993243243243 4.360125  L 10.7621216216216 4.360125  C 11.0315743243243 4.360125  11.2499459459459 4.585  11.2499459459459 4.8619375  Z " fill-rule="nonzero" fill="#64a3b2" stroke="none" transform="matrix(1 0 0 1 167 841 )" />
  </g>
</svg>