<?xml version="1.0" encoding="utf-8"?>
<svg version="1.1" xmlns:xlink="http://www.w3.org/1999/xlink" width="5px" height="5px" xmlns="http://www.w3.org/2000/svg">
  <g transform="matrix(1 0 0 1 -172 -846 )">
    <path d="M 4.80841346153846 2.623125  C 4.80841346153846 1.34841346153846  3.77427884615385 0.314711538461539  2.5 0.314711538461539  C 1.22485576923077 0.314711538461539  0.191586538461538 1.34841346153846  0.191586538461538 2.623125  C 0.191586538461538 3.89783653846154  1.22485576923077 4.93197115384615  2.5 4.93197115384615  C 3.77427884615385 4.93197115384615  4.80841346153846 3.89783653846154  4.80841346153846 2.623125  Z M 4.05336538461539 2.623125  C 4.05379807692308 2.82649038461539  4.013125 3.02942307692308  3.93524038461539 3.21764423076923  C 3.85735576923077 3.40586538461539  3.74269230769231 3.57807692307692  3.59903846153846 3.72173076923077  C 3.45495192307692 3.86581730769231  3.28230769230769 3.98091346153846  3.09451923076923 4.05836538461538  C 2.90629807692308 4.13668269230769  2.70379807692308 4.17692307692308  2.5 4.17692307692308  C 2.29620192307692 4.17692307692308  2.09326923076923 4.13625  1.90504807692308 4.05836538461538  C 1.71725961538462 3.98048076923077  1.54548076923077 3.86581730769231  1.40096153846154 3.72173076923077  C 1.25774038461538 3.57807692307692  1.14221153846154 3.40586538461539  1.06432692307692 3.21764423076923  C 0.986442307692308 3.02942307692308  0.946201923076924 2.82692307692308  0.946201923076924 2.623125  C 0.946201923076924 2.41975961538462  0.986874999999999 2.21682692307692  1.06432692307692 2.02860576923077  C 1.14264423076923 1.84038461538462  1.25774038461538 1.66817307692308  1.40096153846154 1.52451923076923  C 1.54548076923077 1.38043269230769  1.71725961538462 1.26576923076923  1.90504807692308 1.18745192307692  C 2.09326923076923 1.11  2.29620192307692 1.06975961538462  2.5 1.06975961538462  C 2.70379807692308 1.06975961538462  2.90629807692308 1.11043269230769  3.09451923076923 1.18745192307692  C 3.28230769230769 1.26620192307692  3.45495192307692 1.38043269230769  3.59903846153846 1.52451923076923  C 3.74269230769231 1.66817307692308  3.85778846153846 1.84038461538462  3.93524038461539 2.02860576923077  C 4.01269230769231 2.21682692307692  4.05336538461539 2.41975961538462  4.05336538461539 2.623125  Z " fill-rule="nonzero" fill="#64a3b2" stroke="none" transform="matrix(1 0 0 1 172 846 )" />
  </g>
</svg>