<svg t="1570417720131" class="icon" viewBox="0 0 1024 1024" version="1.1" xmlns="http://www.w3.org/2000/svg" p-id="8974" width="200" height="200"><path d="M517.461333 117.333333c0-1.109333-0.085333-2.176-0.170666-3.221333h-161.429334c-0.106667 1.066667-0.149333 2.133333-0.149333 3.221333v737.621334h161.749333V117.333333zM149.845333 326.485333l161.749334 0.021334v528.448H149.845333V326.485333z m411.690667 177.045334h161.749333v351.445333h-161.749333V503.530667z m205.888-177.024h161.728v528.448h-161.728V326.506667z m208.256 572.586666H105.728V67.328a11.605333 11.605333 0 0 0-0.064-1.216h-58.666667c0 0.405333-0.085333 0.810667-0.085333 1.216V957.866667h928.768l1.386667-0.042667v-58.709333l-1.386667-0.021334z" fill="#00BBEB" p-id="8975"></path></svg>