<?xml version="1.0" encoding="utf-8"?>
<svg version="1.1" xmlns:xlink="http://www.w3.org/1999/xlink" width="21px" height="11px" xmlns="http://www.w3.org/2000/svg">
  <g transform="matrix(1 0 0 1 -329 -1093 )">
    <path d="M 9.71990729944031 0.198360655737815  C 9.9358208955224 0.0701235911885763  10.2213998367537 0.0200403432377242  10.5 0.0300605148565869  C 10.7820895522388 0.0200403432377242  11.0676684934701 0.0701235911885763  11.2835820895522 0.198360655737815  L 20.6169324277052 5.66627497438526  C 21.0104681669776 5.89670370133194  21.0104681669776 6.27137711321711  20.6169324277052 6.50379578637285  C 20.2233966884328 6.73422451331976  19.5826040694963 6.73422451331976  19.1890683302239 6.50379578637285  L 10.5000306086754 1.41455238217213  L 1.81445166744402 6.50379578637285  C 1.42091592817164 6.73422451331976  0.776633920242546 6.73422451331976  0.383128789645525 6.50379578637285  C -0.0103763409514954 6.27336705942616  -0.0104069496268551 5.89869364754099  0.383128789645525 5.66828253073777  L 9.71993790811567 0.198343045594356  Z M 10.5 4.31584112448763  C 10.7820895522388 4.30381339651649  11.0676684934701 4.35590420081962  11.2835820895522 4.48213370901635  L 20.6169324277052 9.95004802766402  C 21.0104681669776 10.1804767546107  21.0104681669776 10.5551501664959  20.6169324277052 10.7875688396516  C 20.2233966884328 11.0179975665983  19.5826040694963 11.0159724001026  19.1890683302239 10.7875688396516  L 10.5000306086754 5.6983254354509  L 1.81797166511194 10.7895763960041  C 1.42443592583956 11.0179975665983  0.78015391791044 11.0200051229508  0.386648787313447 10.7895763960041  C -0.00688695195896116 10.5571577228484  -0.00688695195896116 10.1824667008198  0.386648787313447 9.95205558401631  L 9.71999912546642 4.48211609887289  C 9.93588211287314 4.35588659067616  10.2214916627798 4.30379578637303  10.5000918260261 4.31582351434417  Z " fill-rule="nonzero" fill="#ffffff" stroke="none" transform="matrix(1 0 0 1 329 1093 )" />
  </g>
</svg>