<?xml version="1.0" encoding="utf-8"?>
<svg version="1.1" xmlns:xlink="http://www.w3.org/1999/xlink" width="24px" height="23px" xmlns="http://www.w3.org/2000/svg">
  <g transform="matrix(1 0 0 1 -340 -39 )">
    <path d="M 7.25158215985562 9.80217778764774  C 7.25665913863759 8.03429485587122  8.75086055386623 6.60235183294378  10.5956079606369 6.59748639494438  C 11.0972778404446 6.59748639494438  11.431284361779 6.27739681228712  11.4312843623798 5.79662984413812  C 11.4312843629809 5.31586287598907  11.0972778413461 4.99577329304384  10.5956079606369 4.99577329246796  C 7.82900139195112 5.00341706621339  5.58820546870538 7.15084649265708  5.58022935697113 9.80217778764774  C 5.58022935697113 10.2829447557968  5.914235878005 10.603034338742  6.4159057584136 10.6030343390299  C 6.91757563882197 10.6030343393179  7.25158215955526 10.2816795680463  7.25158215985562 9.80217778764774  Z M 3.90887655438701 9.8021777879357  C 3.90887655438701 6.27739681199921  6.91889583443503 3.39279502412614  10.5956079606369 3.39279500166515  C 11.0972778404446 3.39279500166515  11.431284361779 3.07270541900789  11.4312843623798 2.59193845085889  C 11.4312843629809 2.11117148270984  11.0972778413461 1.79108189976461  10.5956079606369 1.79108189947664  C 5.99872764393012 1.79108189947664  2.23620357812501 5.39683415051582  2.23620357902632 9.80217778764774  C 2.23620357902632 10.2829447557968  2.57153029657457 10.603034338742  3.07320015324535 10.6030343390299  C 3.57487000991568 10.6030343393179  3.90887655438701 10.2816795680463  3.90887655438701 9.8021777879357  Z M 9.17376991376182 15.4891449218499  L 7.67008046965134 14.2075214026067  C 6.75123247536067 13.3256935755459  5.32939442848556 13.2459874660206  4.32605466887003 14.0468440389999  L 1.06652063311299 16.5303849685371  C -0.0199907199519203 17.3312415196314  -0.187654055288476 18.8532485122947  0.648022346454354 19.8957537245593  C 0.732514112379704 19.9754598343725  0.732514112379704 20.0551659220127  0.815685705528949 20.0551659444737  L 3.07320015324535 22.2186172904898  C 5.24622283593749 24.3010973614033  11.0972778410458 21.336789463717  16.6974978945314 15.9686467247095  C 22.297717971154 10.6030343390299  25.3077372277644 5.07674456814652  23.2178861382213 2.99426449694511  L 20.960371689303 0.830813150928975  C 19.9570319293871 -0.130720785657047  18.3688507196514 -0.130720785657047  17.450002726262 0.830813150928975  L 17.2823393671874 0.990225348094498  L 14.6908183972355 4.1152106315605  C 13.8551419960938 5.07547938010816  13.9383135889423 6.43680900974056  14.8584817566104 7.31863683622549  L 16.2803198037861 8.67996646556992  C 15.3601516367189 10.1222673705929  14.356811876803 11.4038908901242  13.1871289305889 12.52610221249  C 12.0161258121996 13.6470483468174  10.6787795306489 14.6073171172501  9.17376991376182 15.4891449218499  Z M 5.41388619441113 15.3284675366461  L 5.41256602193494 15.3284675366461  C 5.74789273948318 15.0880840635141  6.24956261899047 15.0880840635141  6.50039754717545 15.4094388344977  L 8.42258527854574 17.1718293227539  C 8.68908410358381 17.4212953868258  9.08967922918623 17.4849425696427  9.42592503876199 17.3312415199194  C 11.2360383367543 16.3869194159605  12.8963809902621 15.2000448453519  14.356811876803 13.8064605439829  C 15.8109594870634 12.4068583577043  17.0494342243369 10.8157005891857  18.0348441757812 9.08102732419371  C 18.1948888777838 8.75853424686244  18.127941585052 8.37459763844851  17.8671808401441 8.11949340978066  L 15.9449930859375 6.27739681171124  C 15.6109865649039 5.95604204072771  15.6109865649039 5.55624637043019  15.8618214930889 5.23489159973457  L 18.5365140555889 2.11117148242192  C 18.5365140555889 2.11117148242192  18.5365140555889 2.03146537232072  18.6196856490385 2.03146539420572  C 18.7722066078552 1.87775236393162  18.983851296962 1.79073364338132  19.2051872082332 1.79073364338132  C 19.4265231195045 1.79073364338132  19.6381678086111 1.87775236393162  19.790688767428 2.03146539420572  L 22.0482032160455 4.19491674137373  C 23.1333943728966 5.23489160002254  20.3755302172474 10.2019734806941  15.5264947989783 14.9286718660607  C 10.6787795534856 19.6541050858499  5.41388619441113 22.2173521249123  4.32605466887003 21.1761120785131  L 1.98536862770447 18.9342197879733  C 1.73453369921867 18.6128650169897  1.73453369921867 18.0523919612004  2.15303198617767 17.8120084877804  L 5.41388619441113 15.3284675366461  Z " fill-rule="nonzero" fill="#ffffff" stroke="none" transform="matrix(1 0 0 1 340 39 )" />
  </g>
</svg>