<?xml version="1.0" encoding="utf-8"?>
<svg version="1.1" xmlns:xlink="http://www.w3.org/1999/xlink" width="8px" height="8px" xmlns="http://www.w3.org/2000/svg">
  <g transform="matrix(1 0 0 1 -220 -1168 )">
    <path d="M 4.2971781716418 7.85573770491806  C 4.21492537313435 7.94900102459019  4.10613339552236 7.9854252049181  4 7.97813780737692  C 3.89253731343285 7.9854252049181  3.78374533582092 7.94900102459019  3.70149253731341 7.85573770491806  L 0.145930503731336 3.87907274590157  C -0.00398787313434923 3.71148821721317  -0.00398787313434923 3.43899846311479  0.145930503731336 3.26996670081985  C 0.295848880597021 3.102382172131  0.539960354477614 3.102382172131  0.689878731343299 3.26996670081985  L 3.99998833955226 6.97123463114758  L 7.30878031716418 3.26996670081985  C 7.45869869402986 3.102382172131  7.70413945895524 3.102382172131  7.85404617537313 3.26996670081985  C 8.00395289179107 3.43755122950824  8.00396455223881 3.71004098360663  7.85404617537313 3.87761270491796  L 4.29716651119401 7.85575051229512  Z M 4 4.86120645491815  C 3.89253731343285 4.86995389344247  3.78374533582092 4.83206967213118  3.70149253731341 4.74026639344265  L 0.145930503731336 0.763601434426164  C -0.00398787313434923 0.59601690573777  -0.00398787313434923 0.323527151639382  0.145930503731336 0.15449538934422  C 0.295848880597021 -0.0130891393441743  0.539960354477614 -0.0116162909837385  0.689878731343299 0.15449538934422  L 3.99998833955226 3.85576331967218  L 7.30743936567166 0.153035348360618  C 7.45735774253728 -0.0130891393441743  7.70279850746272 -0.0145491803277764  7.85270522388061 0.153035348360618  C 8.00262360074629 0.32206711065578  8.00262360074629 0.594569672131001  7.85270522388061 0.762141393442789  L 4.29714319029853 4.74027920081971  C 4.21490205223881 4.83208247950824  4.10609841417909 4.86996670081953  3.99996501865672 4.86121926229521  Z " fill-rule="nonzero" fill="#199ed8" stroke="none" fill-opacity="0.498039215686275" transform="matrix(1 0 0 1 220 1168 )" />
  </g>
</svg>