<?xml version="1.0" encoding="utf-8"?>
<svg version="1.1" xmlns:xlink="http://www.w3.org/1999/xlink" width="8px" height="8px" xmlns="http://www.w3.org/2000/svg">
  <g transform="matrix(1 0 0 1 -216 -1036 )">
    <path d="M 3.7028218283582 0.144262295081944  C 3.78507462686565 0.0509989754098115  3.89386660447764 0.0145747950818986  4 0.0218621926230753  C 4.10746268656715 0.0145747950818986  4.21625466417908 0.0509989754098115  4.29850746268659 0.144262295081944  L 7.85406949626866 4.12092725409843  C 8.00398787313435 4.28851178278683  8.00398787313435 4.56100153688521  7.85406949626866 4.73003329918015  C 7.70415111940298 4.897617827869  7.46003964552239 4.897617827869  7.3101212686567 4.73003329918015  L 4.00001166044774 1.02876536885242  L 0.691219682835822 4.73003329918015  C 0.541301305970137 4.897617827869  0.29586054104476 4.897617827869  0.145953824626872 4.73003329918015  C -0.00395289179107294 4.56244877049176  -0.00396455223881276 4.28995901639337  0.145953824626872 4.12238729508204  L 3.70283348880599 0.144249487704883  Z M 4 3.13879354508185  C 4.10746268656715 3.13004610655753  4.21625466417908 3.16793032786882  4.29850746268659 3.25973360655735  L 7.85406949626866 7.23639856557384  C 8.00398787313435 7.40398309426223  8.00398787313435 7.67647284836062  7.85406949626866 7.84550461065578  C 7.70415111940298 8.01308913934417  7.46003964552239 8.01161629098374  7.3101212686567 7.84550461065578  L 4.00001166044774 4.14423668032782  L 0.692560634328345 7.84696465163938  C 0.542642257462717 8.01308913934417  0.297201492537283 8.01454918032778  0.147294776119395 7.84696465163938  C -0.00262360074628987 7.67793288934422  -0.00262360074628987 7.405430327869  0.147294776119395 7.23785860655721  L 3.70285680970147 3.25972079918029  C 3.78509794776119 3.16791752049176  3.89390158582091 3.13003329918047  4.00003498134328 3.13878073770479  Z " fill-rule="nonzero" fill="#199ed8" stroke="none" fill-opacity="0.498039215686275" transform="matrix(1 0 0 1 216 1036 )" />
  </g>
</svg>