<?xml version="1.0" encoding="utf-8"?>
<svg version="1.1" xmlns:xlink="http://www.w3.org/1999/xlink" width="12px" height="12px" viewBox="623 692  12 12" xmlns="http://www.w3.org/2000/svg">
  <path d="M 629 692  C 632.36 692  635 694.64  635 698  C 635 701.36  632.36 704  629 704  C 625.64 704  623 701.36  623 698  C 623 694.64  625.64 692  629 692  Z " fill-rule="nonzero" fill="#ffffff" stroke="none" />
  <path d="M 629 692.5  C 632.08 692.5  634.5 694.92  634.5 698  C 634.5 701.08  632.08 703.5  629 703.5  C 625.92 703.5  623.5 701.08  623.5 698  C 623.5 694.92  625.92 692.5  629 692.5  Z " stroke-width="1" stroke="#797979" fill="none" />
  <path d="M 629 701  C 627.32 701  626 699.68  626 698  C 626 696.32  627.32 695  629 695  C 630.68 695  632 696.32  632 698  C 632 699.68  630.68 701  629 701  " fill-rule="nonzero" fill="#797979" stroke="none" />
</svg>