<?xml version="1.0" encoding="utf-8"?>
<svg version="1.1" xmlns:xlink="http://www.w3.org/1999/xlink" width="12px" height="12px" viewBox="623 657  12 12" xmlns="http://www.w3.org/2000/svg">
  <path d="M 629 657  C 632.36 657  635 659.64  635 663  C 635 666.36  632.36 669  629 669  C 625.64 669  623 666.36  623 663  C 623 659.64  625.64 657  629 657  Z " fill-rule="nonzero" fill="#ffffff" stroke="none" />
  <path d="M 629 657.5  C 632.08 657.5  634.5 659.92  634.5 663  C 634.5 666.08  632.08 668.5  629 668.5  C 625.92 668.5  623.5 666.08  623.5 663  C 623.5 659.92  625.92 657.5  629 657.5  Z " stroke-width="1" stroke="#797979" fill="none" />
  <path d="M 629 666  C 627.32 666  626 664.68  626 663  C 626 661.32  627.32 660  629 660  C 630.68 660  632 661.32  632 663  C 632 664.68  630.68 666  629 666  " fill-rule="nonzero" fill="#797979" stroke="none" />
</svg>