<?xml version="1.0" encoding="utf-8"?>
<svg version="1.1" xmlns:xlink="http://www.w3.org/1999/xlink" width="12px" height="12px" viewBox="630 227  12 12" xmlns="http://www.w3.org/2000/svg">
  <path d="M 636 227  C 639.36 227  642 229.64  642 233  C 642 236.36  639.36 239  636 239  C 632.64 239  630 236.36  630 233  C 630 229.64  632.64 227  636 227  Z " fill-rule="nonzero" fill="#ffffff" stroke="none" />
  <path d="M 636 227.5  C 639.08 227.5  641.5 229.92  641.5 233  C 641.5 236.08  639.08 238.5  636 238.5  C 632.92 238.5  630.5 236.08  630.5 233  C 630.5 229.92  632.92 227.5  636 227.5  Z " stroke-width="1" stroke="#797979" fill="none" />
  <path d="M 636 236  C 634.32 236  633 234.68  633 233  C 633 231.32  634.32 230  636 230  C 637.68 230  639 231.32  639 233  C 639 234.68  637.68 236  636 236  " fill-rule="nonzero" fill="#797979" stroke="none" />
</svg>