<?xml version="1.0" encoding="utf-8"?>
<svg version="1.1" xmlns:xlink="http://www.w3.org/1999/xlink" width="12px" height="12px" viewBox="730 227  12 12" xmlns="http://www.w3.org/2000/svg">
  <path d="M 736 227  C 739.36 227  742 229.64  742 233  C 742 236.36  739.36 239  736 239  C 732.64 239  730 236.36  730 233  C 730 229.64  732.64 227  736 227  Z " fill-rule="nonzero" fill="#ffffff" stroke="none" />
  <path d="M 736 227.5  C 739.08 227.5  741.5 229.92  741.5 233  C 741.5 236.08  739.08 238.5  736 238.5  C 732.92 238.5  730.5 236.08  730.5 233  C 730.5 229.92  732.92 227.5  736 227.5  Z " stroke-width="1" stroke="#797979" fill="none" />
  <path d="M 736 236  C 734.32 236  733 234.68  733 233  C 733 231.32  734.32 230  736 230  C 737.68 230  739 231.32  739 233  C 739 234.68  737.68 236  736 236  " fill-rule="nonzero" fill="#797979" stroke="none" />
</svg>