<?xml version="1.0" encoding="utf-8"?>
<svg version="1.1" xmlns:xlink="http://www.w3.org/1999/xlink" width="12px" height="12px" viewBox="430 227  12 12" xmlns="http://www.w3.org/2000/svg">
  <path d="M 436 227  C 439.36 227  442 229.64  442 233  C 442 236.36  439.36 239  436 239  C 432.64 239  430 236.36  430 233  C 430 229.64  432.64 227  436 227  Z " fill-rule="nonzero" fill="#ffffff" stroke="none" />
  <path d="M 436 227.5  C 439.08 227.5  441.5 229.92  441.5 233  C 441.5 236.08  439.08 238.5  436 238.5  C 432.92 238.5  430.5 236.08  430.5 233  C 430.5 229.92  432.92 227.5  436 227.5  Z " stroke-width="1" stroke="#797979" fill="none" />
  <path d="M 436 236  C 434.32 236  433 234.68  433 233  C 433 231.32  434.32 230  436 230  C 437.68 230  439 231.32  439 233  C 439 234.68  437.68 236  436 236  " fill-rule="nonzero" fill="#797979" stroke="none" />
</svg>