<?xml version="1.0" encoding="utf-8"?>
<svg version="1.1" xmlns:xlink="http://www.w3.org/1999/xlink" width="12px" height="12px" viewBox="830 227  12 12" xmlns="http://www.w3.org/2000/svg">
  <path d="M 836 227  C 839.36 227  842 229.64  842 233  C 842 236.36  839.36 239  836 239  C 832.64 239  830 236.36  830 233  C 830 229.64  832.64 227  836 227  Z " fill-rule="nonzero" fill="#ffffff" stroke="none" />
  <path d="M 836 227.5  C 839.08 227.5  841.5 229.92  841.5 233  C 841.5 236.08  839.08 238.5  836 238.5  C 832.92 238.5  830.5 236.08  830.5 233  C 830.5 229.92  832.92 227.5  836 227.5  Z " stroke-width="1" stroke="#797979" fill="none" />
  <path d="M 836 236  C 834.32 236  833 234.68  833 233  C 833 231.32  834.32 230  836 230  C 837.68 230  839 231.32  839 233  C 839 234.68  837.68 236  836 236  " fill-rule="nonzero" fill="#797979" stroke="none" />
</svg>