<?xml version="1.0" encoding="utf-8"?>
<svg version="1.1" xmlns:xlink="http://www.w3.org/1999/xlink" width="12px" height="12px" viewBox="430 263  12 12" xmlns="http://www.w3.org/2000/svg">
  <path d="M 436 263  C 439.36 263  442 265.64  442 269  C 442 272.36  439.36 275  436 275  C 432.64 275  430 272.36  430 269  C 430 265.64  432.64 263  436 263  Z " fill-rule="nonzero" fill="#ffffff" stroke="none" />
  <path d="M 436 263.5  C 439.08 263.5  441.5 265.92  441.5 269  C 441.5 272.08  439.08 274.5  436 274.5  C 432.92 274.5  430.5 272.08  430.5 269  C 430.5 265.92  432.92 263.5  436 263.5  Z " stroke-width="1" stroke="#797979" fill="none" />
  <path d="M 436 272  C 434.32 272  433 270.68  433 269  C 433 267.32  434.32 266  436 266  C 437.68 266  439 267.32  439 269  C 439 270.68  437.68 272  436 272  " fill-rule="nonzero" fill="#797979" stroke="none" />
</svg>