<?xml version="1.0" encoding="utf-8"?>
<svg version="1.1" xmlns:xlink="http://www.w3.org/1999/xlink" width="12px" height="12px" viewBox="530 263  12 12" xmlns="http://www.w3.org/2000/svg">
  <path d="M 536 263  C 539.36 263  542 265.64  542 269  C 542 272.36  539.36 275  536 275  C 532.64 275  530 272.36  530 269  C 530 265.64  532.64 263  536 263  Z " fill-rule="nonzero" fill="#ffffff" stroke="none" />
  <path d="M 536 263.5  C 539.08 263.5  541.5 265.92  541.5 269  C 541.5 272.08  539.08 274.5  536 274.5  C 532.92 274.5  530.5 272.08  530.5 269  C 530.5 265.92  532.92 263.5  536 263.5  Z " stroke-width="1" stroke="#797979" fill="none" />
  <path d="M 536 272  C 534.32 272  533 270.68  533 269  C 533 267.32  534.32 266  536 266  C 537.68 266  539 267.32  539 269  C 539 270.68  537.68 272  536 272  " fill-rule="nonzero" fill="#797979" stroke="none" />
</svg>