<?xml version="1.0" encoding="utf-8"?>
<svg version="1.1" xmlns:xlink="http://www.w3.org/1999/xlink" width="12px" height="12px" viewBox="430 511  12 12" xmlns="http://www.w3.org/2000/svg">
  <path d="M 436 511  C 439.36 511  442 513.64  442 517  C 442 520.36  439.36 523  436 523  C 432.64 523  430 520.36  430 517  C 430 513.64  432.64 511  436 511  Z " fill-rule="nonzero" fill="#ffffff" stroke="none" />
  <path d="M 436 511.5  C 439.08 511.5  441.5 513.92  441.5 517  C 441.5 520.08  439.08 522.5  436 522.5  C 432.92 522.5  430.5 520.08  430.5 517  C 430.5 513.92  432.92 511.5  436 511.5  Z " stroke-width="1" stroke="#797979" fill="none" />
  <path d="M 436 520  C 434.32 520  433 518.68  433 517  C 433 515.32  434.32 514  436 514  C 437.68 514  439 515.32  439 517  C 439 518.68  437.68 520  436 520  " fill-rule="nonzero" fill="#797979" stroke="none" />
</svg>