<?xml version="1.0" encoding="utf-8"?>
<svg version="1.1" xmlns:xlink="http://www.w3.org/1999/xlink" width="12px" height="12px" viewBox="484 361  12 12" xmlns="http://www.w3.org/2000/svg">
  <path d="M 490 361  C 493.36 361  496 363.64  496 367  C 496 370.36  493.36 373  490 373  C 486.64 373  484 370.36  484 367  C 484 363.64  486.64 361  490 361  Z " fill-rule="nonzero" fill="#ffffff" stroke="none" />
  <path d="M 490 361.5  C 493.08 361.5  495.5 363.92  495.5 367  C 495.5 370.08  493.08 372.5  490 372.5  C 486.92 372.5  484.5 370.08  484.5 367  C 484.5 363.92  486.92 361.5  490 361.5  Z " stroke-width="1" stroke="#797979" fill="none" />
  <path d="M 490 370  C 488.32 370  487 368.68  487 367  C 487 365.32  488.32 364  490 364  C 491.68 364  493 365.32  493 367  C 493 368.68  491.68 370  490 370  " fill-rule="nonzero" fill="#797979" stroke="none" />
</svg>