<?xml version="1.0" encoding="utf-8"?>
<svg version="1.1" xmlns:xlink="http://www.w3.org/1999/xlink" width="12px" height="12px" viewBox="784 361  12 12" xmlns="http://www.w3.org/2000/svg">
  <path d="M 790 361  C 793.36 361  796 363.64  796 367  C 796 370.36  793.36 373  790 373  C 786.64 373  784 370.36  784 367  C 784 363.64  786.64 361  790 361  Z " fill-rule="nonzero" fill="#ffffff" stroke="none" />
  <path d="M 790 361.5  C 793.08 361.5  795.5 363.92  795.5 367  C 795.5 370.08  793.08 372.5  790 372.5  C 786.92 372.5  784.5 370.08  784.5 367  C 784.5 363.92  786.92 361.5  790 361.5  Z " stroke-width="1" stroke="#797979" fill="none" />
  <path d="M 790 370  C 788.32 370  787 368.68  787 367  C 787 365.32  788.32 364  790 364  C 791.68 364  793 365.32  793 367  C 793 368.68  791.68 370  790 370  " fill-rule="nonzero" fill="#797979" stroke="none" />
</svg>