<?xml version="1.0" encoding="utf-8"?>
<svg version="1.1" xmlns:xlink="http://www.w3.org/1999/xlink" width="12px" height="12px" viewBox="984 361  12 12" xmlns="http://www.w3.org/2000/svg">
  <path d="M 990 361  C 993.36 361  996 363.64  996 367  C 996 370.36  993.36 373  990 373  C 986.64 373  984 370.36  984 367  C 984 363.64  986.64 361  990 361  Z " fill-rule="nonzero" fill="#ffffff" stroke="none" />
  <path d="M 990 361.5  C 993.08 361.5  995.5 363.92  995.5 367  C 995.5 370.08  993.08 372.5  990 372.5  C 986.92 372.5  984.5 370.08  984.5 367  C 984.5 363.92  986.92 361.5  990 361.5  Z " stroke-width="1" stroke="#797979" fill="none" />
  <path d="M 990 370  C 988.32 370  987 368.68  987 367  C 987 365.32  988.32 364  990 364  C 991.68 364  993 365.32  993 367  C 993 368.68  991.68 370  990 370  " fill-rule="nonzero" fill="#797979" stroke="none" />
</svg>