<?xml version="1.0" encoding="utf-8"?>
<svg version="1.1" xmlns:xlink="http://www.w3.org/1999/xlink" width="12px" height="12px" viewBox="684 361  12 12" xmlns="http://www.w3.org/2000/svg">
  <path d="M 690 361  C 693.36 361  696 363.64  696 367  C 696 370.36  693.36 373  690 373  C 686.64 373  684 370.36  684 367  C 684 363.64  686.64 361  690 361  Z " fill-rule="nonzero" fill="#ffffff" stroke="none" />
  <path d="M 690 361.5  C 693.08 361.5  695.5 363.92  695.5 367  C 695.5 370.08  693.08 372.5  690 372.5  C 686.92 372.5  684.5 370.08  684.5 367  C 684.5 363.92  686.92 361.5  690 361.5  Z " stroke-width="1" stroke="#797979" fill="none" />
  <path d="M 690 370  C 688.32 370  687 368.68  687 367  C 687 365.32  688.32 364  690 364  C 691.68 364  693 365.32  693 367  C 693 368.68  691.68 370  690 370  " fill-rule="nonzero" fill="#797979" stroke="none" />
</svg>