<?xml version="1.0" encoding="utf-8"?>
<svg version="1.1" xmlns:xlink="http://www.w3.org/1999/xlink" width="12px" height="12px" viewBox="884 361  12 12" xmlns="http://www.w3.org/2000/svg">
  <path d="M 890 361  C 893.36 361  896 363.64  896 367  C 896 370.36  893.36 373  890 373  C 886.64 373  884 370.36  884 367  C 884 363.64  886.64 361  890 361  Z " fill-rule="nonzero" fill="#ffffff" stroke="none" />
  <path d="M 890 361.5  C 893.08 361.5  895.5 363.92  895.5 367  C 895.5 370.08  893.08 372.5  890 372.5  C 886.92 372.5  884.5 370.08  884.5 367  C 884.5 363.92  886.92 361.5  890 361.5  Z " stroke-width="1" stroke="#797979" fill="none" />
  <path d="M 890 370  C 888.32 370  887 368.68  887 367  C 887 365.32  888.32 364  890 364  C 891.68 364  893 365.32  893 367  C 893 368.68  891.68 370  890 370  " fill-rule="nonzero" fill="#797979" stroke="none" />
</svg>