<?xml version="1.0" encoding="utf-8"?>
<svg version="1.1" xmlns:xlink="http://www.w3.org/1999/xlink" width="9px" height="15px" xmlns="http://www.w3.org/2000/svg">
  <g transform="matrix(1 0 0 1 -458 -135 )">
    <path d="M 8.5078125 4.56818181818182  C 8.8359375 4.88636363636363  9 5.27272727272727  9 5.72727272727273  L 9 9.27272727272727  C 9 9.5  8.91796875 9.69318181818182  8.75390625 9.85227272727273  C 8.58984375 10.0113636363636  8.390625 10.0909090909091  8.15625 10.0909090909091  C 7.921875 10.0909090909091  7.72265625 10.0113636363636  7.55859375 9.85227272727273  C 7.39453125 9.69318181818182  7.3125 9.5  7.3125 9.27272727272727  L 7.3125 6.27272727272727  L 6.75 6.27272727272727  L 6.75 14.0454545454545  C 6.75 14.3068181818182  6.6533203125 14.53125  6.4599609375 14.71875  C 6.2666015625 14.90625  6.03515625 15  5.765625 15  C 5.49609375 15  5.2646484375 14.90625  5.0712890625 14.71875  C 4.8779296875 14.53125  4.78125 14.3068181818182  4.78125 14.0454545454545  L 4.78125 10.0909090909091  L 4.21875 10.0909090909091  L 4.21875 14.0454545454545  C 4.21875 14.3068181818182  4.1220703125 14.53125  3.9287109375 14.71875  C 3.7353515625 14.90625  3.50390625 15  3.234375 15  C 2.96484375 15  2.7333984375 14.90625  2.5400390625 14.71875  C 2.3466796875 14.53125  2.25 14.3068181818182  2.25 14.0454545454545  L 2.25 6.27272727272727  L 1.6875 6.27272727272727  L 1.6875 9.27272727272727  C 1.6875 9.5  1.60546875 9.69318181818182  1.44140625 9.85227272727273  C 1.27734375 10.0113636363636  1.078125 10.0909090909091  0.84375 10.0909090909091  C 0.609375 10.0909090909091  0.41015625 10.0113636363636  0.24609375 9.85227272727273  C 0.08203125 9.69318181818182  0 9.5  0 9.27272727272727  L 0 5.72727272727273  C 0 5.27272727272727  0.1640625 4.88636363636363  0.4921875 4.56818181818182  C 0.8203125 4.25  1.21875 4.09090909090909  1.6875 4.09090909090909  L 7.3125 4.09090909090909  C 7.78125 4.09090909090909  8.1796875 4.25  8.5078125 4.56818181818182  Z M 5.89306640625 0.558238636363637  C 6.27685546875 0.930397727272725  6.46875 1.38068181818182  6.46875 1.90909090909091  C 6.46875 2.4375  6.27685546875 2.88778409090909  5.89306640625 3.25994318181818  C 5.50927734375 3.63210227272727  5.044921875 3.81818181818182  4.5 3.81818181818182  C 3.955078125 3.81818181818182  3.49072265625 3.63210227272727  3.10693359375 3.25994318181818  C 2.72314453125 2.88778409090909  2.53125 2.4375  2.53125 1.90909090909091  C 2.53125 1.38068181818182  2.72314453125 0.930397727272725  3.10693359375 0.558238636363637  C 3.49072265625 0.186079545454544  3.955078125 0  4.5 0  C 5.044921875 0  5.50927734375 0.186079545454544  5.89306640625 0.558238636363637  Z " fill-rule="nonzero" fill="#4385ff" stroke="none" transform="matrix(1 0 0 1 458 135 )" />
  </g>
</svg>