<?xml version="1.0" encoding="utf-8"?>
<svg version="1.1" xmlns:xlink="http://www.w3.org/1999/xlink" width="18px" height="18px" xmlns="http://www.w3.org/2000/svg">
  <g transform="matrix(1 0 0 1 -185 -185 )">
    <path d="M 4.482421875 1.20703125  C 5.861328125 0.402343749999998  7.3671875 0  9 0  C 10.6328125 0  12.138671875 0.402343749999998  13.517578125 1.20703125  C 14.896484375 2.01171875  15.98828125 3.103515625  16.79296875 4.482421875  C 17.59765625 5.861328125  18 7.3671875  18 9  C 18 10.6328125  17.59765625 12.138671875  16.79296875 13.517578125  C 15.98828125 14.896484375  14.896484375 15.98828125  13.517578125 16.79296875  C 12.138671875 17.59765625  10.6328125 18  9 18  C 7.3671875 18  5.861328125 17.59765625  4.482421875 16.79296875  C 3.103515625 15.98828125  2.01171875 14.896484375  1.20703125 13.517578125  C 0.40234375 12.138671875  0 10.6328125  0 9  C 0 7.3671875  0.40234375 5.861328125  1.20703125 4.482421875  C 2.01171875 3.103515625  3.103515625 2.01171875  4.482421875 1.20703125  Z M 10.39453125 14.888671875  C 10.46484375 14.814453125  10.5 14.72265625  10.5 14.61328125  L 10.5 12.38671875  C 10.5 12.27734375  10.46484375 12.185546875  10.39453125 12.111328125  C 10.32421875 12.037109375  10.23828125 12  10.13671875 12  L 7.88671875 12  C 7.78515625 12  7.6953125 12.0390625  7.6171875 12.1171875  C 7.5390625 12.1953125  7.5 12.28515625  7.5 12.38671875  L 7.5 14.61328125  C 7.5 14.71484375  7.5390625 14.8046875  7.6171875 14.8828125  C 7.6953125 14.9609375  7.78515625 15  7.88671875 15  L 10.13671875 15  C 10.23828125 15  10.32421875 14.962890625  10.39453125 14.888671875  Z M 10.353515625 10.787109375  C 10.427734375 10.728515625  10.46875 10.66015625  10.4765625 10.58203125  L 10.6875 3.3046875  C 10.6875 3.2109375  10.6484375 3.140625  10.5703125 3.09375  C 10.4921875 3.03125  10.3984375 3  10.2890625 3  L 7.7109375 3  C 7.6015625 3  7.5078125 3.03125  7.4296875 3.09375  C 7.3515625 3.140625  7.3125 3.2109375  7.3125 3.3046875  L 7.51171875 10.58203125  C 7.51171875 10.66015625  7.55078125 10.728515625  7.62890625 10.787109375  C 7.70703125 10.845703125  7.80078125 10.875  7.91015625 10.875  L 10.078125 10.875  C 10.1875 10.875  10.279296875 10.845703125  10.353515625 10.787109375  Z " fill-rule="nonzero" fill="#ff6666" stroke="none" transform="matrix(1 0 0 1 185 185 )" />
  </g>
</svg>