<?xml version="1.0" encoding="utf-8"?>
<svg version="1.1" xmlns:xlink="http://www.w3.org/1999/xlink" width="40px" height="40px" xmlns="http://www.w3.org/2000/svg">
  <defs>
    <filter x="1453px" y="56px" width="40px" height="40px" filterUnits="userSpaceOnUse" id="filter1">
      <feOffset dx="0" dy="0" in="SourceAlpha" result="shadowOffsetInner" />
      <feGaussianBlur stdDeviation="2.5" in="shadowOffsetInner" result="shadowGaussian" />
      <feComposite in2="shadowGaussian" operator="atop" in="SourceAlpha" result="shadowComposite" />
      <feColorMatrix type="matrix" values="0 0 0 0 0  0 0 0 0 0  0 0 0 0 0  0 0 0 0.349019607843137 0  " in="shadowComposite" />
    </filter>
    <g id="widget2">
      <path d="M 1473 61  C 1481.4 61  1488 67.6  1488 76  C 1488 84.4  1481.4 91  1473 91  C 1464.6 91  1458 84.4  1458 76  C 1458 67.6  1464.6 61  1473 61  Z " fill-rule="nonzero" fill="#ff3399" stroke="none" />
      <path d="M 1473 61.5  C 1481.12 61.5  1487.5 67.88  1487.5 76  C 1487.5 84.12  1481.12 90.5  1473 90.5  C 1464.88 90.5  1458.5 84.12  1458.5 76  C 1458.5 67.88  1464.88 61.5  1473 61.5  Z " stroke-width="1" stroke="#ffffff" fill="none" />
    </g>
  </defs>
  <g transform="matrix(1 0 0 1 -1453 -56 )">
    <use xlink:href="#widget2" filter="url(#filter1)" />
    <use xlink:href="#widget2" />
  </g>
</svg>