<?xml version="1.0" encoding="utf-8"?>
<svg version="1.1" xmlns:xlink="http://www.w3.org/1999/xlink" width="12px" height="12px" viewBox="385 337  12 12" xmlns="http://www.w3.org/2000/svg">
  <path d="M 391 337  C 394.36 337  397 339.64  397 343  C 397 346.36  394.36 349  391 349  C 387.64 349  385 346.36  385 343  C 385 339.64  387.64 337  391 337  Z " fill-rule="nonzero" fill="#ffffff" stroke="none" />
  <path d="M 391 337.5  C 394.08 337.5  396.5 339.92  396.5 343  C 396.5 346.08  394.08 348.5  391 348.5  C 387.92 348.5  385.5 346.08  385.5 343  C 385.5 339.92  387.92 337.5  391 337.5  Z " stroke-width="1" stroke="#797979" fill="none" />
  <path d="M 391 346  C 389.32 346  388 344.68  388 343  C 388 341.32  389.32 340  391 340  C 392.68 340  394 341.32  394 343  C 394 344.68  392.68 346  391 346  " fill-rule="nonzero" fill="#797979" stroke="none" />
</svg>