<?xml version="1.0" encoding="utf-8"?>
<svg version="1.1" xmlns:xlink="http://www.w3.org/1999/xlink" width="12px" height="12px" viewBox="385 409  12 12" xmlns="http://www.w3.org/2000/svg">
  <path d="M 391 409  C 394.36 409  397 411.64  397 415  C 397 418.36  394.36 421  391 421  C 387.64 421  385 418.36  385 415  C 385 411.64  387.64 409  391 409  Z " fill-rule="nonzero" fill="#ffffff" stroke="none" />
  <path d="M 391 409.5  C 394.08 409.5  396.5 411.92  396.5 415  C 396.5 418.08  394.08 420.5  391 420.5  C 387.92 420.5  385.5 418.08  385.5 415  C 385.5 411.92  387.92 409.5  391 409.5  Z " stroke-width="1" stroke="#797979" fill="none" />
  <path d="M 391 418  C 389.32 418  388 416.68  388 415  C 388 413.32  389.32 412  391 412  C 392.68 412  394 413.32  394 415  C 394 416.68  392.68 418  391 418  " fill-rule="nonzero" fill="#797979" stroke="none" />
</svg>