<?xml version="1.0" encoding="utf-8"?>
<svg version="1.1" xmlns:xlink="http://www.w3.org/1999/xlink" width="12px" height="12px" viewBox="485 409  12 12" xmlns="http://www.w3.org/2000/svg">
  <path d="M 491 409  C 494.36 409  497 411.64  497 415  C 497 418.36  494.36 421  491 421  C 487.64 421  485 418.36  485 415  C 485 411.64  487.64 409  491 409  Z " fill-rule="nonzero" fill="#ffffff" stroke="none" />
  <path d="M 491 409.5  C 494.08 409.5  496.5 411.92  496.5 415  C 496.5 418.08  494.08 420.5  491 420.5  C 487.92 420.5  485.5 418.08  485.5 415  C 485.5 411.92  487.92 409.5  491 409.5  Z " stroke-width="1" stroke="#797979" fill="none" />
  <path d="M 491 418  C 489.32 418  488 416.68  488 415  C 488 413.32  489.32 412  491 412  C 492.68 412  494 413.32  494 415  C 494 416.68  492.68 418  491 418  " fill-rule="nonzero" fill="#797979" stroke="none" />
</svg>