<?xml version="1.0" encoding="utf-8"?>
<svg version="1.1" xmlns:xlink="http://www.w3.org/1999/xlink" width="10px" height="742px" preserveAspectRatio="xMidYMin meet" viewBox="937 15  8 742" xmlns="http://www.w3.org/2000/svg">
  <path d="M 836 752  L 936 752  A 5 5 0 0 0 941 747 L 941 684  A 3 3 0 0 0 944 681 A 3 3 0 0 0 941 678 L 941 25  A 5 5 0 0 1 946 20 L 1414 20  A 5 5 0 0 1 1419 25 L 1419 55  A 5 5 0 0 0 1424 60 L 1462 60  " stroke-width="2" stroke-dasharray="2,2" stroke="#ff3399" fill="none" />
  <path d="M 837.5 748.5  A 3.5 3.5 0 0 0 834 752 A 3.5 3.5 0 0 0 837.5 755.5 A 3.5 3.5 0 0 0 841 752 A 3.5 3.5 0 0 0 837.5 748.5 Z M 1461 67.6  L 1468 60  L 1461 52.4  L 1461 67.6  Z " fill-rule="nonzero" fill="#ff3399" stroke="none" />
</svg>