<?xml version="1.0" encoding="utf-8"?>
<svg version="1.1" xmlns:xlink="http://www.w3.org/1999/xlink" width="12px" height="12px" viewBox="440 402  12 12" xmlns="http://www.w3.org/2000/svg">
  <path d="M 446 402  C 449.36 402  452 404.64  452 408  C 452 411.36  449.36 414  446 414  C 442.64 414  440 411.36  440 408  C 440 404.64  442.64 402  446 402  Z " fill-rule="nonzero" fill="#ffffff" stroke="none" />
  <path d="M 446 402.5  C 449.08 402.5  451.5 404.92  451.5 408  C 451.5 411.08  449.08 413.5  446 413.5  C 442.92 413.5  440.5 411.08  440.5 408  C 440.5 404.92  442.92 402.5  446 402.5  Z " stroke-width="1" stroke="#797979" fill="none" />
  <path d="M 446 411  C 444.32 411  443 409.68  443 408  C 443 406.32  444.32 405  446 405  C 447.68 405  449 406.32  449 408  C 449 409.68  447.68 411  446 411  " fill-rule="nonzero" fill="#797979" stroke="none" />
</svg>