<?xml version="1.0" encoding="utf-8"?>
<svg version="1.1" xmlns:xlink="http://www.w3.org/1999/xlink" width="12px" height="12px" viewBox="340 468  12 12" xmlns="http://www.w3.org/2000/svg">
  <path d="M 346 468  C 349.36 468  352 470.64  352 474  C 352 477.36  349.36 480  346 480  C 342.64 480  340 477.36  340 474  C 340 470.64  342.64 468  346 468  Z " fill-rule="nonzero" fill="#ffffff" stroke="none" />
  <path d="M 346 468.5  C 349.08 468.5  351.5 470.92  351.5 474  C 351.5 477.08  349.08 479.5  346 479.5  C 342.92 479.5  340.5 477.08  340.5 474  C 340.5 470.92  342.92 468.5  346 468.5  Z " stroke-width="1" stroke="#797979" fill="none" />
  <path d="M 346 477  C 344.32 477  343 475.68  343 474  C 343 472.32  344.32 471  346 471  C 347.68 471  349 472.32  349 474  C 349 475.68  347.68 477  346 477  " fill-rule="nonzero" fill="#797979" stroke="none" />
</svg>