<?xml version="1.0" encoding="utf-8"?>
<svg version="1.1" xmlns:xlink="http://www.w3.org/1999/xlink" width="12px" height="12px" viewBox="340 402  12 12" xmlns="http://www.w3.org/2000/svg">
  <path d="M 346 402  C 349.36 402  352 404.64  352 408  C 352 411.36  349.36 414  346 414  C 342.64 414  340 411.36  340 408  C 340 404.64  342.64 402  346 402  Z " fill-rule="nonzero" fill="#ffffff" stroke="none" />
  <path d="M 346 402.5  C 349.08 402.5  351.5 404.92  351.5 408  C 351.5 411.08  349.08 413.5  346 413.5  C 342.92 413.5  340.5 411.08  340.5 408  C 340.5 404.92  342.92 402.5  346 402.5  Z " stroke-width="1" stroke="#797979" fill="none" />
  <path d="M 346 411  C 344.32 411  343 409.68  343 408  C 343 406.32  344.32 405  346 405  C 347.68 405  349 406.32  349 408  C 349 409.68  347.68 411  346 411  " fill-rule="nonzero" fill="#797979" stroke="none" />
</svg>