<?xml version="1.0" encoding="utf-8"?>
<svg version="1.1" xmlns:xlink="http://www.w3.org/1999/xlink" width="12px" height="12px" viewBox="540 402  12 12" xmlns="http://www.w3.org/2000/svg">
  <path d="M 546 402  C 549.36 402  552 404.64  552 408  C 552 411.36  549.36 414  546 414  C 542.64 414  540 411.36  540 408  C 540 404.64  542.64 402  546 402  Z " fill-rule="nonzero" fill="#ffffff" stroke="none" />
  <path d="M 546 402.5  C 549.08 402.5  551.5 404.92  551.5 408  C 551.5 411.08  549.08 413.5  546 413.5  C 542.92 413.5  540.5 411.08  540.5 408  C 540.5 404.92  542.92 402.5  546 402.5  Z " stroke-width="1" stroke="#797979" fill="none" />
  <path d="M 546 411  C 544.32 411  543 409.68  543 408  C 543 406.32  544.32 405  546 405  C 547.68 405  549 406.32  549 408  C 549 409.68  547.68 411  546 411  " fill-rule="nonzero" fill="#797979" stroke="none" />
</svg>