<?xml version="1.0" encoding="utf-8"?>
<svg version="1.1" xmlns:xlink="http://www.w3.org/1999/xlink" width="12px" height="12px" viewBox="540 436  12 12" xmlns="http://www.w3.org/2000/svg">
  <path d="M 546 436  C 549.36 436  552 438.64  552 442  C 552 445.36  549.36 448  546 448  C 542.64 448  540 445.36  540 442  C 540 438.64  542.64 436  546 436  Z " fill-rule="nonzero" fill="#ffffff" stroke="none" />
  <path d="M 546 436.5  C 549.08 436.5  551.5 438.92  551.5 442  C 551.5 445.08  549.08 447.5  546 447.5  C 542.92 447.5  540.5 445.08  540.5 442  C 540.5 438.92  542.92 436.5  546 436.5  Z " stroke-width="1" stroke="#797979" fill="none" />
  <path d="M 546 445  C 544.32 445  543 443.68  543 442  C 543 440.32  544.32 439  546 439  C 547.68 439  549 440.32  549 442  C 549 443.68  547.68 445  546 445  " fill-rule="nonzero" fill="#797979" stroke="none" />
</svg>