<?xml version="1.0" encoding="utf-8"?>
<svg version="1.1" xmlns:xlink="http://www.w3.org/1999/xlink" width="150px" height="104px" xmlns="http://www.w3.org/2000/svg">
  <defs>
    <mask fill="white" id="clip67">
      <path d="M 125 91  L 150 91  L 150 0  L 0 0  L 0 91  L 110 91  L 117.5 104  L 125 91  Z " fill-rule="evenodd" />
    </mask>
  </defs>
  <g transform="matrix(1 0 0 1 -1161 -75 )">
    <path d="M 125 91  L 150 91  L 150 0  L 0 0  L 0 91  L 110 91  L 117.5 104  L 125 91  Z " fill-rule="nonzero" fill="#ffffff" stroke="none" transform="matrix(1 0 0 1 1161 75 )" />
    <path d="M 125 91  L 150 91  L 150 0  L 0 0  L 0 91  L 110 91  L 117.5 104  L 125 91  Z " stroke-width="2" stroke="#797979" fill="none" transform="matrix(1 0 0 1 1161 75 )" mask="url(#clip67)" />
  </g>
</svg>