<?xml version="1.0" encoding="utf-8"?>
<svg version="1.1" xmlns:xlink="http://www.w3.org/1999/xlink" width="38px" height="40px" xmlns="http://www.w3.org/2000/svg">
  <g transform="matrix(1 0 0 1 -6316 -473 )">
    <path d="M 6335 473  C 6345.64 473  6354 481.8  6354 493  C 6354 504.2  6345.64 513  6335 513  C 6324.36 513  6316 504.2  6316 493  C 6316 481.8  6324.36 473  6335 473  Z " fill-rule="nonzero" fill="#ffffff" stroke="none" />
    <path d="M 6335 473.5  C 6345.36 473.5  6353.5 482.08  6353.5 493  C 6353.5 503.92  6345.36 512.5  6335 512.5  C 6324.64 512.5  6316.5 503.92  6316.5 493  C 6316.5 482.08  6324.64 473.5  6335 473.5  Z " stroke-width="1" stroke="#797979" fill="none" />
  </g>
</svg>