<?xml version="1.0" encoding="utf-8"?>
<svg version="1.1" xmlns:xlink="http://www.w3.org/1999/xlink" width="40px" height="39px" xmlns="http://www.w3.org/2000/svg">
  <defs>
    <filter x="6860px" y="1077px" width="40px" height="39px" filterUnits="userSpaceOnUse" id="filter14">
      <feOffset dx="1" dy="1" in="SourceAlpha" result="shadowOffsetInner" />
      <feGaussianBlur stdDeviation="2.5" in="shadowOffsetInner" result="shadowGaussian" />
      <feComposite in2="shadowGaussian" operator="atop" in="SourceAlpha" result="shadowComposite" />
      <feColorMatrix type="matrix" values="0 0 0 0 0  0 0 0 0 0  0 0 0 0 0  0 0 0 0.698039215686274 0  " in="shadowComposite" />
    </filter>
    <g id="widget15">
      <path d="M 6879 1081  C 6887.4 1081  6894 1087.38  6894 1095.5  C 6894 1103.62  6887.4 1110  6879 1110  C 6870.6 1110  6864 1103.62  6864 1095.5  C 6864 1087.38  6870.6 1081  6879 1081  Z " fill-rule="nonzero" fill="#ff6600" stroke="none" />
      <path d="M 6879 1081.5  C 6887.12 1081.5  6893.5 1087.66  6893.5 1095.5  C 6893.5 1103.34  6887.12 1109.5  6879 1109.5  C 6870.88 1109.5  6864.5 1103.34  6864.5 1095.5  C 6864.5 1087.66  6870.88 1081.5  6879 1081.5  Z " stroke-width="1" stroke="#ffffff" fill="none" />
    </g>
  </defs>
  <g transform="matrix(1 0 0 1 -6860 -1077 )">
    <use xlink:href="#widget15" filter="url(#filter14)" />
    <use xlink:href="#widget15" />
  </g>
</svg>