<?xml version="1.0" encoding="utf-8"?>
<svg version="1.1" xmlns:xlink="http://www.w3.org/1999/xlink" width="23px" height="23px" xmlns="http://www.w3.org/2000/svg">
  <g transform="matrix(1 0 0 1 -5218 -864 )">
    <path d="M 5229.5 864  C 5235.94 864  5241 869.06  5241 875.5  C 5241 881.94  5235.94 887  5229.5 887  C 5223.06 887  5218 881.94  5218 875.5  C 5218 869.06  5223.06 864  5229.5 864  Z " fill-rule="nonzero" fill="#ffffff" stroke="none" />
    <path d="M 5229.5 864.5  C 5235.66 864.5  5240.5 869.34  5240.5 875.5  C 5240.5 881.66  5235.66 886.5  5229.5 886.5  C 5223.34 886.5  5218.5 881.66  5218.5 875.5  C 5218.5 869.34  5223.34 864.5  5229.5 864.5  Z " stroke-width="1" stroke="#797979" fill="none" />
  </g>
</svg>