<?xml version="1.0" encoding="utf-8"?>
<svg version="1.1" xmlns:xlink="http://www.w3.org/1999/xlink" width="130px" height="130px" xmlns="http://www.w3.org/2000/svg">
  <g transform="matrix(1 0 0 1 -5164 -489 )">
    <path d="M 5164 489  L 5294 489  L 5294 619  L 5164 619  L 5164 489  " fill-rule="nonzero" fill="#cccccc" stroke="none" />
    <path d="M 5173 498  L 5285 498  L 5285 610  L 5173 610  L 5173 498  " fill-rule="nonzero" fill="#ffffff" stroke="none" />
    <path d="M 5241.35 528  C 5235.89 528  5231.6 523.71  5231.6 518.25  C 5231.6 512.79  5235.89 508.5  5241.35 508.5  C 5246.81 508.5  5251.1 512.79  5251.1 518.25  C 5251.1 523.71  5246.81 528  5241.35 528  " fill-rule="nonzero" fill="#cccccc" stroke="none" />
    <path d="M 5177 607  L 5177 549.25  L 5203.25 523  L 5240 544  L 5261 538.75  L 5282 544  L 5282 607  L 5177 607  " fill-rule="nonzero" fill="#169bd5" stroke="none" />
  </g>
</svg>