<?xml version="1.0" encoding="utf-8"?>
<svg version="1.1" xmlns:xlink="http://www.w3.org/1999/xlink" width="25px" height="25px" xmlns="http://www.w3.org/2000/svg">
  <g transform="matrix(1 0 0 1 -252 -1306 )">
    <path d="M 6.2255859375 1.67643229166667  C 8.14073350694444 0.558810763888887  10.2322048611111 0  12.5 0  C 14.7677951388889 0  16.8592664930556 0.558810763888887  18.7744140625 1.67643229166667  C 20.6895616319444 2.79405381944444  22.2059461805556 4.31043836805556  23.3235677083333 6.2255859375  C 24.4411892361111 8.14073350694444  25 10.2322048611111  25 12.5  C 25 14.7677951388889  24.4411892361111 16.8592664930556  23.3235677083333 18.7744140625  C 22.2059461805556 20.6895616319444  20.6895616319444 22.2059461805556  18.7744140625 23.3235677083333  C 16.8592664930556 24.4411892361111  14.7677951388889 25  12.5 25  C 10.2322048611111 25  8.14073350694444 24.4411892361111  6.2255859375 23.3235677083333  C 4.31043836805556 22.2059461805556  2.79405381944444 20.6895616319444  1.67643229166667 18.7744140625  C 0.558810763888889 16.8592664930556  0 14.7677951388889  0 12.5  C 0 10.2322048611111  0.558810763888889 8.14073350694444  1.67643229166667 6.2255859375  C 2.79405381944444 4.31043836805556  4.31043836805556 2.79405381944444  6.2255859375 1.67643229166667  Z M 9.89583333333333 18.603515625  L 18.75 13.3951822916667  C 19.0972222222222 13.1998697916667  19.2708333333333 12.9014756944444  19.2708333333333 12.5  C 19.2708333333333 12.0985243055556  19.0972222222222 11.8001302083333  18.75 11.6048177083333  L 9.89583333333333 6.396484375  C 9.55946180555556 6.19032118055556  9.21223958333333 6.18489583333333  8.85416666666667 6.38020833333333  C 8.50694444444445 6.58637152777778  8.33333333333333 6.89019097222222  8.33333333333333 7.29166666666667  L 8.33333333333333 17.7083333333333  C 8.33333333333333 18.1098090277778  8.50694444444445 18.4136284722222  8.85416666666667 18.6197916666667  C 9.02777777777778 18.7065972222222  9.20138888888889 18.75  9.375 18.75  C 9.55946180555556 18.75  9.73307291666667 18.701171875  9.89583333333333 18.603515625  Z " fill-rule="nonzero" fill="#333333" stroke="none" transform="matrix(1 0 0 1 252 1306 )" />
  </g>
</svg>