<?xml version="1.0" encoding="utf-8"?>
<svg version="1.1" xmlns:xlink="http://www.w3.org/1999/xlink" width="14px" height="15px" xmlns="http://www.w3.org/2000/svg">
  <g transform="matrix(1 0 0 1 -291 -297 )">
    <path d="M 1.07692307692308 11.5178571428571  L 1.07692307692308 13.9285714285714  L 3.5 13.9285714285714  L 3.5 11.5178571428571  L 1.07692307692308 11.5178571428571  Z M 4.03846153846154 11.5178571428571  L 4.03846153846154 13.9285714285714  L 6.73076923076923 13.9285714285714  L 6.73076923076923 11.5178571428571  L 4.03846153846154 11.5178571428571  Z M 1.07692307692308 8.30357142857143  L 1.07692307692308 10.9821428571429  L 3.5 10.9821428571429  L 3.5 8.30357142857143  L 1.07692307692308 8.30357142857143  Z M 4.03846153846154 8.30357142857143  L 4.03846153846154 10.9821428571429  L 6.73076923076923 10.9821428571429  L 6.73076923076923 8.30357142857143  L 4.03846153846154 8.30357142857143  Z M 1.07692307692308 5.35714285714286  L 1.07692307692308 7.76785714285714  L 3.5 7.76785714285714  L 3.5 5.35714285714286  L 1.07692307692308 5.35714285714286  Z M 7.26923076923077 11.5178571428571  L 7.26923076923077 13.9285714285714  L 9.96153846153846 13.9285714285714  L 9.96153846153846 11.5178571428571  L 7.26923076923077 11.5178571428571  Z M 4.03846153846154 5.35714285714286  L 4.03846153846154 7.76785714285714  L 6.73076923076923 7.76785714285714  L 6.73076923076923 5.35714285714286  L 4.03846153846154 5.35714285714286  Z M 10.5 11.5178571428571  L 10.5 13.9285714285714  L 12.9230769230769 13.9285714285714  L 12.9230769230769 11.5178571428571  L 10.5 11.5178571428571  Z M 7.26923076923077 8.30357142857143  L 7.26923076923077 10.9821428571429  L 9.96153846153846 10.9821428571429  L 9.96153846153846 8.30357142857143  L 7.26923076923077 8.30357142857143  Z M 4.22776442307692 3.93833705357143  C 4.28104967948718 3.88532366071428  4.30769230769231 3.82254464285714  4.30769230769231 3.75  L 4.30769230769231 1.33928571428571  C 4.30769230769231 1.26674107142857  4.28104967948718 1.20396205357143  4.22776442307692 1.15094866071429  C 4.17447916666667 1.09793526785714  4.11137820512821 1.07142857142857  4.03846153846154 1.07142857142857  L 3.5 1.07142857142857  C 3.42708333333333 1.07142857142857  3.36398237179487 1.09793526785714  3.31069711538462 1.15094866071429  C 3.25741185897436 1.20396205357143  3.23076923076923 1.26674107142857  3.23076923076923 1.33928571428571  L 3.23076923076923 3.75  C 3.23076923076923 3.82254464285714  3.25741185897436 3.88532366071428  3.31069711538462 3.93833705357143  C 3.36398237179487 3.99135044642857  3.42708333333333 4.01785714285714  3.5 4.01785714285714  L 4.03846153846154 4.01785714285714  C 4.11137820512821 4.01785714285714  4.17447916666667 3.99135044642857  4.22776442307692 3.93833705357143  Z M 10.5 8.30357142857143  L 10.5 10.9821428571429  L 12.9230769230769 10.9821428571429  L 12.9230769230769 8.30357142857143  L 10.5 8.30357142857143  Z M 7.26923076923077 5.35714285714286  L 7.26923076923077 7.76785714285714  L 9.96153846153846 7.76785714285714  L 9.96153846153846 5.35714285714286  L 7.26923076923077 5.35714285714286  Z M 10.5 5.35714285714286  L 10.5 7.76785714285714  L 12.9230769230769 7.76785714285714  L 12.9230769230769 5.35714285714286  L 10.5 5.35714285714286  Z M 10.6893028846154 3.93833705357143  C 10.7425881410256 3.88532366071428  10.7692307692308 3.82254464285714  10.7692307692308 3.75  L 10.7692307692308 1.33928571428571  C 10.7692307692308 1.26674107142857  10.7425881410256 1.20396205357143  10.6893028846154 1.15094866071429  C 10.6360176282051 1.09793526785714  10.5729166666667 1.07142857142857  10.5 1.07142857142857  L 9.96153846153846 1.07142857142857  C 9.8886217948718 1.07142857142857  9.82552083333333 1.09793526785714  9.77223557692308 1.15094866071429  C 9.71895032051282 1.20396205357143  9.69230769230769 1.26674107142857  9.69230769230769 1.33928571428571  L 9.69230769230769 3.75  C 9.69230769230769 3.82254464285714  9.71895032051282 3.88532366071428  9.77223557692308 3.93833705357143  C 9.82552083333333 3.99135044642857  9.8886217948718 4.01785714285714  9.96153846153846 4.01785714285714  L 10.5 4.01785714285714  C 10.5729166666667 4.01785714285714  10.6360176282051 3.99135044642857  10.6893028846154 3.93833705357143  Z M 13.6802884615385 2.4609375  C 13.8934294871795 2.67299107142857  14 2.92410714285714  14 3.21428571428571  L 14 13.9285714285714  C 14 14.21875  13.8934294871795 14.4698660714286  13.6802884615385 14.6819196428571  C 13.4671474358974 14.8939732142857  13.2147435897436 15  12.9230769230769 15  L 1.07692307692308 15  C 0.78525641025641 15  0.532852564102564 14.8939732142857  0.319711538461538 14.6819196428571  C 0.106570512820513 14.4698660714286  0 14.21875  0 13.9285714285714  L 0 3.21428571428571  C 0 2.92410714285714  0.106570512820513 2.67299107142857  0.319711538461538 2.4609375  C 0.532852564102564 2.24888392857143  0.78525641025641 2.14285714285714  1.07692307692308 2.14285714285714  L 2.15384615384615 2.14285714285714  L 2.15384615384615 1.33928571428571  C 2.15384615384615 0.970982142857144  2.28565705128205 0.655691964285713  2.54927884615385 0.393415178571429  C 2.81290064102564 0.131138392857143  3.12980769230769 0  3.5 0  L 4.03846153846154 0  C 4.40865384615385 0  4.7255608974359 0.131138392857143  4.98918269230769 0.393415178571429  C 5.25280448717949 0.655691964285713  5.38461538461539 0.970982142857144  5.38461538461539 1.33928571428571  L 5.38461538461539 2.14285714285714  L 8.61538461538462 2.14285714285714  L 8.61538461538462 1.33928571428571  C 8.61538461538462 0.970982142857144  8.74719551282051 0.655691964285713  9.01081730769231 0.393415178571429  C 9.2744391025641 0.131138392857143  9.59134615384615 0  9.96153846153846 0  L 10.5 0  C 10.8701923076923 0  11.1870993589744 0.131138392857143  11.4507211538462 0.393415178571429  C 11.714342948718 0.655691964285713  11.8461538461538 0.970982142857144  11.8461538461538 1.33928571428571  L 11.8461538461538 2.14285714285714  L 12.9230769230769 2.14285714285714  C 13.2147435897436 2.14285714285714  13.4671474358974 2.24888392857143  13.6802884615385 2.4609375  Z " fill-rule="nonzero" fill="#999999" stroke="none" transform="matrix(1 0 0 1 291 297 )" />
  </g>
</svg>