<?xml version="1.0" encoding="utf-8"?>
<svg version="1.1" xmlns:xlink="http://www.w3.org/1999/xlink" width="13px" height="14px" xmlns="http://www.w3.org/2000/svg">
  <g transform="matrix(1 0 0 1 -254 -568 )">
    <path d="M 1 10.75  L 1 13  L 3.25 13  L 3.25 10.75  L 1 10.75  Z M 3.75 10.75  L 3.75 13  L 6.25 13  L 6.25 10.75  L 3.75 10.75  Z M 1 7.75  L 1 10.25  L 3.25 10.25  L 3.25 7.75  L 1 7.75  Z M 3.75 7.75  L 3.75 10.25  L 6.25 10.25  L 6.25 7.75  L 3.75 7.75  Z M 1 5  L 1 7.25  L 3.25 7.25  L 3.25 5  L 1 5  Z M 6.75 10.75  L 6.75 13  L 9.25 13  L 9.25 10.75  L 6.75 10.75  Z M 3.75 5  L 3.75 7.25  L 6.25 7.25  L 6.25 5  L 3.75 5  Z M 9.75 10.75  L 9.75 13  L 12 13  L 12 10.75  L 9.75 10.75  Z M 6.75 7.75  L 6.75 10.25  L 9.25 10.25  L 9.25 7.75  L 6.75 7.75  Z M 3.92578125 3.67578125  C 3.97526041666667 3.62630208333333  4 3.56770833333333  4 3.5  L 4 1.25  C 4 1.18229166666667  3.97526041666667 1.12369791666667  3.92578125 1.07421875  C 3.87630208333333 1.02473958333333  3.81770833333333 1  3.75 1  L 3.25 1  C 3.18229166666667 1  3.12369791666667 1.02473958333333  3.07421875 1.07421875  C 3.02473958333333 1.12369791666667  3 1.18229166666667  3 1.25  L 3 3.5  C 3 3.56770833333333  3.02473958333333 3.62630208333333  3.07421875 3.67578125  C 3.12369791666667 3.72526041666667  3.18229166666667 3.75  3.25 3.75  L 3.75 3.75  C 3.81770833333333 3.75  3.87630208333333 3.72526041666667  3.92578125 3.67578125  Z M 9.75 7.75  L 9.75 10.25  L 12 10.25  L 12 7.75  L 9.75 7.75  Z M 6.75 5  L 6.75 7.25  L 9.25 7.25  L 9.25 5  L 6.75 5  Z M 9.75 5  L 9.75 7.25  L 12 7.25  L 12 5  L 9.75 5  Z M 9.92578125 3.67578125  C 9.97526041666667 3.62630208333333  10 3.56770833333333  10 3.5  L 10 1.25  C 10 1.18229166666667  9.97526041666667 1.12369791666667  9.92578125 1.07421875  C 9.87630208333333 1.02473958333333  9.81770833333333 1  9.75 1  L 9.25 1  C 9.18229166666667 1  9.12369791666667 1.02473958333333  9.07421875 1.07421875  C 9.02473958333333 1.12369791666667  9 1.18229166666667  9 1.25  L 9 3.5  C 9 3.56770833333333  9.02473958333333 3.62630208333333  9.07421875 3.67578125  C 9.12369791666667 3.72526041666667  9.18229166666667 3.75  9.25 3.75  L 9.75 3.75  C 9.81770833333333 3.75  9.87630208333333 3.72526041666667  9.92578125 3.67578125  Z M 12.703125 2.296875  C 12.9010416666667 2.49479166666667  13 2.72916666666667  13 3  L 13 13  C 13 13.2708333333333  12.9010416666667 13.5052083333333  12.703125 13.703125  C 12.5052083333333 13.9010416666667  12.2708333333333 14  12 14  L 1 14  C 0.729166666666667 14  0.494791666666667 13.9010416666667  0.296875 13.703125  C 0.0989583333333333 13.5052083333333  0 13.2708333333333  0 13  L 0 3  C 0 2.72916666666667  0.0989583333333333 2.49479166666667  0.296875 2.296875  C 0.494791666666667 2.09895833333333  0.729166666666667 2  1 2  L 2 2  L 2 1.25  C 2 0.906250000000001  2.12239583333333 0.611979166666666  2.3671875 0.3671875  C 2.61197916666667 0.122395833333333  2.90625 0  3.25 0  L 3.75 0  C 4.09375 0  4.38802083333333 0.122395833333333  4.6328125 0.3671875  C 4.87760416666667 0.611979166666666  5 0.906250000000001  5 1.25  L 5 2  L 8 2  L 8 1.25  C 8 0.906250000000001  8.12239583333333 0.611979166666666  8.3671875 0.3671875  C 8.61197916666667 0.122395833333333  8.90625 0  9.25 0  L 9.75 0  C 10.09375 0  10.3880208333333 0.122395833333333  10.6328125 0.3671875  C 10.8776041666667 0.611979166666666  11 0.906250000000001  11 1.25  L 11 2  L 12 2  C 12.2708333333333 2  12.5052083333333 2.09895833333333  12.703125 2.296875  Z " fill-rule="nonzero" fill="#666666" stroke="none" transform="matrix(1 0 0 1 254 568 )" />
  </g>
</svg>