<?xml version="1.0" encoding="utf-8"?>
<svg version="1.1" xmlns:xlink="http://www.w3.org/1999/xlink" width="13px" height="13px" xmlns="http://www.w3.org/2000/svg">
  <g transform="matrix(1 0 0 1 -370 -1135 )">
    <path d="M 3.2373046875 0.871744791666666  C 4.23318142361111 0.290581597222221  5.32074652777778 0  6.5 0  C 7.67925347222222 0  8.76681857638889 0.290581597222221  9.7626953125 0.871744791666666  C 10.7585720486111 1.45290798611111  11.5470920138889 2.24142795138889  12.1282552083333 3.2373046875  C 12.7094184027778 4.23318142361111  13 5.32074652777778  13 6.5  C 13 7.67925347222222  12.7094184027778 8.76681857638889  12.1282552083333 9.7626953125  C 11.5470920138889 10.7585720486111  10.7585720486111 11.5470920138889  9.7626953125 12.1282552083333  C 8.76681857638889 12.7094184027778  7.67925347222222 13  6.5 13  C 5.32074652777778 13  4.23318142361111 12.7094184027778  3.2373046875 12.1282552083333  C 2.24142795138889 11.5470920138889  1.45290798611111 10.7585720486111  0.871744791666667 9.7626953125  C 0.290581597222222 8.76681857638889  0 7.67925347222222  0 6.5  C 0 5.32074652777778  0.290581597222222 4.23318142361111  0.871744791666667 3.2373046875  C 1.45290798611111 2.24142795138889  2.24142795138889 1.45290798611111  3.2373046875 0.871744791666666  Z M 7.50716145833333 10.7529296875  C 7.55794270833333 10.6993272569444  7.58333333333333 10.6330295138889  7.58333333333333 10.5540364583333  L 7.58333333333333 8.94596354166667  C 7.58333333333333 8.86697048611111  7.55794270833333 8.80067274305556  7.50716145833333 8.7470703125  C 7.45638020833333 8.69346788194444  7.39431423611111 8.66666666666667  7.32096354166667 8.66666666666667  L 5.69596354166667 8.66666666666667  C 5.62261284722222 8.66666666666667  5.55772569444444 8.69487847222222  5.50130208333333 8.75130208333333  C 5.44487847222222 8.80772569444444  5.41666666666667 8.87261284722222  5.41666666666667 8.94596354166667  L 5.41666666666667 10.5540364583333  C 5.41666666666667 10.6273871527778  5.44487847222222 10.6922743055556  5.50130208333333 10.7486979166667  C 5.55772569444444 10.8051215277778  5.62261284722222 10.8333333333333  5.69596354166667 10.8333333333333  L 7.32096354166667 10.8333333333333  C 7.39431423611111 10.8333333333333  7.45638020833333 10.8065321180556  7.50716145833333 10.7529296875  Z M 7.4775390625 7.79069010416667  C 7.53114149305556 7.74837239583333  7.56076388888889 7.69900173611111  7.56640625 7.642578125  L 7.71875 2.38671875  C 7.71875 2.31901041666667  7.69053819444444 2.26822916666667  7.63411458333333 2.234375  C 7.57769097222222 2.18923611111111  7.50998263888889 2.16666666666667  7.43098958333333 2.16666666666667  L 5.56901041666667 2.16666666666667  C 5.49001736111111 2.16666666666667  5.42230902777778 2.18923611111111  5.36588541666667 2.234375  C 5.30946180555556 2.26822916666667  5.28125 2.31901041666667  5.28125 2.38671875  L 5.42513020833333 7.642578125  C 5.42513020833333 7.69900173611111  5.45334201388889 7.74837239583333  5.509765625 7.79069010416667  C 5.56618923611111 7.8330078125  5.63389756944444 7.85416666666667  5.712890625 7.85416666666667  L 7.27864583333333 7.85416666666667  C 7.35763888888889 7.85416666666667  7.42393663194444 7.8330078125  7.4775390625 7.79069010416667  Z " fill-rule="nonzero" fill="#ffffff" stroke="none" transform="matrix(1 0 0 1 370 1135 )" />
  </g>
</svg>