<?xml version="1.0" encoding="utf-8"?>
<svg version="1.1" xmlns:xlink="http://www.w3.org/1999/xlink" width="31px" height="26px" xmlns="http://www.w3.org/2000/svg">
  <g transform="matrix(1 0 0 1 -212 -1159 )">
    <path d="M 212 1159  L 243 1159  L 243 1185  L 212 1185  L 212 1159  " fill-rule="nonzero" fill="#cccccc" stroke="none" />
    <path d="M 214 1161  L 241 1161  L 241 1183  L 214 1183  L 214 1161  " fill-rule="nonzero" fill="#ffffff" stroke="none" />
    <path d="M 230.07 1166.8  C 228.978 1166.8  228.12 1165.942  228.12 1164.85  C 228.12 1163.758  228.978 1162.9  230.07 1162.9  C 231.162 1162.9  232.02 1163.758  232.02 1164.85  C 232.02 1165.942  231.162 1166.8  230.07 1166.8  " fill-rule="nonzero" fill="#cccccc" stroke="none" />
    <path d="M 215 1183  L 215 1171.45  L 221.5 1166.2  L 230.6 1172.43225806452  L 235.8 1169.35  L 241 1172.43225806452  L 241 1183  L 215 1183  " fill-rule="nonzero" fill="#169bd5" stroke="none" />
  </g>
</svg>