<?xml version="1.0" encoding="utf-8"?>
<svg version="1.1" xmlns:xlink="http://www.w3.org/1999/xlink" width="15px" height="13px" xmlns="http://www.w3.org/2000/svg">
  <g transform="matrix(1 0 0 1 -390 -240 )">
    <path d="M 5.65163439066077 12.7668271151118  C 5.5319080698755 12.9161722748018  5.36938795295077 13.0000656107044  5.19992654222608 12.9999999614996  C 5.03040997840037 13.000019220255  4.86783733554478 12.9161383246843  4.74800568919386 12.7668271151118  L 0.187151774809195 7.08725152473877  C 0.067320707826525 6.9380320341242  0 6.73564416950316  0 6.52461263862859  C 0 6.31358110775403  0.067320707826525 6.11119324313298  0.187151774809195 5.96197375251847  C 0.306955676620987 5.81264395655448  0.469511868950917 5.72873961706909  0.63901938037759 5.72873961706909  C 0.808526891804263 5.72873961706909  0.971083084134193 5.81264395655448  1.09088698594599 5.96197375251847  L 5.19982003255643 11.078777830771  L 13.9091221105091 0.233057816648047  C 14.0289494259207 0.0838336542480556  14.1914723938625 0  14.3609364612424 0  C 14.5304005286224 0  14.6929234965642 0.0838336542480556  14.812750811976 0.233057816648047  C 14.9326405766717 0.382265429436497  15 0.58468819252219  15 0.795763020352829  C 15 1.00683784818353  14.9326405766717 1.20926061126922  14.812750811976 1.35846822405767  L 5.65163439066077 12.7668271151118  Z " fill-rule="nonzero" fill="#00d8a0" stroke="none" transform="matrix(1 0 0 1 390 240 )" />
  </g>
</svg>