<?xml version="1.0" encoding="utf-8"?>
<svg version="1.1" xmlns:xlink="http://www.w3.org/1999/xlink" width="14px" height="15px" xmlns="http://www.w3.org/2000/svg">
  <g transform="matrix(1 0 0 1 -225 -1255 )">
    <path d="M 7 14.3303571428571  C 7.08974358974359 14.3303571428571  7.13461538461539 14.2857142857143  7.13461538461538 14.1964285714286  C 7.13461538461539 14.1071428571429  7.08974358974359 14.0625  7 14.0625  C 6.66907051282051 14.0625  6.38441506410257 13.9439174107143  6.14603365384615 13.7067522321429  C 5.90765224358974 13.4695870535714  5.78846153846154 13.1863839285714  5.78846153846154 12.8571428571429  C 5.78846153846154 12.7678571428571  5.74358974358974 12.7232142857143  5.65384615384615 12.7232142857143  C 5.56410256410256 12.7232142857143  5.51923076923077 12.7678571428571  5.51923076923077 12.8571428571429  C 5.51923076923077 13.2645089285714  5.66366185897436 13.6118861607143  5.95252403846154 13.8992745535714  C 6.24138621794872 14.1866629464286  6.59054487179487 14.3303571428571  7 14.3303571428571  Z M 13.234375 11.0491071428571  C 13.464342948718 11.3058035714286  13.7195512820513 11.5513392857143  14 11.7857142857143  C 14 12.0758928571429  13.8934294871795 12.3270089285714  13.6802884615385 12.5390625  C 13.4671474358974 12.7511160714286  13.2147435897436 12.8571428571429  12.9230769230769 12.8571428571429  L 9.15384615384615 12.8571428571429  C 9.15384615384615 13.4486607142857  8.94350961538462 13.9536830357143  8.52283653846154 14.3722098214286  C 8.10216346153846 14.7907366071429  7.59455128205128 15  7 15  C 6.40544871794872 15  5.89783653846154 14.7907366071429  5.47716346153846 14.3722098214286  C 5.05649038461539 13.9536830357143  4.84615384615385 13.4486607142857  4.84615384615385 12.8571428571429  L 1.07692307692308 12.8571428571429  C 0.78525641025641 12.8571428571429  0.532852564102564 12.7511160714286  0.319711538461538 12.5390625  C 0.106570512820513 12.3270089285714  0 12.0758928571429  0 11.7857142857143  C 0.280448717948718 11.5513392857143  0.535657051282051 11.3058035714286  0.765625 11.0491071428571  C 0.995592948717949 10.7924107142857  1.23397435897436 10.458984375  1.48076923076923 10.048828125  C 1.7275641025641 9.638671875  1.9364983974359 9.19642857142857  2.10757211538462 8.72209821428572  C 2.27864583333333 8.24776785714286  2.41887019230769 7.67299107142857  2.52824519230769 6.99776785714286  C 2.63762019230769 6.32254464285714  2.69230769230769 5.59709821428571  2.69230769230769 4.82142857142857  C 2.69230769230769 3.97321428571428  3.02043269230769 3.18498883928571  3.67668269230769 2.45675223214286  C 4.33293269230769 1.728515625  5.19391025641026 1.28627232142857  6.25961538461539 1.13002232142857  C 6.21474358974359 1.02399553571428  6.19230769230769 0.915178571428572  6.19230769230769 0.803571428571429  C 6.19230769230769 0.580357142857142  6.27083333333333 0.390624999999999  6.42788461538462 0.234375  C 6.5849358974359 0.0781250000000006  6.77564102564103 0  7 0  C 7.22435897435898 0  7.4150641025641 0.0781250000000006  7.57211538461538 0.234375  C 7.72916666666667 0.390624999999999  7.80769230769231 0.580357142857142  7.80769230769231 0.803571428571429  C 7.80769230769231 0.915178571428572  7.78525641025641 1.02399553571428  7.74038461538462 1.13002232142857  C 8.80608974358974 1.28627232142857  9.66706730769231 1.728515625  10.3233173076923 2.45675223214286  C 10.9795673076923 3.18498883928571  11.3076923076923 3.97321428571428  11.3076923076923 4.82142857142857  C 11.3076923076923 5.59709821428571  11.3623798076923 6.32254464285714  11.4717548076923 6.99776785714286  C 11.5811298076923 7.67299107142857  11.7213541666667 8.24776785714286  11.8924278846154 8.72209821428572  C 12.0635016025641 9.19642857142857  12.2724358974359 9.638671875  12.5192307692308 10.048828125  C 12.7660256410256 10.458984375  13.0044070512821 10.7924107142857  13.234375 11.0491071428571  Z " fill-rule="nonzero" fill="#4b8dff" stroke="none" transform="matrix(1 0 0 1 225 1255 )" />
  </g>
</svg>